%TF.GenerationSoftware,KiCad,Pcbnew,9.0.7*%
%TF.CreationDate,2026-02-05T23:50:30+01:00*%
%TF.ProjectId,fwkes,66776b65-732e-46b6-9963-61645f706362,rev?*%
%TF.SameCoordinates,Original*%
%TF.FileFunction,Copper,L1,Top*%
%TF.FilePolarity,Positive*%
%FSLAX46Y46*%
G04 Gerber Fmt 4.6, Leading zero omitted, Abs format (unit mm)*
G04 Created by KiCad (PCBNEW 9.0.7) date 2026-02-05 23:50:30*
%MOMM*%
%LPD*%
G01*
G04 APERTURE LIST*
G04 Aperture macros list*
%AMRoundRect*
0 Rectangle with rounded corners*
0 $1 Rounding radius*
0 $2 $3 $4 $5 $6 $7 $8 $9 X,Y pos of 4 corners*
0 Add a 4 corners polygon primitive as box body*
4,1,4,$2,$3,$4,$5,$6,$7,$8,$9,$2,$3,0*
0 Add four circle primitives for the rounded corners*
1,1,$1+$1,$2,$3*
1,1,$1+$1,$4,$5*
1,1,$1+$1,$6,$7*
1,1,$1+$1,$8,$9*
0 Add four rect primitives between the rounded corners*
20,1,$1+$1,$2,$3,$4,$5,0*
20,1,$1+$1,$4,$5,$6,$7,0*
20,1,$1+$1,$6,$7,$8,$9,0*
20,1,$1+$1,$8,$9,$2,$3,0*%
G04 Aperture macros list end*
%TA.AperFunction,Conductor*%
%ADD10C,0.350000*%
%TD*%
%TA.AperFunction,ComponentPad*%
%ADD11C,3.000000*%
%TD*%
%TA.AperFunction,ComponentPad*%
%ADD12C,1.600000*%
%TD*%
%TA.AperFunction,SMDPad,CuDef*%
%ADD13RoundRect,0.200000X-0.275000X0.200000X-0.275000X-0.200000X0.275000X-0.200000X0.275000X0.200000X0*%
%TD*%
%TA.AperFunction,SMDPad,CuDef*%
%ADD14RoundRect,0.250000X0.850000X0.750000X-0.850000X0.750000X-0.850000X-0.750000X0.850000X-0.750000X0*%
%TD*%
%TA.AperFunction,SMDPad,CuDef*%
%ADD15RoundRect,0.250000X0.750000X0.700000X-0.750000X0.700000X-0.750000X-0.700000X0.750000X-0.700000X0*%
%TD*%
%TA.AperFunction,SMDPad,CuDef*%
%ADD16RoundRect,0.200000X0.275000X-0.200000X0.275000X0.200000X-0.275000X0.200000X-0.275000X-0.200000X0*%
%TD*%
%TA.AperFunction,SMDPad,CuDef*%
%ADD17RoundRect,0.225000X-0.250000X0.225000X-0.250000X-0.225000X0.250000X-0.225000X0.250000X0.225000X0*%
%TD*%
%TA.AperFunction,SMDPad,CuDef*%
%ADD18RoundRect,0.150000X-0.825000X-0.150000X0.825000X-0.150000X0.825000X0.150000X-0.825000X0.150000X0*%
%TD*%
%TA.AperFunction,ComponentPad*%
%ADD19R,1.800000X1.800000*%
%TD*%
%TA.AperFunction,ComponentPad*%
%ADD20C,1.800000*%
%TD*%
%TA.AperFunction,SMDPad,CuDef*%
%ADD21RoundRect,0.200000X-0.200000X-0.275000X0.200000X-0.275000X0.200000X0.275000X-0.200000X0.275000X0*%
%TD*%
%TA.AperFunction,SMDPad,CuDef*%
%ADD22RoundRect,0.200000X0.200000X0.275000X-0.200000X0.275000X-0.200000X-0.275000X0.200000X-0.275000X0*%
%TD*%
%TA.AperFunction,SMDPad,CuDef*%
%ADD23RoundRect,0.225000X-0.225000X-0.250000X0.225000X-0.250000X0.225000X0.250000X-0.225000X0.250000X0*%
%TD*%
%TA.AperFunction,ComponentPad*%
%ADD24R,1.700000X1.700000*%
%TD*%
%TA.AperFunction,ComponentPad*%
%ADD25C,1.700000*%
%TD*%
%TA.AperFunction,ComponentPad*%
%ADD26C,1.440000*%
%TD*%
%TA.AperFunction,SMDPad,CuDef*%
%ADD27RoundRect,0.225000X0.225000X0.250000X-0.225000X0.250000X-0.225000X-0.250000X0.225000X-0.250000X0*%
%TD*%
%TA.AperFunction,SMDPad,CuDef*%
%ADD28RoundRect,0.250000X-1.100000X0.325000X-1.100000X-0.325000X1.100000X-0.325000X1.100000X0.325000X0*%
%TD*%
%TA.AperFunction,SMDPad,CuDef*%
%ADD29R,1.100000X2.000000*%
%TD*%
%TA.AperFunction,SMDPad,CuDef*%
%ADD30R,2.000000X1.000000*%
%TD*%
%TA.AperFunction,SMDPad,CuDef*%
%ADD31R,2.000000X2.000000*%
%TD*%
%TA.AperFunction,ComponentPad*%
%ADD32R,3.500000X3.500000*%
%TD*%
%TA.AperFunction,ComponentPad*%
%ADD33RoundRect,0.750000X1.000000X-0.750000X1.000000X0.750000X-1.000000X0.750000X-1.000000X-0.750000X0*%
%TD*%
%TA.AperFunction,ComponentPad*%
%ADD34RoundRect,0.875000X0.875000X-0.875000X0.875000X0.875000X-0.875000X0.875000X-0.875000X-0.875000X0*%
%TD*%
%TA.AperFunction,SMDPad,CuDef*%
%ADD35R,0.300000X1.900000*%
%TD*%
%TA.AperFunction,ComponentPad*%
%ADD36C,1.500000*%
%TD*%
%TA.AperFunction,ComponentPad*%
%ADD37R,1.500000X1.500000*%
%TD*%
%TA.AperFunction,SMDPad,CuDef*%
%ADD38RoundRect,0.225000X0.375000X-0.225000X0.375000X0.225000X-0.375000X0.225000X-0.375000X-0.225000X0*%
%TD*%
%TA.AperFunction,SMDPad,CuDef*%
%ADD39RoundRect,0.250000X0.325000X1.100000X-0.325000X1.100000X-0.325000X-1.100000X0.325000X-1.100000X0*%
%TD*%
%TA.AperFunction,ViaPad*%
%ADD40C,0.700000*%
%TD*%
%TA.AperFunction,ViaPad*%
%ADD41C,1.000000*%
%TD*%
%TA.AperFunction,Conductor*%
%ADD42C,0.200000*%
%TD*%
%TA.AperFunction,Conductor*%
%ADD43C,0.400000*%
%TD*%
%TA.AperFunction,Conductor*%
%ADD44C,0.500000*%
%TD*%
%TA.AperFunction,Conductor*%
%ADD45C,0.250000*%
%TD*%
G04 APERTURE END LIST*
%TO.N,Net-(U1-GPIO27_ADC1)*%
D10*
X172174403Y-67675051D02*
G75*
G02*
X171824403Y-67675051I-175000J0D01*
G01*
X171824403Y-67675051D02*
G75*
G02*
X172174403Y-67675051I175000J0D01*
G01*
%TD*%
D11*
%TO.P,J2,*%
%TO.N,*%
X215250000Y-48300000D03*
X222000000Y-47500000D03*
X228750000Y-48300000D03*
D12*
%TO.P,J2,1*%
%TO.N,GND*%
X220700000Y-51300000D03*
%TO.P,J2,2*%
%TO.N,Net-(U1-GPIO0)*%
X218600000Y-51300000D03*
%TO.P,J2,3*%
%TO.N,Net-(U1-GPIO11)*%
X225400000Y-51300000D03*
%TO.P,J2,4*%
%TO.N,Net-(U1-GPIO10)*%
X218600000Y-53800000D03*
%TO.P,J2,5*%
%TO.N,VCC*%
X225400000Y-53800000D03*
%TD*%
D13*
%TO.P,R7,1*%
%TO.N,Net-(U1-GPIO14)*%
X194250000Y-107500000D03*
%TO.P,R7,2*%
%TO.N,Net-(J4-CK+)*%
X194250000Y-109150000D03*
%TD*%
D14*
%TO.P,J6,MP*%
%TO.N,N/C*%
X219750000Y-122750000D03*
X211250000Y-122750000D03*
D15*
%TO.P,J6,R*%
%TO.N,Net-(J6-PadR)*%
X211850000Y-116000000D03*
%TO.P,J6,S*%
%TO.N,GND*%
X219150000Y-116000000D03*
%TO.P,J6,T*%
%TO.N,Net-(J6-PadT)*%
X215500000Y-113150000D03*
%TD*%
D16*
%TO.P,R21,1*%
%TO.N,Net-(J6-PadT)*%
X214500000Y-107825000D03*
%TO.P,R21,2*%
%TO.N,Net-(C12-Pad2)*%
X214500000Y-106175000D03*
%TD*%
D17*
%TO.P,C4,1*%
%TO.N,Net-(C13-Pad2)*%
X186200000Y-90525000D03*
%TO.P,C4,2*%
%TO.N,GND*%
X186200000Y-92075000D03*
%TD*%
D18*
%TO.P,U3,1,GAIN*%
%TO.N,unconnected-(U3-GAIN-Pad1)*%
X201750000Y-91345000D03*
%TO.P,U3,2,-*%
%TO.N,GND*%
X201750000Y-92615000D03*
%TO.P,U3,3,+*%
%TO.N,Net-(U3-+)*%
X201750000Y-93885000D03*
%TO.P,U3,4,GND*%
%TO.N,GND*%
X201750000Y-95155000D03*
%TO.P,U3,5*%
%TO.N,Net-(C12-Pad1)*%
X206700000Y-95155000D03*
%TO.P,U3,6,V+*%
%TO.N,VCC*%
X206700000Y-93885000D03*
%TO.P,U3,7,BYPASS*%
%TO.N,Net-(U3-BYPASS)*%
X206700000Y-92615000D03*
%TO.P,U3,8,GAIN*%
%TO.N,unconnected-(U3-GAIN-Pad8)*%
X206700000Y-91345000D03*
%TD*%
D13*
%TO.P,R11,1*%
%TO.N,Net-(U1-GPIO18)*%
X200250000Y-107500000D03*
%TO.P,R11,2*%
%TO.N,Net-(J4-D1+)*%
X200250000Y-109150000D03*
%TD*%
D11*
%TO.P,J3,*%
%TO.N,*%
X197250000Y-48300000D03*
X204000000Y-47500000D03*
X210750000Y-48300000D03*
D12*
%TO.P,J3,1*%
%TO.N,GND*%
X202700000Y-51300000D03*
%TO.P,J3,2*%
%TO.N,Net-(U1-GPIO1)*%
X200600000Y-51300000D03*
%TO.P,J3,3*%
%TO.N,Net-(U1-GPIO11)*%
X207400000Y-51300000D03*
%TO.P,J3,4*%
%TO.N,Net-(U1-GPIO10)*%
X200600000Y-53800000D03*
%TO.P,J3,5*%
%TO.N,VCC*%
X207400000Y-53800000D03*
%TD*%
D13*
%TO.P,R13,1*%
%TO.N,Net-(U1-GPIO16)*%
X203250000Y-107500000D03*
%TO.P,R13,2*%
%TO.N,Net-(J4-D2+)*%
X203250000Y-109150000D03*
%TD*%
D19*
%TO.P,D2,1,K*%
%TO.N,GND*%
X184250000Y-49750000D03*
D20*
%TO.P,D2,2,A*%
%TO.N,Net-(D2-A)*%
X181710000Y-49750000D03*
%TD*%
D21*
%TO.P,R17,1*%
%TO.N,Net-(C1-Pad2)*%
X172175000Y-94000000D03*
%TO.P,R17,2*%
%TO.N,Net-(U2A-1+)*%
X173825000Y-94000000D03*
%TD*%
D22*
%TO.P,R3,1*%
%TO.N,VCC*%
X224575000Y-58500000D03*
%TO.P,R3,2*%
%TO.N,Net-(U1-GPIO0)*%
X222925000Y-58500000D03*
%TD*%
D16*
%TO.P,R20,1*%
%TO.N,Net-(J6-PadR)*%
X212750000Y-107825000D03*
%TO.P,R20,2*%
%TO.N,Net-(C12-Pad2)*%
X212750000Y-106175000D03*
%TD*%
D21*
%TO.P,R14,1*%
%TO.N,Net-(U1-GPIO28_ADC2)*%
X167425000Y-94000000D03*
%TO.P,R14,2*%
%TO.N,Net-(C1-Pad2)*%
X169075000Y-94000000D03*
%TD*%
D17*
%TO.P,C2,1*%
%TO.N,GND*%
X175000000Y-90475000D03*
%TO.P,C2,2*%
%TO.N,Net-(U2A-1+)*%
X175000000Y-92025000D03*
%TD*%
D13*
%TO.P,R9,1*%
%TO.N,Net-(U1-GPIO12)*%
X197250000Y-107500000D03*
%TO.P,R9,2*%
%TO.N,Net-(J4-D0+)*%
X197250000Y-109150000D03*
%TD*%
D19*
%TO.P,D3,1,K*%
%TO.N,GND*%
X190000000Y-49750000D03*
D20*
%TO.P,D3,2,A*%
%TO.N,Net-(D3-A)*%
X187460000Y-49750000D03*
%TD*%
D23*
%TO.P,C7,1*%
%TO.N,Net-(C12-Pad1)*%
X212475000Y-97500000D03*
%TO.P,C7,2*%
%TO.N,Net-(C7-Pad2)*%
X214025000Y-97500000D03*
%TD*%
D24*
%TO.P,U1,1,GPIO0*%
%TO.N,Net-(U1-GPIO0)*%
X110650000Y-112115000D03*
D25*
%TO.P,U1,2,GPIO1*%
%TO.N,Net-(U1-GPIO1)*%
X113190000Y-112115000D03*
%TO.P,U1,3,GND*%
%TO.N,unconnected-(U1-GND-Pad3)*%
X115730000Y-112115000D03*
%TO.P,U1,4,GPIO2*%
%TO.N,Net-(J1-CLK)*%
X118270000Y-112115000D03*
%TO.P,U1,5,GPIO3*%
%TO.N,Net-(J1-CMD)*%
X120810000Y-112115000D03*
%TO.P,U1,6,GPIO4*%
%TO.N,Net-(J1-DAT0)*%
X123350000Y-112115000D03*
%TO.P,U1,7,GPIO5*%
%TO.N,Net-(J1-CD{slash}DAT3)*%
X125890000Y-112115000D03*
%TO.P,U1,8,GND*%
%TO.N,unconnected-(U1-GND-Pad8)*%
X128430000Y-112115000D03*
%TO.P,U1,9,GPIO6*%
%TO.N,unconnected-(U1-GPIO6-Pad9)*%
X130970000Y-112115000D03*
%TO.P,U1,10,GPIO7*%
%TO.N,unconnected-(U1-GPIO7-Pad10)*%
X133510000Y-112115000D03*
%TO.P,U1,11,GPIO8*%
%TO.N,unconnected-(U1-GPIO8-Pad11)*%
X136050000Y-112115000D03*
%TO.P,U1,12,GPIO9*%
%TO.N,unconnected-(U1-GPIO9-Pad12)*%
X138590000Y-112115000D03*
%TO.P,U1,13,GND*%
%TO.N,unconnected-(U1-GND-Pad13)*%
X141130000Y-112115000D03*
%TO.P,U1,14,GPIO10*%
%TO.N,Net-(U1-GPIO10)*%
X143670000Y-112115000D03*
%TO.P,U1,15,GPIO11*%
%TO.N,Net-(U1-GPIO11)*%
X146210000Y-112115000D03*
%TO.P,U1,16,GPIO12*%
%TO.N,Net-(U1-GPIO12)*%
X148750000Y-112115000D03*
%TO.P,U1,17,GPIO13*%
%TO.N,Net-(U1-GPIO13)*%
X151290000Y-112115000D03*
%TO.P,U1,18,GND*%
%TO.N,unconnected-(U1-GND-Pad18)*%
X153830000Y-112115000D03*
%TO.P,U1,19,GPIO14*%
%TO.N,Net-(U1-GPIO14)*%
X156370000Y-112115000D03*
%TO.P,U1,20,GPIO15*%
%TO.N,Net-(U1-GPIO15)*%
X158910000Y-112115000D03*
%TO.P,U1,21,GPIO16*%
%TO.N,Net-(U1-GPIO16)*%
X158910000Y-94335000D03*
%TO.P,U1,22,GPIO17*%
%TO.N,Net-(U1-GPIO17)*%
X156370000Y-94335000D03*
%TO.P,U1,23,GND*%
%TO.N,unconnected-(U1-GND-Pad23)*%
X153830000Y-94335000D03*
%TO.P,U1,24,GPIO18*%
%TO.N,Net-(U1-GPIO18)*%
X151290000Y-94335000D03*
%TO.P,U1,25,GPIO19*%
%TO.N,Net-(U1-GPIO19)*%
X148750000Y-94335000D03*
%TO.P,U1,26,GPIO20*%
%TO.N,Net-(U1-GPIO20)*%
X146210000Y-94335000D03*
%TO.P,U1,27,GPIO21*%
%TO.N,Net-(U1-GPIO21)*%
X143670000Y-94335000D03*
%TO.P,U1,28,GND*%
%TO.N,unconnected-(U1-GND-Pad28)*%
X141130000Y-94335000D03*
%TO.P,U1,29,GPIO22*%
%TO.N,unconnected-(U1-GPIO22-Pad29)*%
X138590000Y-94335000D03*
%TO.P,U1,30,RUN*%
%TO.N,unconnected-(U1-RUN-Pad30)*%
X136050000Y-94335000D03*
%TO.P,U1,31,GPIO26_ADC0*%
%TO.N,unconnected-(U1-GPIO26_ADC0-Pad31)*%
X133510000Y-94335000D03*
%TO.P,U1,32,GPIO27_ADC1*%
%TO.N,Net-(U1-GPIO27_ADC1)*%
X130970000Y-94335000D03*
%TO.P,U1,33,AGND*%
%TO.N,unconnected-(U1-AGND-Pad33)*%
X128430000Y-94335000D03*
%TO.P,U1,34,GPIO28_ADC2*%
%TO.N,Net-(U1-GPIO28_ADC2)*%
X125890000Y-94335000D03*
%TO.P,U1,35,ADC_VREF*%
%TO.N,unconnected-(U1-ADC_VREF-Pad35)*%
X123350000Y-94335000D03*
%TO.P,U1,36,3V3*%
%TO.N,/+3.3V*%
X120810000Y-94335000D03*
%TO.P,U1,37,3V3_EN*%
%TO.N,unconnected-(U1-3V3_EN-Pad37)*%
X118270000Y-94335000D03*
%TO.P,U1,38,GND*%
%TO.N,GND*%
X115730000Y-94335000D03*
%TO.P,U1,39,VSYS*%
%TO.N,Net-(D1-K)*%
X113190000Y-94335000D03*
D24*
%TO.P,U1,40,VBUS*%
%TO.N,unconnected-(U1-VBUS-Pad40)*%
X110650000Y-94335000D03*
%TD*%
D22*
%TO.P,R15,1*%
%TO.N,VCC*%
X175115000Y-67670000D03*
%TO.P,R15,2*%
%TO.N,Net-(U1-GPIO27_ADC1)*%
X173465000Y-67670000D03*
%TD*%
D13*
%TO.P,R6,1*%
%TO.N,Net-(U1-GPIO15)*%
X192750000Y-110500000D03*
%TO.P,R6,2*%
%TO.N,Net-(J4-CK-)*%
X192750000Y-112150000D03*
%TD*%
D16*
%TO.P,R16,1*%
%TO.N,Net-(U1-GPIO20)*%
X187750000Y-60075000D03*
%TO.P,R16,2*%
%TO.N,Net-(D3-A)*%
X187750000Y-58425000D03*
%TD*%
D23*
%TO.P,C13,1*%
%TO.N,Net-(U2A-1-)*%
X186925000Y-88300000D03*
%TO.P,C13,2*%
%TO.N,Net-(C13-Pad2)*%
X188475000Y-88300000D03*
%TD*%
D18*
%TO.P,U2,1*%
%TO.N,Net-(U2A-1-)*%
X179025000Y-91595000D03*
%TO.P,U2,2,1-*%
X179025000Y-92865000D03*
%TO.P,U2,3,1+*%
%TO.N,Net-(U2A-1+)*%
X179025000Y-94135000D03*
%TO.P,U2,4,V-*%
%TO.N,GND*%
X179025000Y-95405000D03*
%TO.P,U2,5,2+*%
X183975000Y-95405000D03*
%TO.P,U2,6,2-*%
X183975000Y-94135000D03*
%TO.P,U2,7*%
%TO.N,N/C*%
X183975000Y-92865000D03*
%TO.P,U2,8,V+*%
%TO.N,VCC*%
X183975000Y-91595000D03*
%TD*%
D13*
%TO.P,R1,1*%
%TO.N,/+3.3V*%
X119750000Y-80675000D03*
%TO.P,R1,2*%
%TO.N,Net-(J1-DAT0)*%
X119750000Y-82325000D03*
%TD*%
%TO.P,R12,1*%
%TO.N,Net-(U1-GPIO17)*%
X201750000Y-110500000D03*
%TO.P,R12,2*%
%TO.N,Net-(J4-D2-)*%
X201750000Y-112150000D03*
%TD*%
D26*
%TO.P,RV1,1,1*%
%TO.N,Net-(C13-Pad2)*%
X191970000Y-89960000D03*
%TO.P,RV1,2,2*%
%TO.N,Net-(R19-Pad1)*%
X194510000Y-92500000D03*
%TO.P,RV1,3,3*%
%TO.N,GND*%
X191970000Y-95040000D03*
%TD*%
D27*
%TO.P,C9,1*%
%TO.N,VCC*%
X226668418Y-100751491D03*
%TO.P,C9,2*%
%TO.N,GND*%
X225118418Y-100751491D03*
%TD*%
D28*
%TO.P,C8,1*%
%TO.N,Net-(C12-Pad1)*%
X211000000Y-100525000D03*
%TO.P,C8,2*%
%TO.N,Net-(C12-Pad2)*%
X211000000Y-103475000D03*
%TD*%
D29*
%TO.P,J1,1,CD/DAT3*%
%TO.N,Net-(J1-CD{slash}DAT3)*%
X119425000Y-74450000D03*
%TO.P,J1,2,CMD*%
%TO.N,Net-(J1-CMD)*%
X121925000Y-74450000D03*
%TO.P,J1,3,VSS*%
%TO.N,GND*%
X124425000Y-74450000D03*
%TO.P,J1,4,VDD*%
%TO.N,/+3.3V*%
X126925000Y-74450000D03*
%TO.P,J1,5,CLK*%
%TO.N,Net-(J1-CLK)*%
X129425000Y-74450000D03*
%TO.P,J1,6,VSS*%
%TO.N,GND*%
X131925000Y-74450000D03*
%TO.P,J1,7,DAT0*%
%TO.N,Net-(J1-DAT0)*%
X134350000Y-74450000D03*
%TO.P,J1,8,DAT1*%
%TO.N,unconnected-(J1-DAT1-Pad8)*%
X136050000Y-74450000D03*
%TO.P,J1,9,DAT2*%
%TO.N,unconnected-(J1-DAT2-Pad9)*%
X116925000Y-74450000D03*
D30*
%TO.P,J1,CP*%
%TO.N,N/C*%
X139100000Y-63050000D03*
D31*
%TO.P,J1,SH*%
X140000000Y-67700000D03*
X140000000Y-49050000D03*
X111000000Y-67700000D03*
X111000000Y-49050000D03*
D30*
%TO.P,J1,SW*%
X139100000Y-51500000D03*
%TO.P,J1,WP*%
X139100000Y-54100000D03*
%TD*%
D32*
%TO.P,J5,1*%
%TO.N,VCC*%
X227775000Y-115500000D03*
D33*
%TO.P,J5,2*%
%TO.N,GND*%
X227775000Y-121500000D03*
D34*
%TO.P,J5,3*%
%TO.N,N/C*%
X232475000Y-118500000D03*
%TD*%
D16*
%TO.P,R18,1*%
%TO.N,Net-(U1-GPIO21)*%
X181750000Y-61325000D03*
%TO.P,R18,2*%
%TO.N,Net-(D2-A)*%
X181750000Y-59675000D03*
%TD*%
D23*
%TO.P,C5,1*%
%TO.N,GND*%
X203475000Y-97500000D03*
%TO.P,C5,2*%
%TO.N,VCC*%
X205025000Y-97500000D03*
%TD*%
D35*
%TO.P,J4,1,D2+*%
%TO.N,Net-(J4-D2+)*%
X199500000Y-115725000D03*
%TO.P,J4,2,D2S*%
%TO.N,GND*%
X199000000Y-115725000D03*
%TO.P,J4,3,D2-*%
%TO.N,Net-(J4-D2-)*%
X198500000Y-115725000D03*
%TO.P,J4,4,D1+*%
%TO.N,Net-(J4-D1+)*%
X198000000Y-115725000D03*
%TO.P,J4,5,D1S*%
%TO.N,GND*%
X197500000Y-115725000D03*
%TO.P,J4,6,D1-*%
%TO.N,Net-(J4-D1-)*%
X197000000Y-115725000D03*
%TO.P,J4,7,D0+*%
%TO.N,Net-(J4-D0+)*%
X196500000Y-115725000D03*
%TO.P,J4,8,D0S*%
%TO.N,GND*%
X196000000Y-115725000D03*
%TO.P,J4,9,D0-*%
%TO.N,Net-(J4-D0-)*%
X195500000Y-115725000D03*
%TO.P,J4,10,CK+*%
%TO.N,Net-(J4-CK+)*%
X195000000Y-115725000D03*
%TO.P,J4,11,CKS*%
%TO.N,GND*%
X194500000Y-115725000D03*
%TO.P,J4,12,CK-*%
%TO.N,Net-(J4-CK-)*%
X194000000Y-115725000D03*
%TO.P,J4,13,CEC*%
%TO.N,unconnected-(J4-CEC-Pad13)*%
X193500000Y-115725000D03*
%TO.P,J4,14,UTILITY*%
%TO.N,unconnected-(J4-UTILITY-Pad14)*%
X193000000Y-115725000D03*
%TO.P,J4,15,SCL*%
%TO.N,unconnected-(J4-SCL-Pad15)*%
X192500000Y-115725000D03*
%TO.P,J4,16,SDA*%
%TO.N,unconnected-(J4-SDA-Pad16)*%
X192000000Y-115725000D03*
%TO.P,J4,17,GND*%
%TO.N,GND*%
X191500000Y-115725000D03*
%TO.P,J4,18,+5V*%
%TO.N,VCC*%
X191000000Y-115725000D03*
%TO.P,J4,19,HPD*%
%TO.N,Net-(J4-HPD)*%
X190500000Y-115725000D03*
D20*
%TO.P,J4,SH,SH*%
%TO.N,GND*%
X186900000Y-121625000D03*
X187500000Y-116725000D03*
X202000000Y-116725000D03*
X202600000Y-121625000D03*
%TD*%
D36*
%TO.P,SW1,*%
%TO.N,*%
X158000000Y-51920000D03*
X152920000Y-51920000D03*
D37*
%TO.P,SW1,1,A*%
%TO.N,Net-(D1-A)*%
X158000000Y-57000000D03*
D36*
%TO.P,SW1,2,B*%
%TO.N,VCC*%
X155460000Y-57000000D03*
%TO.P,SW1,3*%
%TO.N,N/C*%
X152920000Y-57000000D03*
%TD*%
%TO.P,SW2,*%
%TO.N,*%
X172000000Y-51920000D03*
X166920000Y-51920000D03*
D37*
%TO.P,SW2,1,1*%
%TO.N,Net-(U1-GPIO27_ADC1)*%
X172000000Y-57000000D03*
D36*
%TO.P,SW2,2,2*%
%TO.N,GND*%
X169460000Y-57000000D03*
%TO.P,SW2,3*%
%TO.N,N/C*%
X166920000Y-57000000D03*
%TD*%
D13*
%TO.P,R5,1*%
%TO.N,VCC*%
X187189824Y-110546246D03*
%TO.P,R5,2*%
%TO.N,Net-(J4-HPD)*%
X187189824Y-112196246D03*
%TD*%
D27*
%TO.P,C6,1*%
%TO.N,GND*%
X212525000Y-92750000D03*
%TO.P,C6,2*%
%TO.N,Net-(U3-BYPASS)*%
X210975000Y-92750000D03*
%TD*%
D13*
%TO.P,R8,1*%
%TO.N,Net-(U1-GPIO13)*%
X195750000Y-110500000D03*
%TO.P,R8,2*%
%TO.N,Net-(J4-D0-)*%
X195750000Y-112150000D03*
%TD*%
D23*
%TO.P,C3,1*%
%TO.N,GND*%
X180693881Y-97792515D03*
%TO.P,C3,2*%
%TO.N,VCC*%
X182243881Y-97792515D03*
%TD*%
D28*
%TO.P,C12,1*%
%TO.N,Net-(C12-Pad1)*%
X215250000Y-100550000D03*
%TO.P,C12,2*%
%TO.N,Net-(C12-Pad2)*%
X215250000Y-103500000D03*
%TD*%
D21*
%TO.P,R19,1*%
%TO.N,Net-(R19-Pad1)*%
X196675000Y-92500000D03*
%TO.P,R19,2*%
%TO.N,Net-(U3-+)*%
X198325000Y-92500000D03*
%TD*%
D13*
%TO.P,R10,1*%
%TO.N,Net-(U1-GPIO19)*%
X198750000Y-110500000D03*
%TO.P,R10,2*%
%TO.N,Net-(J4-D1-)*%
X198750000Y-112150000D03*
%TD*%
D16*
%TO.P,R2,1*%
%TO.N,/+3.3V*%
X111000000Y-82750000D03*
%TO.P,R2,2*%
%TO.N,Net-(J1-CD{slash}DAT3)*%
X111000000Y-81100000D03*
%TD*%
D38*
%TO.P,D1,1,K*%
%TO.N,Net-(D1-K)*%
X147750000Y-75900000D03*
%TO.P,D1,2,A*%
%TO.N,Net-(D1-A)*%
X147750000Y-72600000D03*
%TD*%
D39*
%TO.P,C10,1*%
%TO.N,VCC*%
X227250000Y-104750000D03*
%TO.P,C10,2*%
%TO.N,GND*%
X224300000Y-104750000D03*
%TD*%
D27*
%TO.P,C11,1*%
%TO.N,VCC*%
X226655244Y-98261682D03*
%TO.P,C11,2*%
%TO.N,GND*%
X225105244Y-98261682D03*
%TD*%
D17*
%TO.P,C1,1*%
%TO.N,GND*%
X170762278Y-90474701D03*
%TO.P,C1,2*%
%TO.N,Net-(C1-Pad2)*%
X170762278Y-92024701D03*
%TD*%
D16*
%TO.P,R22,1*%
%TO.N,Net-(C7-Pad2)*%
X215400000Y-95425000D03*
%TO.P,R22,2*%
%TO.N,GND*%
X215400000Y-93775000D03*
%TD*%
D22*
%TO.P,R4,1*%
%TO.N,VCC*%
X204825000Y-57500000D03*
%TO.P,R4,2*%
%TO.N,Net-(U1-GPIO1)*%
X203175000Y-57500000D03*
%TD*%
D40*
%TO.N,GND*%
X187710000Y-95040000D03*
X177000000Y-89000000D03*
X215400000Y-92700000D03*
X221000000Y-116500000D03*
X176500000Y-95500000D03*
X190500000Y-111000000D03*
X131910144Y-76500000D03*
D41*
X224275000Y-96000000D03*
D40*
%TO.N,VCC*%
X183975000Y-89475000D03*
D41*
X227461075Y-95969477D03*
D40*
X177250000Y-65250000D03*
X209385000Y-93885000D03*
X188671853Y-110561070D03*
%TO.N,Net-(J1-CD{slash}DAT3)*%
X115000000Y-81500000D03*
%TO.N,Net-(J1-CLK)*%
X126825000Y-78675000D03*
%TO.N,Net-(J1-CMD)*%
X117500000Y-79600000D03*
%TO.N,/+3.3V*%
X114250000Y-83750000D03*
%TO.N,Net-(J1-DAT0)*%
X123500000Y-82000000D03*
%TO.N,Net-(U1-GPIO0)*%
X110500000Y-115000000D03*
%TD*%
D42*
%TO.N,Net-(J1-CMD)*%
X117500000Y-79600000D02*
X117850000Y-79250000D01*
X117850000Y-79250000D02*
X118750000Y-79250000D01*
X118750000Y-79250000D02*
X121925000Y-76075000D01*
X121925000Y-76075000D02*
X121925000Y-74450000D01*
D43*
%TO.N,Net-(D1-A)*%
X147750000Y-72600000D02*
X147750000Y-70250000D01*
X158000000Y-60000000D02*
X158000000Y-57000000D01*
X147750000Y-70250000D02*
X158000000Y-60000000D01*
D44*
%TO.N,GND*%
X224275000Y-98975000D02*
X224275000Y-96000000D01*
D45*
X191970000Y-95040000D02*
X201635000Y-95040000D01*
X180405000Y-95405000D02*
X180693881Y-95693881D01*
X197500000Y-115725000D02*
X197500000Y-116977000D01*
X219650000Y-116500000D02*
X219150000Y-116000000D01*
D44*
X224300000Y-120300000D02*
X225500000Y-121500000D01*
D45*
X186000000Y-95500000D02*
X184070000Y-95500000D01*
X204000000Y-93000000D02*
X204000000Y-94750000D01*
D42*
X174999701Y-90474701D02*
X175000000Y-90475000D01*
D45*
X176500000Y-95500000D02*
X176595000Y-95405000D01*
X187250000Y-95500000D02*
X186000000Y-95500000D01*
X194500000Y-115725000D02*
X194500000Y-116977000D01*
X196000000Y-115725000D02*
X196000000Y-116977000D01*
X187710000Y-95040000D02*
X187250000Y-95500000D01*
D42*
X177000000Y-89500000D02*
X176000000Y-90500000D01*
D45*
X215400000Y-92700000D02*
X215400000Y-93775000D01*
X199000000Y-116977000D02*
X199000000Y-115725000D01*
X195976000Y-117001000D02*
X196000000Y-116977000D01*
X204000000Y-94750000D02*
X203595000Y-95155000D01*
X196000000Y-116977000D02*
X196024000Y-117001000D01*
X221000000Y-116500000D02*
X219650000Y-116500000D01*
X212525000Y-92750000D02*
X215350000Y-92750000D01*
X191500000Y-116977000D02*
X191524000Y-117001000D01*
D42*
X170762278Y-90474701D02*
X174999701Y-90474701D01*
D45*
X196024000Y-117001000D02*
X197424000Y-117001000D01*
D44*
X224300000Y-104750000D02*
X224300000Y-120300000D01*
D45*
X215350000Y-92750000D02*
X215400000Y-92700000D01*
D42*
X124425000Y-72967562D02*
X125042562Y-72350000D01*
D45*
X191524000Y-117001000D02*
X194476000Y-117001000D01*
D42*
X185635000Y-94135000D02*
X186000000Y-94500000D01*
X125042562Y-72350000D02*
X131278660Y-72350000D01*
D44*
X224275000Y-100750000D02*
X224275000Y-98975000D01*
D42*
X186000000Y-94500000D02*
X186000000Y-95500000D01*
D45*
X201750000Y-95155000D02*
X201750000Y-96636806D01*
X197500000Y-116977000D02*
X197524000Y-117001000D01*
X191500000Y-111500000D02*
X191500000Y-115725000D01*
D42*
X183975000Y-94135000D02*
X185635000Y-94135000D01*
D45*
X191000000Y-111000000D02*
X191500000Y-111500000D01*
X201635000Y-95040000D02*
X201750000Y-95155000D01*
X176595000Y-95405000D02*
X179025000Y-95405000D01*
D42*
X176000000Y-90500000D02*
X175975000Y-90475000D01*
D45*
X179025000Y-95405000D02*
X180405000Y-95405000D01*
X180693881Y-95693881D02*
X180693881Y-97792515D01*
X197524000Y-117001000D02*
X198976000Y-117001000D01*
D42*
X177000000Y-89000000D02*
X177000000Y-89500000D01*
D45*
X203595000Y-95155000D02*
X201750000Y-95155000D01*
D42*
X124425000Y-74450000D02*
X124425000Y-72967562D01*
D44*
X225500000Y-121500000D02*
X227775000Y-121500000D01*
D45*
X191500000Y-115725000D02*
X191500000Y-116977000D01*
X201750000Y-96636806D02*
X202613194Y-97500000D01*
D42*
X186200000Y-93530000D02*
X187710000Y-95040000D01*
X175975000Y-90475000D02*
X175000000Y-90475000D01*
D45*
X194476000Y-117001000D02*
X194500000Y-116977000D01*
X202613194Y-97500000D02*
X203475000Y-97500000D01*
D44*
X224275000Y-104250000D02*
X224275000Y-100750000D01*
D45*
X197500000Y-116925000D02*
X197500000Y-115725000D01*
X184070000Y-95500000D02*
X183975000Y-95405000D01*
D44*
X224300000Y-104275000D02*
X224275000Y-104250000D01*
D45*
X194524000Y-117001000D02*
X195976000Y-117001000D01*
X201750000Y-92615000D02*
X203615000Y-92615000D01*
X187710000Y-95040000D02*
X191970000Y-95040000D01*
X203615000Y-92615000D02*
X204000000Y-93000000D01*
D42*
X131925000Y-72996340D02*
X131925000Y-74450000D01*
D44*
X224275000Y-98261682D02*
X224988318Y-98261682D01*
X224988318Y-98261682D02*
X225000000Y-98250000D01*
D42*
X131925000Y-76075000D02*
X131925000Y-74450000D01*
X131278660Y-72350000D02*
X131925000Y-72996340D01*
D45*
X190500000Y-111000000D02*
X191000000Y-111000000D01*
X224300000Y-104750000D02*
X224300000Y-104275000D01*
X198976000Y-117001000D02*
X199000000Y-116977000D01*
D42*
X186200000Y-92075000D02*
X186200000Y-93530000D01*
X131910144Y-76089856D02*
X131925000Y-76075000D01*
D44*
X224275000Y-100750000D02*
X225000000Y-100750000D01*
D45*
X197424000Y-117001000D02*
X197500000Y-116925000D01*
X194500000Y-116977000D02*
X194524000Y-117001000D01*
D42*
X131910144Y-76500000D02*
X131910144Y-76089856D01*
D45*
%TO.N,Net-(C1-Pad2)*%
X170762278Y-92024701D02*
X170762278Y-93962278D01*
X170801799Y-92064222D02*
X170762278Y-92024701D01*
X170762278Y-93962278D02*
X170800000Y-94000000D01*
D42*
X169075000Y-94000000D02*
X170800000Y-94000000D01*
X170800000Y-94000000D02*
X172175000Y-94000000D01*
%TO.N,Net-(U2A-1+)*%
X175000000Y-92025000D02*
X175000000Y-94000000D01*
X178890000Y-94000000D02*
X179025000Y-94135000D01*
D45*
X174500000Y-94000000D02*
X178890000Y-94000000D01*
D42*
X173825000Y-94000000D02*
X174500000Y-94000000D01*
X175000000Y-94000000D02*
X174500000Y-94000000D01*
D44*
%TO.N,VCC*%
X227250000Y-114975000D02*
X227775000Y-115500000D01*
X227525000Y-101630000D02*
X227525000Y-100750000D01*
D42*
X182243881Y-91902843D02*
X182551724Y-91595000D01*
D44*
X227525000Y-99000000D02*
X227500000Y-98975000D01*
X227250000Y-104750000D02*
X227250000Y-114975000D01*
D42*
X188657029Y-110546246D02*
X188671853Y-110561070D01*
D44*
X227250000Y-104750000D02*
X227250000Y-101905000D01*
X227461075Y-95969477D02*
X227500000Y-96008402D01*
X227500000Y-98250000D02*
X226550000Y-98250000D01*
D42*
X204825000Y-57500000D02*
X204825000Y-56375000D01*
D44*
X227525000Y-100750000D02*
X226550000Y-100750000D01*
X227500000Y-98975000D02*
X227500000Y-98250000D01*
D45*
X176080000Y-67670000D02*
X175115000Y-67670000D01*
D42*
X225400000Y-57675000D02*
X224575000Y-58500000D01*
X204825000Y-56375000D02*
X207400000Y-53800000D01*
D45*
X177250000Y-66500000D02*
X176080000Y-67670000D01*
D42*
X225400000Y-53800000D02*
X225400000Y-57675000D01*
X191000000Y-115725000D02*
X191000000Y-112889217D01*
X191000000Y-112889217D02*
X188671853Y-110561070D01*
D44*
X227500000Y-96008402D02*
X227500000Y-98250000D01*
X227525000Y-100750000D02*
X227525000Y-99000000D01*
X227250000Y-101905000D02*
X227525000Y-101630000D01*
D45*
X177250000Y-65250000D02*
X177250000Y-66500000D01*
X205579680Y-93885000D02*
X205025000Y-94439680D01*
D42*
X182243881Y-91902843D02*
X182243881Y-97792515D01*
D45*
X206700000Y-93885000D02*
X205579680Y-93885000D01*
D42*
X187189824Y-110546246D02*
X188657029Y-110546246D01*
D45*
X209385000Y-93885000D02*
X206700000Y-93885000D01*
D42*
X182551724Y-91595000D02*
X183975000Y-91595000D01*
D45*
X205025000Y-94439680D02*
X205025000Y-97500000D01*
D42*
X183975000Y-89475000D02*
X183975000Y-91595000D01*
%TO.N,Net-(U2A-1-)*%
X181000000Y-89500000D02*
X182200000Y-88300000D01*
X181000000Y-91500000D02*
X181000000Y-89500000D01*
X180905000Y-91595000D02*
X181000000Y-91500000D01*
X181000000Y-92353300D02*
X180488300Y-92865000D01*
X182200000Y-88300000D02*
X186925000Y-88300000D01*
X180488300Y-92865000D02*
X179025000Y-92865000D01*
X179025000Y-91595000D02*
X180905000Y-91595000D01*
X181000000Y-91500000D02*
X181000000Y-92353300D01*
D45*
%TO.N,Net-(U3-BYPASS)*%
X210725000Y-92750000D02*
X210975000Y-92750000D01*
X206700000Y-92615000D02*
X210590000Y-92615000D01*
X210590000Y-92615000D02*
X210725000Y-92750000D01*
%TO.N,Net-(C12-Pad1)*%
X208655000Y-95155000D02*
X211000000Y-97500000D01*
X206700000Y-95155000D02*
X208655000Y-95155000D01*
X211000000Y-97500000D02*
X211000000Y-100525000D01*
D42*
X211000000Y-97500000D02*
X212475000Y-97500000D01*
D45*
X211000000Y-97500000D02*
X211000000Y-100500000D01*
X211000000Y-100500000D02*
X215250000Y-100500000D01*
X215250000Y-100500000D02*
X215250000Y-100525000D01*
%TO.N,Net-(C12-Pad2)*%
X211000000Y-103475000D02*
X211000000Y-104500000D01*
X214475000Y-105225000D02*
X215250000Y-104450000D01*
X214475000Y-105225000D02*
X214500000Y-105250000D01*
X215250000Y-104450000D02*
X215250000Y-103500000D01*
X211725000Y-105225000D02*
X214475000Y-105225000D01*
X212750000Y-106675000D02*
X212750000Y-105250000D01*
X211000000Y-104500000D02*
X211725000Y-105225000D01*
X214500000Y-105250000D02*
X214500000Y-106175000D01*
D44*
%TO.N,Net-(D1-K)*%
X122250000Y-83250000D02*
X113190000Y-92310000D01*
X142500000Y-76000000D02*
X135250000Y-83250000D01*
X113190000Y-92310000D02*
X113190000Y-94335000D01*
X135250000Y-83250000D02*
X122250000Y-83250000D01*
X147750000Y-75900000D02*
X147750000Y-76000000D01*
X147750000Y-76000000D02*
X142500000Y-76000000D01*
D45*
%TO.N,Net-(D2-A)*%
X181710000Y-50750000D02*
X181730000Y-50770000D01*
X181730000Y-56500000D02*
X181750000Y-56520000D01*
X181710000Y-49750000D02*
X181710000Y-50750000D01*
X181730000Y-50770000D02*
X181730000Y-56500000D01*
X181750000Y-56520000D02*
X181750000Y-59675000D01*
%TO.N,Net-(D3-A)*%
X187460000Y-50750000D02*
X187700000Y-50990000D01*
X187460000Y-49750000D02*
X187460000Y-50750000D01*
X187700000Y-58375000D02*
X187750000Y-58425000D01*
X187700000Y-50990000D02*
X187700000Y-58375000D01*
%TO.N,Net-(J1-CD{slash}DAT3)*%
X115000000Y-81500000D02*
X115000000Y-80900000D01*
X112200000Y-81100000D02*
X111000000Y-81100000D01*
X119425000Y-75575000D02*
X119425000Y-74450000D01*
X115000000Y-80000000D02*
X119425000Y-75575000D01*
X115000000Y-81500000D02*
X112600000Y-81500000D01*
X115000000Y-80900000D02*
X115000000Y-80000000D01*
X112600000Y-81500000D02*
X112200000Y-81100000D01*
D42*
%TO.N,Net-(J1-CLK)*%
X126825000Y-78675000D02*
X129425000Y-76075000D01*
X129425000Y-76075000D02*
X129425000Y-74450000D01*
D45*
%TO.N,/+3.3V*%
X112750000Y-82750000D02*
X114227555Y-82750000D01*
X126925000Y-76075000D02*
X125800000Y-77200000D01*
X119750000Y-79812500D02*
X119750000Y-80675000D01*
X118575000Y-80675000D02*
X116500000Y-82750000D01*
X112750000Y-82750000D02*
X111000000Y-82750000D01*
X122362500Y-77200000D02*
X119750000Y-79812500D01*
X126925000Y-74450000D02*
X126925000Y-76075000D01*
X114250000Y-82772445D02*
X114250000Y-83750000D01*
X116500000Y-82750000D02*
X112750000Y-82750000D01*
X119750000Y-80675000D02*
X118575000Y-80675000D01*
X114227555Y-82750000D02*
X114250000Y-82772445D01*
X125800000Y-77200000D02*
X122362500Y-77200000D01*
D42*
%TO.N,Net-(J1-DAT0)*%
X119750000Y-82325000D02*
X119750000Y-82500000D01*
D45*
X129000000Y-82000000D02*
X123500000Y-82000000D01*
X134350000Y-76650000D02*
X129000000Y-82000000D01*
X122675000Y-82325000D02*
X119750000Y-82325000D01*
X123000000Y-82000000D02*
X122675000Y-82325000D01*
X123500000Y-82000000D02*
X123000000Y-82000000D01*
X134350000Y-74450000D02*
X134350000Y-76650000D01*
D42*
X119750000Y-82500000D02*
X119864984Y-82385016D01*
%TO.N,Net-(J4-D1-)*%
X197000000Y-115725000D02*
X197000000Y-114500000D01*
X198750000Y-112750000D02*
X198750000Y-112150000D01*
X197000000Y-114500000D02*
X198750000Y-112750000D01*
%TO.N,Net-(J4-CK-)*%
X194000000Y-114000000D02*
X192750000Y-112750000D01*
X192750000Y-112750000D02*
X192750000Y-112150000D01*
X194000000Y-115725000D02*
X194000000Y-114000000D01*
%TO.N,Net-(J4-D2+)*%
X203285280Y-113147269D02*
X203250000Y-113111989D01*
X199500000Y-115725000D02*
X199500000Y-114353818D01*
X202662828Y-113769721D02*
X203285280Y-113147269D01*
X199500000Y-114353818D02*
X200084097Y-113769721D01*
X200084097Y-113769721D02*
X202662828Y-113769721D01*
X203250000Y-113111989D02*
X203250000Y-109150000D01*
%TO.N,Net-(J4-D2-)*%
X198500000Y-114500000D02*
X200850000Y-112150000D01*
X198500000Y-115725000D02*
X198500000Y-114500000D01*
X200850000Y-112150000D02*
X201750000Y-112150000D01*
%TO.N,Net-(J4-D0+)*%
X197268243Y-112643379D02*
X197250000Y-112625136D01*
X196500000Y-115725000D02*
X196500000Y-113411622D01*
X197250000Y-112625136D02*
X197250000Y-109150000D01*
X196500000Y-113411622D02*
X197268243Y-112643379D01*
D45*
%TO.N,Net-(J4-D1+)*%
X198000000Y-114193946D02*
X200261941Y-111932005D01*
X198000000Y-115725000D02*
X198000000Y-114193946D01*
X200250000Y-111920064D02*
X200250000Y-109150000D01*
X200261941Y-111932005D02*
X200250000Y-111920064D01*
X198025000Y-115725000D02*
X198000000Y-115725000D01*
D42*
%TO.N,Net-(J4-D0-)*%
X195791037Y-112191037D02*
X195750000Y-112150000D01*
X195791037Y-113751517D02*
X195791037Y-112191037D01*
X195500000Y-114042554D02*
X195791037Y-113751517D01*
X195500000Y-115725000D02*
X195500000Y-114042554D01*
%TO.N,Net-(J4-HPD)*%
X190500000Y-114000000D02*
X188696246Y-112196246D01*
X188696246Y-112196246D02*
X187189824Y-112196246D01*
X190500000Y-115725000D02*
X190500000Y-114000000D01*
%TO.N,Net-(J4-CK+)*%
X195000000Y-115725000D02*
X195000000Y-112627820D01*
X194250000Y-111877820D02*
X194250000Y-109150000D01*
X195000000Y-112627820D02*
X194250000Y-111877820D01*
D45*
%TO.N,Net-(J6-PadT)*%
X214500000Y-107825000D02*
X214500000Y-108061693D01*
X215500000Y-109061693D02*
X215500000Y-113150000D01*
X214500000Y-108061693D02*
X215500000Y-109061693D01*
D42*
%TO.N,Net-(U1-GPIO15)*%
X192750000Y-110500000D02*
X192750000Y-105750000D01*
X159000000Y-110500000D02*
X159000000Y-112025000D01*
X191677843Y-104677843D02*
X164822157Y-104677843D01*
X192750000Y-105750000D02*
X191677843Y-104677843D01*
X159000000Y-112025000D02*
X158910000Y-112115000D01*
X164822157Y-104677843D02*
X159000000Y-110500000D01*
%TO.N,Net-(U1-GPIO14)*%
X194250000Y-107500000D02*
X194250000Y-105750000D01*
X194250000Y-105750000D02*
X192500000Y-104000000D01*
X192500000Y-104000000D02*
X162000000Y-104000000D01*
X162000000Y-104000000D02*
X156370000Y-109630000D01*
X156370000Y-109630000D02*
X156370000Y-112115000D01*
%TO.N,Net-(U1-GPIO13)*%
X151500000Y-110500000D02*
X151500000Y-111905000D01*
X195750000Y-105250000D02*
X193784736Y-103284736D01*
X193784736Y-103284736D02*
X158715264Y-103284736D01*
X151500000Y-111905000D02*
X151290000Y-112115000D01*
X195750000Y-110500000D02*
X195750000Y-105250000D01*
X158715264Y-103284736D02*
X151500000Y-110500000D01*
%TO.N,Net-(U1-GPIO12)*%
X156500000Y-102500000D02*
X148750000Y-110250000D01*
X197250000Y-107500000D02*
X197250000Y-105250000D01*
X197250000Y-105250000D02*
X194500000Y-102500000D01*
X148750000Y-110250000D02*
X148750000Y-112115000D01*
X194500000Y-102500000D02*
X156500000Y-102500000D01*
%TO.N,Net-(U1-GPIO16)*%
X162500000Y-99500000D02*
X158910000Y-95910000D01*
X203250000Y-105250000D02*
X197500000Y-99500000D01*
X158910000Y-95910000D02*
X158910000Y-94335000D01*
X197500000Y-99500000D02*
X162500000Y-99500000D01*
X203250000Y-107500000D02*
X203250000Y-105250000D01*
%TO.N,Net-(U1-GPIO17)*%
X201750000Y-110500000D02*
X201750000Y-105250000D01*
X160820678Y-100320678D02*
X156370000Y-95870000D01*
X201750000Y-105250000D02*
X196820678Y-100320678D01*
X156370000Y-95870000D02*
X156370000Y-94335000D01*
X196820678Y-100320678D02*
X160820678Y-100320678D01*
%TO.N,Net-(U1-GPIO28_ADC2)*%
X147500000Y-92500000D02*
X147500000Y-95500000D01*
X147500000Y-95500000D02*
X146250000Y-96750000D01*
X166750000Y-94000000D02*
X164250000Y-91500000D01*
X164250000Y-91500000D02*
X148500000Y-91500000D01*
X146250000Y-96750000D02*
X126500000Y-96750000D01*
X167425000Y-94000000D02*
X166750000Y-94000000D01*
X125890000Y-96140000D02*
X125890000Y-94335000D01*
X126500000Y-96750000D02*
X125890000Y-96140000D01*
X148500000Y-91500000D02*
X147500000Y-92500000D01*
D45*
%TO.N,Net-(U1-GPIO27_ADC1)*%
X172000000Y-67500000D02*
X172000000Y-57000000D01*
X144000000Y-80000000D02*
X167250000Y-80000000D01*
D42*
X172330000Y-67670000D02*
X173465000Y-67670000D01*
D45*
X167250000Y-80000000D02*
X171984440Y-75265560D01*
X130970000Y-94335000D02*
X130970000Y-93030000D01*
X130970000Y-93030000D02*
X144000000Y-80000000D01*
X171984440Y-67765560D02*
X172000000Y-67750000D01*
X171984440Y-75265560D02*
X171984440Y-67765560D01*
D42*
X172250000Y-67750000D02*
X172330000Y-67670000D01*
D45*
X172250000Y-67750000D02*
X172000000Y-67500000D01*
D42*
%TO.N,Net-(U1-GPIO20)*%
X156000000Y-82000000D02*
X146294538Y-91705462D01*
X146294538Y-94250462D02*
X146210000Y-94335000D01*
X168500000Y-82000000D02*
X156000000Y-82000000D01*
X187750000Y-62750000D02*
X168500000Y-82000000D01*
X146294538Y-91705462D02*
X146294538Y-94250462D01*
X187750000Y-60075000D02*
X187750000Y-62750000D01*
%TO.N,Net-(U1-GPIO21)*%
X143670000Y-94335000D02*
X143750000Y-94255000D01*
X168000000Y-81000000D02*
X181750000Y-67250000D01*
X143750000Y-94255000D02*
X143750000Y-93250000D01*
X156000000Y-81000000D02*
X168000000Y-81000000D01*
X181750000Y-67250000D02*
X181750000Y-61325000D01*
X143750000Y-93250000D02*
X156000000Y-81000000D01*
D45*
%TO.N,Net-(U3-+)*%
X199250000Y-92500000D02*
X200635000Y-93885000D01*
X198325000Y-92500000D02*
X199250000Y-92500000D01*
X200635000Y-93885000D02*
X201750000Y-93885000D01*
%TO.N,Net-(J6-PadR)*%
X212750000Y-111750000D02*
X211850000Y-112650000D01*
X211850000Y-112650000D02*
X211850000Y-116000000D01*
X212750000Y-107825000D02*
X212750000Y-111750000D01*
D42*
%TO.N,Net-(U1-GPIO10)*%
X218600000Y-53800000D02*
X217499000Y-52699000D01*
X217499000Y-52699000D02*
X201701000Y-52699000D01*
X201701000Y-52699000D02*
X200600000Y-53800000D01*
%TO.N,Net-(U1-GPIO0)*%
X110650000Y-112115000D02*
X110500000Y-112265000D01*
D45*
X222925000Y-58500000D02*
X222925000Y-55625000D01*
X222925000Y-55625000D02*
X218600000Y-51300000D01*
D42*
X110500000Y-112265000D02*
X110500000Y-115000000D01*
%TO.N,Net-(U1-GPIO11)*%
X207400000Y-51300000D02*
X208501000Y-50199000D01*
X224299000Y-50199000D02*
X225400000Y-51300000D01*
X208501000Y-50199000D02*
X224299000Y-50199000D01*
%TO.N,Net-(U1-GPIO1)*%
X148349110Y-76651000D02*
X165869000Y-59131110D01*
X198000000Y-56500000D02*
X199000000Y-57500000D01*
X165869000Y-56564661D02*
X175934661Y-46499000D01*
X199000000Y-57500000D02*
X203175000Y-57500000D01*
X135500000Y-84000000D02*
X142849000Y-76651000D01*
X142849000Y-76651000D02*
X148349110Y-76651000D01*
X175934661Y-46499000D02*
X192902001Y-46499000D01*
X197703001Y-51300000D02*
X200600000Y-51300000D01*
X124600000Y-93800000D02*
X134400000Y-84000000D01*
X134400000Y-84000000D02*
X135500000Y-84000000D01*
X200600000Y-51300000D02*
X198000000Y-53900000D01*
X124600000Y-100705000D02*
X124600000Y-93800000D01*
X113190000Y-112115000D02*
X124600000Y-100705000D01*
X165869000Y-59131110D02*
X165869000Y-56564661D01*
X198000000Y-53900000D02*
X198000000Y-56500000D01*
X192902001Y-46499000D02*
X197703001Y-51300000D01*
%TO.N,Net-(U1-GPIO19)*%
X154250000Y-101750000D02*
X148750000Y-96250000D01*
X198750000Y-105250000D02*
X195250000Y-101750000D01*
X195250000Y-101750000D02*
X154250000Y-101750000D01*
X198750000Y-110500000D02*
X198750000Y-105250000D01*
X148750000Y-96250000D02*
X148750000Y-94335000D01*
%TO.N,Net-(U1-GPIO18)*%
X200250000Y-105250000D02*
X196000000Y-101000000D01*
X156052000Y-101052000D02*
X151290000Y-96290000D01*
X196000000Y-101000000D02*
X195948000Y-101052000D01*
X200250000Y-107500000D02*
X200250000Y-105250000D01*
X195948000Y-101052000D02*
X156052000Y-101052000D01*
X151290000Y-96290000D02*
X151290000Y-94335000D01*
D45*
%TO.N,Net-(R19-Pad1)*%
X196675000Y-92500000D02*
X194510000Y-92500000D01*
D42*
%TO.N,Net-(C13-Pad2)*%
X188475000Y-90325000D02*
X188475000Y-88300000D01*
D45*
X190710000Y-89960000D02*
X191970000Y-89960000D01*
D42*
X186200000Y-90525000D02*
X188275000Y-90525000D01*
X188475000Y-88300000D02*
X189050000Y-88300000D01*
X189050000Y-88300000D02*
X190710000Y-89960000D01*
X188275000Y-90525000D02*
X188475000Y-90325000D01*
D45*
%TO.N,Net-(C7-Pad2)*%
X215400000Y-95425000D02*
X215400000Y-96200000D01*
X215400000Y-96200000D02*
X214100000Y-97500000D01*
X214100000Y-97500000D02*
X214025000Y-97500000D01*
%TD*%
M02*
