M48
; DRILL file {KiCad 9.0.7} date 2026-02-05T23:50:33+0100
; FORMAT={-:-/ absolute / metric / decimal}
; #@! TF.CreationDate,2026-02-05T23:50:33+01:00
; #@! TF.GenerationSoftware,Kicad,Pcbnew,9.0.7
; #@! TF.FileFunction,Plated,1,4,PTH
FMAT,2
METRIC
; #@! TA.AperFunction,Plated,PTH,ViaDrill
T1C0.400
; #@! TA.AperFunction,Plated,PTH,ViaDrill
T2C0.600
; #@! TA.AperFunction,Plated,PTH,ComponentDrill
T3C0.800
; #@! TA.AperFunction,Plated,PTH,ComponentDrill
T4C0.900
; #@! TA.AperFunction,Plated,PTH,ComponentDrill
T5C1.000
; #@! TA.AperFunction,Plated,PTH,ComponentDrill
T6C1.100
; #@! TA.AperFunction,Plated,PTH,ComponentDrill
T7C1.300
; #@! TA.AperFunction,Plated,PTH,ComponentDrill
T8C2.300
%
G90
G05
T1
X110.5Y-115.0
X114.25Y-83.75
X115.0Y-81.5
X117.5Y-79.6
X123.5Y-82.0
X126.825Y-78.675
X131.91Y-76.5
X176.5Y-95.5
X177.0Y-89.0
X177.25Y-65.25
X183.975Y-89.475
X187.71Y-95.04
X188.672Y-110.561
X190.5Y-111.0
X209.385Y-93.885
X215.4Y-92.7
X221.0Y-116.5
T2
X224.275Y-96.0
X227.461Y-95.969
T3
X152.92Y-57.0
X155.46Y-57.0
X158.0Y-57.0
X166.92Y-57.0
X169.46Y-57.0
X172.0Y-57.0
X191.97Y-89.96
X191.97Y-95.04
X194.51Y-92.5
T4
X152.92Y-51.92
X158.0Y-51.92
X166.92Y-51.92
X172.0Y-51.92
X181.71Y-49.75
X184.25Y-49.75
X187.46Y-49.75
X190.0Y-49.75
T5
X110.65Y-94.335
X110.65Y-112.115
X113.19Y-94.335
X113.19Y-112.115
X115.73Y-94.335
X115.73Y-112.115
X118.27Y-94.335
X118.27Y-112.115
X120.81Y-94.335
X120.81Y-112.115
X123.35Y-94.335
X123.35Y-112.115
X125.89Y-94.335
X125.89Y-112.115
X128.43Y-94.335
X128.43Y-112.115
X130.97Y-94.335
X130.97Y-112.115
X133.51Y-94.335
X133.51Y-112.115
X136.05Y-94.335
X136.05Y-112.115
X138.59Y-94.335
X138.59Y-112.115
X141.13Y-94.335
X141.13Y-112.115
X143.67Y-94.335
X143.67Y-112.115
X146.21Y-94.335
X146.21Y-112.115
X148.75Y-94.335
X148.75Y-112.115
X151.29Y-94.335
X151.29Y-112.115
X153.83Y-94.335
X153.83Y-112.115
X156.37Y-94.335
X156.37Y-112.115
X158.91Y-94.335
X158.91Y-112.115
T6
X200.6Y-51.3
X200.6Y-53.8
X202.7Y-51.3
X207.4Y-51.3
X207.4Y-53.8
X218.6Y-51.3
X218.6Y-53.8
X220.7Y-51.3
X225.4Y-51.3
X225.4Y-53.8
T7
X186.9Y-121.625
X187.5Y-116.725
X202.0Y-116.725
X202.6Y-121.625
T8
X197.25Y-48.3
X204.0Y-47.5
X210.75Y-48.3
X215.25Y-48.3
X222.0Y-47.5
X228.75Y-48.3
T5
X226.775Y-115.5G85X228.775Y-115.5
G05
X226.775Y-121.5G85X228.775Y-121.5
G05
X232.475Y-119.5G85X232.475Y-117.5
G05
M30
