%TF.GenerationSoftware,KiCad,Pcbnew,9.0.7*%
%TF.CreationDate,2026-02-05T23:50:31+01:00*%
%TF.ProjectId,fwkes,66776b65-732e-46b6-9963-61645f706362,rev?*%
%TF.SameCoordinates,Original*%
%TF.FileFunction,Copper,L4,Bot*%
%TF.FilePolarity,Positive*%
%FSLAX46Y46*%
G04 Gerber Fmt 4.6, Leading zero omitted, Abs format (unit mm)*
G04 Created by KiCad (PCBNEW 9.0.7) date 2026-02-05 23:50:31*
%MOMM*%
%LPD*%
G01*
G04 APERTURE LIST*
G04 Aperture macros list*
%AMRoundRect*
0 Rectangle with rounded corners*
0 $1 Rounding radius*
0 $2 $3 $4 $5 $6 $7 $8 $9 X,Y pos of 4 corners*
0 Add a 4 corners polygon primitive as box body*
4,1,4,$2,$3,$4,$5,$6,$7,$8,$9,$2,$3,0*
0 Add four circle primitives for the rounded corners*
1,1,$1+$1,$2,$3*
1,1,$1+$1,$4,$5*
1,1,$1+$1,$6,$7*
1,1,$1+$1,$8,$9*
0 Add four rect primitives between the rounded corners*
20,1,$1+$1,$2,$3,$4,$5,0*
20,1,$1+$1,$4,$5,$6,$7,0*
20,1,$1+$1,$6,$7,$8,$9,0*
20,1,$1+$1,$8,$9,$2,$3,0*%
G04 Aperture macros list end*
%TA.AperFunction,ComponentPad*%
%ADD10C,3.000000*%
%TD*%
%TA.AperFunction,ComponentPad*%
%ADD11C,1.600000*%
%TD*%
%TA.AperFunction,ComponentPad*%
%ADD12R,1.800000X1.800000*%
%TD*%
%TA.AperFunction,ComponentPad*%
%ADD13C,1.800000*%
%TD*%
%TA.AperFunction,ComponentPad*%
%ADD14R,1.700000X1.700000*%
%TD*%
%TA.AperFunction,ComponentPad*%
%ADD15C,1.700000*%
%TD*%
%TA.AperFunction,ComponentPad*%
%ADD16C,1.440000*%
%TD*%
%TA.AperFunction,ComponentPad*%
%ADD17R,3.500000X3.500000*%
%TD*%
%TA.AperFunction,ComponentPad*%
%ADD18RoundRect,0.750000X1.000000X-0.750000X1.000000X0.750000X-1.000000X0.750000X-1.000000X-0.750000X0*%
%TD*%
%TA.AperFunction,ComponentPad*%
%ADD19RoundRect,0.875000X0.875000X-0.875000X0.875000X0.875000X-0.875000X0.875000X-0.875000X-0.875000X0*%
%TD*%
%TA.AperFunction,ComponentPad*%
%ADD20C,1.500000*%
%TD*%
%TA.AperFunction,ComponentPad*%
%ADD21R,1.500000X1.500000*%
%TD*%
%TA.AperFunction,ViaPad*%
%ADD22C,0.700000*%
%TD*%
%TA.AperFunction,ViaPad*%
%ADD23C,1.000000*%
%TD*%
%TA.AperFunction,Conductor*%
%ADD24C,0.200000*%
%TD*%
%TA.AperFunction,Conductor*%
%ADD25C,0.250000*%
%TD*%
G04 APERTURE END LIST*
D10*
%TO.P,J2,*%
%TO.N,*%
X215250000Y-48300000D03*
X222000000Y-47500000D03*
X228750000Y-48300000D03*
D11*
%TO.P,J2,1*%
%TO.N,GND*%
X220700000Y-51300000D03*
%TO.P,J2,2*%
%TO.N,Net-(U1-GPIO0)*%
X218600000Y-51300000D03*
%TO.P,J2,3*%
%TO.N,Net-(U1-GPIO11)*%
X225400000Y-51300000D03*
%TO.P,J2,4*%
%TO.N,Net-(U1-GPIO10)*%
X218600000Y-53800000D03*
%TO.P,J2,5*%
%TO.N,VCC*%
X225400000Y-53800000D03*
%TD*%
D10*
%TO.P,J3,*%
%TO.N,*%
X197250000Y-48300000D03*
X204000000Y-47500000D03*
X210750000Y-48300000D03*
D11*
%TO.P,J3,1*%
%TO.N,GND*%
X202700000Y-51300000D03*
%TO.P,J3,2*%
%TO.N,Net-(U1-GPIO1)*%
X200600000Y-51300000D03*
%TO.P,J3,3*%
%TO.N,Net-(U1-GPIO11)*%
X207400000Y-51300000D03*
%TO.P,J3,4*%
%TO.N,Net-(U1-GPIO10)*%
X200600000Y-53800000D03*
%TO.P,J3,5*%
%TO.N,VCC*%
X207400000Y-53800000D03*
%TD*%
D12*
%TO.P,D2,1,K*%
%TO.N,GND*%
X184250000Y-49750000D03*
D13*
%TO.P,D2,2,A*%
%TO.N,Net-(D2-A)*%
X181710000Y-49750000D03*
%TD*%
D12*
%TO.P,D3,1,K*%
%TO.N,GND*%
X190000000Y-49750000D03*
D13*
%TO.P,D3,2,A*%
%TO.N,Net-(D3-A)*%
X187460000Y-49750000D03*
%TD*%
D14*
%TO.P,U1,1,GPIO0*%
%TO.N,Net-(U1-GPIO0)*%
X110650000Y-112115000D03*
D15*
%TO.P,U1,2,GPIO1*%
%TO.N,Net-(U1-GPIO1)*%
X113190000Y-112115000D03*
%TO.P,U1,3,GND*%
%TO.N,unconnected-(U1-GND-Pad3)*%
X115730000Y-112115000D03*
%TO.P,U1,4,GPIO2*%
%TO.N,Net-(J1-CLK)*%
X118270000Y-112115000D03*
%TO.P,U1,5,GPIO3*%
%TO.N,Net-(J1-CMD)*%
X120810000Y-112115000D03*
%TO.P,U1,6,GPIO4*%
%TO.N,Net-(J1-DAT0)*%
X123350000Y-112115000D03*
%TO.P,U1,7,GPIO5*%
%TO.N,Net-(J1-CD{slash}DAT3)*%
X125890000Y-112115000D03*
%TO.P,U1,8,GND*%
%TO.N,unconnected-(U1-GND-Pad8)*%
X128430000Y-112115000D03*
%TO.P,U1,9,GPIO6*%
%TO.N,unconnected-(U1-GPIO6-Pad9)*%
X130970000Y-112115000D03*
%TO.P,U1,10,GPIO7*%
%TO.N,unconnected-(U1-GPIO7-Pad10)*%
X133510000Y-112115000D03*
%TO.P,U1,11,GPIO8*%
%TO.N,unconnected-(U1-GPIO8-Pad11)*%
X136050000Y-112115000D03*
%TO.P,U1,12,GPIO9*%
%TO.N,unconnected-(U1-GPIO9-Pad12)*%
X138590000Y-112115000D03*
%TO.P,U1,13,GND*%
%TO.N,unconnected-(U1-GND-Pad13)*%
X141130000Y-112115000D03*
%TO.P,U1,14,GPIO10*%
%TO.N,Net-(U1-GPIO10)*%
X143670000Y-112115000D03*
%TO.P,U1,15,GPIO11*%
%TO.N,Net-(U1-GPIO11)*%
X146210000Y-112115000D03*
%TO.P,U1,16,GPIO12*%
%TO.N,Net-(U1-GPIO12)*%
X148750000Y-112115000D03*
%TO.P,U1,17,GPIO13*%
%TO.N,Net-(U1-GPIO13)*%
X151290000Y-112115000D03*
%TO.P,U1,18,GND*%
%TO.N,unconnected-(U1-GND-Pad18)*%
X153830000Y-112115000D03*
%TO.P,U1,19,GPIO14*%
%TO.N,Net-(U1-GPIO14)*%
X156370000Y-112115000D03*
%TO.P,U1,20,GPIO15*%
%TO.N,Net-(U1-GPIO15)*%
X158910000Y-112115000D03*
%TO.P,U1,21,GPIO16*%
%TO.N,Net-(U1-GPIO16)*%
X158910000Y-94335000D03*
%TO.P,U1,22,GPIO17*%
%TO.N,Net-(U1-GPIO17)*%
X156370000Y-94335000D03*
%TO.P,U1,23,GND*%
%TO.N,unconnected-(U1-GND-Pad23)*%
X153830000Y-94335000D03*
%TO.P,U1,24,GPIO18*%
%TO.N,Net-(U1-GPIO18)*%
X151290000Y-94335000D03*
%TO.P,U1,25,GPIO19*%
%TO.N,Net-(U1-GPIO19)*%
X148750000Y-94335000D03*
%TO.P,U1,26,GPIO20*%
%TO.N,Net-(U1-GPIO20)*%
X146210000Y-94335000D03*
%TO.P,U1,27,GPIO21*%
%TO.N,Net-(U1-GPIO21)*%
X143670000Y-94335000D03*
%TO.P,U1,28,GND*%
%TO.N,unconnected-(U1-GND-Pad28)*%
X141130000Y-94335000D03*
%TO.P,U1,29,GPIO22*%
%TO.N,unconnected-(U1-GPIO22-Pad29)*%
X138590000Y-94335000D03*
%TO.P,U1,30,RUN*%
%TO.N,unconnected-(U1-RUN-Pad30)*%
X136050000Y-94335000D03*
%TO.P,U1,31,GPIO26_ADC0*%
%TO.N,unconnected-(U1-GPIO26_ADC0-Pad31)*%
X133510000Y-94335000D03*
%TO.P,U1,32,GPIO27_ADC1*%
%TO.N,Net-(U1-GPIO27_ADC1)*%
X130970000Y-94335000D03*
%TO.P,U1,33,AGND*%
%TO.N,unconnected-(U1-AGND-Pad33)*%
X128430000Y-94335000D03*
%TO.P,U1,34,GPIO28_ADC2*%
%TO.N,Net-(U1-GPIO28_ADC2)*%
X125890000Y-94335000D03*
%TO.P,U1,35,ADC_VREF*%
%TO.N,unconnected-(U1-ADC_VREF-Pad35)*%
X123350000Y-94335000D03*
%TO.P,U1,36,3V3*%
%TO.N,/+3.3V*%
X120810000Y-94335000D03*
%TO.P,U1,37,3V3_EN*%
%TO.N,unconnected-(U1-3V3_EN-Pad37)*%
X118270000Y-94335000D03*
%TO.P,U1,38,GND*%
%TO.N,GND*%
X115730000Y-94335000D03*
%TO.P,U1,39,VSYS*%
%TO.N,Net-(D1-K)*%
X113190000Y-94335000D03*
D14*
%TO.P,U1,40,VBUS*%
%TO.N,unconnected-(U1-VBUS-Pad40)*%
X110650000Y-94335000D03*
%TD*%
D16*
%TO.P,RV1,1,1*%
%TO.N,Net-(C13-Pad2)*%
X191970000Y-89960000D03*
%TO.P,RV1,2,2*%
%TO.N,Net-(R19-Pad1)*%
X194510000Y-92500000D03*
%TO.P,RV1,3,3*%
%TO.N,GND*%
X191970000Y-95040000D03*
%TD*%
D17*
%TO.P,J5,1*%
%TO.N,VCC*%
X227775000Y-115500000D03*
D18*
%TO.P,J5,2*%
%TO.N,GND*%
X227775000Y-121500000D03*
D19*
%TO.P,J5,3*%
%TO.N,N/C*%
X232475000Y-118500000D03*
%TD*%
D13*
%TO.P,J4,SH,SH*%
%TO.N,GND*%
X186900000Y-121625000D03*
X187500000Y-116725000D03*
X202000000Y-116725000D03*
X202600000Y-121625000D03*
%TD*%
D20*
%TO.P,SW1,*%
%TO.N,*%
X158000000Y-51920000D03*
X152920000Y-51920000D03*
D21*
%TO.P,SW1,1,A*%
%TO.N,Net-(D1-A)*%
X158000000Y-57000000D03*
D20*
%TO.P,SW1,2,B*%
%TO.N,VCC*%
X155460000Y-57000000D03*
%TO.P,SW1,3*%
%TO.N,N/C*%
X152920000Y-57000000D03*
%TD*%
%TO.P,SW2,*%
%TO.N,*%
X172000000Y-51920000D03*
X166920000Y-51920000D03*
D21*
%TO.P,SW2,1,1*%
%TO.N,Net-(U1-GPIO27_ADC1)*%
X172000000Y-57000000D03*
D20*
%TO.P,SW2,2,2*%
%TO.N,GND*%
X169460000Y-57000000D03*
%TO.P,SW2,3*%
%TO.N,N/C*%
X166920000Y-57000000D03*
%TD*%
D22*
%TO.N,GND*%
X187710000Y-95040000D03*
X177000000Y-89000000D03*
X215400000Y-92700000D03*
X221000000Y-116500000D03*
X176500000Y-95500000D03*
X190500000Y-111000000D03*
X131910144Y-76500000D03*
D23*
X224275000Y-96000000D03*
D22*
%TO.N,VCC*%
X183975000Y-89475000D03*
D23*
X227461075Y-95969477D03*
D22*
X177250000Y-65250000D03*
X209385000Y-93885000D03*
X188671853Y-110561070D03*
%TO.N,Net-(J1-CD{slash}DAT3)*%
X115000000Y-81500000D03*
%TO.N,Net-(J1-CLK)*%
X126825000Y-78675000D03*
%TO.N,Net-(J1-CMD)*%
X117500000Y-79600000D03*
%TO.N,/+3.3V*%
X114250000Y-83750000D03*
%TO.N,Net-(J1-DAT0)*%
X123500000Y-82000000D03*
%TO.N,Net-(U1-GPIO0)*%
X110500000Y-115000000D03*
%TD*%
D24*
%TO.N,Net-(J1-CMD)*%
X122000000Y-86250000D02*
X122000000Y-110925000D01*
X117500000Y-79600000D02*
X117250000Y-79850000D01*
X117250000Y-79850000D02*
X117250000Y-81500000D01*
X117250000Y-81500000D02*
X122000000Y-86250000D01*
X122000000Y-110925000D02*
X120810000Y-112115000D01*
D25*
%TO.N,Net-(J1-CD{slash}DAT3)*%
X119634000Y-112602116D02*
X120322884Y-113291000D01*
X120322884Y-113291000D02*
X124714000Y-113291000D01*
X113250000Y-92543884D02*
X114554000Y-93847884D01*
X114554000Y-106547884D02*
X119634000Y-111627884D01*
X114554000Y-93847884D02*
X114554000Y-106547884D01*
X124714000Y-113291000D02*
X125890000Y-112115000D01*
X119634000Y-111627884D02*
X119634000Y-112602116D01*
X115000000Y-81500000D02*
X113500000Y-81500000D01*
X113250000Y-81750000D02*
X113250000Y-92543884D01*
X113500000Y-81500000D02*
X113250000Y-81750000D01*
D24*
%TO.N,Net-(J1-CLK)*%
X122175000Y-78675000D02*
X122149000Y-78649000D01*
X111899000Y-81501057D02*
X111899000Y-105744000D01*
X122149000Y-78649000D02*
X114751057Y-78649000D01*
X114751057Y-78649000D02*
X111899000Y-81501057D01*
X126825000Y-78675000D02*
X122175000Y-78675000D01*
X111899000Y-105744000D02*
X118270000Y-112115000D01*
D25*
%TO.N,/+3.3V*%
X114250000Y-83750000D02*
X114250000Y-87775000D01*
X114250000Y-87775000D02*
X120810000Y-94335000D01*
%TO.N,Net-(J1-DAT0)*%
X127066000Y-84066000D02*
X127066000Y-108399000D01*
X127066000Y-108399000D02*
X123350000Y-112115000D01*
X123500000Y-82000000D02*
X125000000Y-82000000D01*
X125000000Y-82000000D02*
X127066000Y-84066000D01*
D24*
%TO.N,Net-(U1-GPIO10)*%
X200600000Y-55185000D02*
X200600000Y-53800000D01*
X143670000Y-112115000D02*
X200600000Y-55185000D01*
%TO.N,Net-(U1-GPIO0)*%
X113000000Y-117500000D02*
X167500000Y-117500000D01*
X223000000Y-62000000D02*
X223000000Y-55700000D01*
X167500000Y-117500000D02*
X223000000Y-62000000D01*
X223000000Y-55700000D02*
X218600000Y-51300000D01*
X110500000Y-115000000D02*
X113000000Y-117500000D01*
D25*
%TO.N,Net-(U1-GPIO11)*%
X146210000Y-112115000D02*
X207025000Y-51300000D01*
X207025000Y-51300000D02*
X207400000Y-51300000D01*
%TD*%
M02*
