%TF.GenerationSoftware,KiCad,Pcbnew,9.0.7*%
%TF.CreationDate,2026-02-05T23:49:22+01:00*%
%TF.ProjectId,joypad,6a6f7970-6164-42e6-9b69-6361645f7063,rev?*%
%TF.SameCoordinates,Original*%
%TF.FileFunction,Legend,Top*%
%TF.FilePolarity,Positive*%
%FSLAX46Y46*%
G04 Gerber Fmt 4.6, Leading zero omitted, Abs format (unit mm)*
G04 Created by KiCad (PCBNEW 9.0.7) date 2026-02-05 23:49:22*
%MOMM*%
%LPD*%
G01*
G04 APERTURE LIST*
%ADD10C,0.100000*%
%ADD11C,1.800000*%
%ADD12C,0.500000*%
%ADD13C,0.150000*%
%ADD14C,0.120000*%
G04 APERTURE END LIST*
D10*
X60303884Y-87872419D02*
X60303884Y-86872419D01*
X60303884Y-86872419D02*
X60541979Y-86872419D01*
X60541979Y-86872419D02*
X60684836Y-86920038D01*
X60684836Y-86920038D02*
X60780074Y-87015276D01*
X60780074Y-87015276D02*
X60827693Y-87110514D01*
X60827693Y-87110514D02*
X60875312Y-87300990D01*
X60875312Y-87300990D02*
X60875312Y-87443847D01*
X60875312Y-87443847D02*
X60827693Y-87634323D01*
X60827693Y-87634323D02*
X60780074Y-87729561D01*
X60780074Y-87729561D02*
X60684836Y-87824800D01*
X60684836Y-87824800D02*
X60541979Y-87872419D01*
X60541979Y-87872419D02*
X60303884Y-87872419D01*
X61494360Y-86872419D02*
X61684836Y-86872419D01*
X61684836Y-86872419D02*
X61780074Y-86920038D01*
X61780074Y-86920038D02*
X61875312Y-87015276D01*
X61875312Y-87015276D02*
X61922931Y-87205752D01*
X61922931Y-87205752D02*
X61922931Y-87539085D01*
X61922931Y-87539085D02*
X61875312Y-87729561D01*
X61875312Y-87729561D02*
X61780074Y-87824800D01*
X61780074Y-87824800D02*
X61684836Y-87872419D01*
X61684836Y-87872419D02*
X61494360Y-87872419D01*
X61494360Y-87872419D02*
X61399122Y-87824800D01*
X61399122Y-87824800D02*
X61303884Y-87729561D01*
X61303884Y-87729561D02*
X61256265Y-87539085D01*
X61256265Y-87539085D02*
X61256265Y-87205752D01*
X61256265Y-87205752D02*
X61303884Y-87015276D01*
X61303884Y-87015276D02*
X61399122Y-86920038D01*
X61399122Y-86920038D02*
X61494360Y-86872419D01*
X62256265Y-86872419D02*
X62494360Y-87872419D01*
X62494360Y-87872419D02*
X62684836Y-87158133D01*
X62684836Y-87158133D02*
X62875312Y-87872419D01*
X62875312Y-87872419D02*
X63113408Y-86872419D01*
X63494360Y-87872419D02*
X63494360Y-86872419D01*
X63494360Y-86872419D02*
X64065788Y-87872419D01*
X64065788Y-87872419D02*
X64065788Y-86872419D01*
D11*
G36*
X145328489Y-28345505D02*
G01*
X146121484Y-28326821D01*
X146146214Y-28370785D01*
X146121484Y-28825259D01*
X146146214Y-29355572D01*
X146121484Y-29404481D01*
X144339342Y-29268879D01*
X142647801Y-29224780D01*
X142582387Y-29685654D01*
X142549433Y-30881662D01*
X142549433Y-31792260D01*
X143933790Y-31762435D01*
X145408173Y-31670261D01*
X145444993Y-31707081D01*
X145408173Y-32201673D01*
X145444993Y-32702309D01*
X145408173Y-32744624D01*
X144078332Y-32612780D01*
X142549433Y-32566022D01*
X142549433Y-33950329D01*
X142584813Y-35469876D01*
X142672531Y-36450765D01*
X142647801Y-36487585D01*
X141664113Y-36487585D01*
X140594146Y-36487585D01*
X140582056Y-36450765D01*
X140694344Y-35345891D01*
X140735929Y-33946482D01*
X140735929Y-30886608D01*
X140695334Y-29533188D01*
X140582056Y-28382325D01*
X140606786Y-28345505D01*
X141664113Y-28345505D01*
X145328489Y-28345505D01*
G37*
G36*
X155907257Y-34276210D02*
G01*
X157169764Y-31281813D01*
X157882132Y-29414076D01*
X158219199Y-28343857D01*
X158864916Y-28380676D01*
X159553497Y-28343857D01*
X155839663Y-36610683D01*
X154973028Y-36610683D01*
X153368353Y-32644607D01*
X151560894Y-36610683D01*
X150423333Y-36610683D01*
X147783352Y-30406328D01*
X146851282Y-28343857D01*
X148124031Y-28380676D01*
X149015396Y-28343857D01*
X149344574Y-29320950D01*
X150177686Y-31499902D01*
X151505390Y-34693316D01*
X152901238Y-31465280D01*
X152019462Y-29208151D01*
X151646624Y-28343857D01*
X152667681Y-28380676D01*
X153878881Y-28343857D01*
X153964610Y-28683476D01*
X154136618Y-29300617D01*
X154392158Y-30155711D01*
X154764200Y-31288326D01*
X155262090Y-32646256D01*
X155907257Y-34276210D01*
G37*
G36*
X161479658Y-30892103D02*
G01*
X161439889Y-29498575D01*
X161331830Y-28382325D01*
X161356559Y-28345505D01*
X162389157Y-28345505D01*
X163434394Y-28345505D01*
X163447034Y-28382325D01*
X163335038Y-29482378D01*
X163293161Y-30906941D01*
X163293161Y-32052196D01*
X163447824Y-32014059D01*
X163569583Y-31941188D01*
X164135615Y-31411425D01*
X164664279Y-30875617D01*
X165248447Y-30247486D01*
X165777110Y-29649579D01*
X166361278Y-28978033D01*
X166908077Y-28343857D01*
X167904405Y-28380676D01*
X168756180Y-28362006D01*
X169048011Y-28326821D01*
X167640073Y-29570444D01*
X166336549Y-30783843D01*
X165552371Y-31556888D01*
X165094574Y-32052196D01*
X165094574Y-32076926D01*
X169170560Y-36523855D01*
X167891765Y-36505170D01*
X166730024Y-36541990D01*
X165567733Y-35080197D01*
X164288939Y-33459035D01*
X163532763Y-32580310D01*
X163434815Y-32523817D01*
X163293161Y-32494581D01*
X163293161Y-33973410D01*
X163333754Y-35322009D01*
X163447034Y-36468900D01*
X163416259Y-36505170D01*
X162389157Y-36505170D01*
X161344469Y-36505170D01*
X161331830Y-36468351D01*
X161439052Y-35393057D01*
X161479658Y-33958572D01*
X161479658Y-30892103D01*
G37*
G36*
X173290509Y-33959672D02*
G01*
X173323133Y-35100463D01*
X173388878Y-35555554D01*
X175039715Y-35489059D01*
X176463040Y-35350024D01*
X176991704Y-35283529D01*
X177016434Y-35337934D01*
X176991704Y-36029813D01*
X177016434Y-36487035D01*
X176991704Y-36523855D01*
X176235528Y-36505170D01*
X172405190Y-36505170D01*
X171335772Y-36505170D01*
X171323133Y-36468351D01*
X171435419Y-35361143D01*
X171477006Y-33958572D01*
X171477006Y-30892103D01*
X171436406Y-29535514D01*
X171323133Y-28382325D01*
X171347862Y-28345505D01*
X172405190Y-28345505D01*
X176106385Y-28345505D01*
X176862561Y-28326821D01*
X176887290Y-28370785D01*
X176862561Y-28825259D01*
X176887290Y-29355572D01*
X176862561Y-29404481D01*
X175080418Y-29268879D01*
X173388878Y-29224780D01*
X173323464Y-29685654D01*
X173290509Y-30881662D01*
X173290509Y-31792260D01*
X174669494Y-31762472D01*
X176143204Y-31670261D01*
X176186618Y-31707081D01*
X176143204Y-32198375D01*
X176186618Y-32695715D01*
X176143204Y-32737480D01*
X174809580Y-32610774D01*
X173290509Y-32566022D01*
X173290509Y-33959672D01*
G37*
G36*
X180801160Y-35942435D02*
G01*
X181236654Y-35887113D01*
X181550497Y-35737112D01*
X181774697Y-35497519D01*
X181920501Y-35148284D01*
X181975540Y-34648803D01*
X181943321Y-34414137D01*
X181842783Y-34175170D01*
X181661749Y-33925050D01*
X181318562Y-33607063D01*
X180874799Y-33330441D01*
X179950476Y-32831624D01*
X179442681Y-32514914D01*
X178958882Y-32122371D01*
X178600226Y-31736207D01*
X178389710Y-31381225D01*
X178255337Y-30937370D01*
X178206751Y-30381575D01*
X178250297Y-29965285D01*
X178378589Y-29585121D01*
X178594181Y-29231924D01*
X178876107Y-28923245D01*
X179208061Y-28668528D01*
X179596004Y-28465307D01*
X180231001Y-28271130D01*
X180930303Y-28204822D01*
X181781550Y-28264173D01*
X182498159Y-28406505D01*
X183029570Y-28577414D01*
X183383478Y-28726341D01*
X183493937Y-28781845D01*
X183524712Y-28819214D01*
X183402539Y-29370456D01*
X183273019Y-30329368D01*
X182891634Y-30329368D01*
X182689048Y-29995704D01*
X182442655Y-29665516D01*
X182152853Y-29363096D01*
X181796938Y-29087393D01*
X181411017Y-28890974D01*
X181065491Y-28831304D01*
X180749735Y-28872441D01*
X180479878Y-28991900D01*
X180244469Y-29193456D01*
X180064869Y-29449968D01*
X179958237Y-29731606D01*
X179921885Y-30046901D01*
X179947002Y-30366192D01*
X180016957Y-30627772D01*
X180139622Y-30858592D01*
X180318658Y-31057517D01*
X180708836Y-31342732D01*
X181207274Y-31594424D01*
X181671092Y-31815341D01*
X182141503Y-32067583D01*
X182620708Y-32368185D01*
X183032868Y-32714949D01*
X183236755Y-32926244D01*
X183386226Y-33126559D01*
X183607693Y-33599169D01*
X183674445Y-33869985D01*
X183696720Y-34148715D01*
X183644072Y-34617316D01*
X183484595Y-35072503D01*
X183232051Y-35490380D01*
X182891634Y-35861652D01*
X182472506Y-36164637D01*
X181938171Y-36408450D01*
X181348874Y-36558764D01*
X180690701Y-36610683D01*
X180009927Y-36575010D01*
X179325628Y-36467252D01*
X178704053Y-36312579D01*
X178317210Y-36179839D01*
X177979239Y-36035858D01*
X177954509Y-35998489D01*
X178083041Y-35382149D01*
X178206751Y-34453714D01*
X178538677Y-34453714D01*
X178803342Y-34794574D01*
X179145845Y-35132971D01*
X179577320Y-35469825D01*
X180045809Y-35747966D01*
X180448693Y-35896842D01*
X180801160Y-35942435D01*
G37*
D10*
X102756265Y-77324800D02*
X102899122Y-77372419D01*
X102899122Y-77372419D02*
X103137217Y-77372419D01*
X103137217Y-77372419D02*
X103232455Y-77324800D01*
X103232455Y-77324800D02*
X103280074Y-77277180D01*
X103280074Y-77277180D02*
X103327693Y-77181942D01*
X103327693Y-77181942D02*
X103327693Y-77086704D01*
X103327693Y-77086704D02*
X103280074Y-76991466D01*
X103280074Y-76991466D02*
X103232455Y-76943847D01*
X103232455Y-76943847D02*
X103137217Y-76896228D01*
X103137217Y-76896228D02*
X102946741Y-76848609D01*
X102946741Y-76848609D02*
X102851503Y-76800990D01*
X102851503Y-76800990D02*
X102803884Y-76753371D01*
X102803884Y-76753371D02*
X102756265Y-76658133D01*
X102756265Y-76658133D02*
X102756265Y-76562895D01*
X102756265Y-76562895D02*
X102803884Y-76467657D01*
X102803884Y-76467657D02*
X102851503Y-76420038D01*
X102851503Y-76420038D02*
X102946741Y-76372419D01*
X102946741Y-76372419D02*
X103184836Y-76372419D01*
X103184836Y-76372419D02*
X103327693Y-76420038D01*
X103613408Y-76372419D02*
X104184836Y-76372419D01*
X103899122Y-77372419D02*
X103899122Y-76372419D01*
X104708646Y-76372419D02*
X104899122Y-76372419D01*
X104899122Y-76372419D02*
X104994360Y-76420038D01*
X104994360Y-76420038D02*
X105089598Y-76515276D01*
X105089598Y-76515276D02*
X105137217Y-76705752D01*
X105137217Y-76705752D02*
X105137217Y-77039085D01*
X105137217Y-77039085D02*
X105089598Y-77229561D01*
X105089598Y-77229561D02*
X104994360Y-77324800D01*
X104994360Y-77324800D02*
X104899122Y-77372419D01*
X104899122Y-77372419D02*
X104708646Y-77372419D01*
X104708646Y-77372419D02*
X104613408Y-77324800D01*
X104613408Y-77324800D02*
X104518170Y-77229561D01*
X104518170Y-77229561D02*
X104470551Y-77039085D01*
X104470551Y-77039085D02*
X104470551Y-76705752D01*
X104470551Y-76705752D02*
X104518170Y-76515276D01*
X104518170Y-76515276D02*
X104613408Y-76420038D01*
X104613408Y-76420038D02*
X104708646Y-76372419D01*
X105565789Y-77372419D02*
X105565789Y-76372419D01*
X105565789Y-76372419D02*
X105946741Y-76372419D01*
X105946741Y-76372419D02*
X106041979Y-76420038D01*
X106041979Y-76420038D02*
X106089598Y-76467657D01*
X106089598Y-76467657D02*
X106137217Y-76562895D01*
X106137217Y-76562895D02*
X106137217Y-76705752D01*
X106137217Y-76705752D02*
X106089598Y-76800990D01*
X106089598Y-76800990D02*
X106041979Y-76848609D01*
X106041979Y-76848609D02*
X105946741Y-76896228D01*
X105946741Y-76896228D02*
X105565789Y-76896228D01*
X174756265Y-82586704D02*
X175232455Y-82586704D01*
X174661027Y-82872419D02*
X174994360Y-81872419D01*
X174994360Y-81872419D02*
X175327693Y-82872419D01*
X45780074Y-72872419D02*
X45303884Y-72872419D01*
X45303884Y-72872419D02*
X45303884Y-71872419D01*
X46113408Y-72348609D02*
X46446741Y-72348609D01*
X46589598Y-72872419D02*
X46113408Y-72872419D01*
X46113408Y-72872419D02*
X46113408Y-71872419D01*
X46113408Y-71872419D02*
X46589598Y-71872419D01*
X47351503Y-72348609D02*
X47018170Y-72348609D01*
X47018170Y-72872419D02*
X47018170Y-71872419D01*
X47018170Y-71872419D02*
X47494360Y-71872419D01*
X47732456Y-71872419D02*
X48303884Y-71872419D01*
X48018170Y-72872419D02*
X48018170Y-71872419D01*
X75875312Y-73227419D02*
X75541979Y-72751228D01*
X75303884Y-73227419D02*
X75303884Y-72227419D01*
X75303884Y-72227419D02*
X75684836Y-72227419D01*
X75684836Y-72227419D02*
X75780074Y-72275038D01*
X75780074Y-72275038D02*
X75827693Y-72322657D01*
X75827693Y-72322657D02*
X75875312Y-72417895D01*
X75875312Y-72417895D02*
X75875312Y-72560752D01*
X75875312Y-72560752D02*
X75827693Y-72655990D01*
X75827693Y-72655990D02*
X75780074Y-72703609D01*
X75780074Y-72703609D02*
X75684836Y-72751228D01*
X75684836Y-72751228D02*
X75303884Y-72751228D01*
X76303884Y-73227419D02*
X76303884Y-72227419D01*
X77303883Y-72275038D02*
X77208645Y-72227419D01*
X77208645Y-72227419D02*
X77065788Y-72227419D01*
X77065788Y-72227419D02*
X76922931Y-72275038D01*
X76922931Y-72275038D02*
X76827693Y-72370276D01*
X76827693Y-72370276D02*
X76780074Y-72465514D01*
X76780074Y-72465514D02*
X76732455Y-72655990D01*
X76732455Y-72655990D02*
X76732455Y-72798847D01*
X76732455Y-72798847D02*
X76780074Y-72989323D01*
X76780074Y-72989323D02*
X76827693Y-73084561D01*
X76827693Y-73084561D02*
X76922931Y-73179800D01*
X76922931Y-73179800D02*
X77065788Y-73227419D01*
X77065788Y-73227419D02*
X77161026Y-73227419D01*
X77161026Y-73227419D02*
X77303883Y-73179800D01*
X77303883Y-73179800D02*
X77351502Y-73132180D01*
X77351502Y-73132180D02*
X77351502Y-72798847D01*
X77351502Y-72798847D02*
X77161026Y-72798847D01*
X77780074Y-73227419D02*
X77780074Y-72227419D01*
X77780074Y-72703609D02*
X78351502Y-72703609D01*
X78351502Y-73227419D02*
X78351502Y-72227419D01*
X78684836Y-72227419D02*
X79256264Y-72227419D01*
X78970550Y-73227419D02*
X78970550Y-72227419D01*
X61303884Y-56872419D02*
X61303884Y-57681942D01*
X61303884Y-57681942D02*
X61351503Y-57777180D01*
X61351503Y-57777180D02*
X61399122Y-57824800D01*
X61399122Y-57824800D02*
X61494360Y-57872419D01*
X61494360Y-57872419D02*
X61684836Y-57872419D01*
X61684836Y-57872419D02*
X61780074Y-57824800D01*
X61780074Y-57824800D02*
X61827693Y-57777180D01*
X61827693Y-57777180D02*
X61875312Y-57681942D01*
X61875312Y-57681942D02*
X61875312Y-56872419D01*
X62351503Y-57872419D02*
X62351503Y-56872419D01*
X62351503Y-56872419D02*
X62732455Y-56872419D01*
X62732455Y-56872419D02*
X62827693Y-56920038D01*
X62827693Y-56920038D02*
X62875312Y-56967657D01*
X62875312Y-56967657D02*
X62922931Y-57062895D01*
X62922931Y-57062895D02*
X62922931Y-57205752D01*
X62922931Y-57205752D02*
X62875312Y-57300990D01*
X62875312Y-57300990D02*
X62827693Y-57348609D01*
X62827693Y-57348609D02*
X62732455Y-57396228D01*
X62732455Y-57396228D02*
X62351503Y-57396228D01*
G36*
X34831953Y-38226055D02*
G01*
X34836045Y-38296397D01*
X34708936Y-38334818D01*
X34509553Y-38405024D01*
X34509553Y-38568972D01*
X34509553Y-38749284D01*
X34708703Y-38825071D01*
X34836045Y-38865422D01*
X34831953Y-38928925D01*
X34836045Y-38977468D01*
X33926832Y-38571659D01*
X34101912Y-38571659D01*
X34101912Y-38574406D01*
X34447027Y-38721990D01*
X34447027Y-38654335D01*
X34447027Y-38575811D01*
X34447027Y-38430303D01*
X34274586Y-38498645D01*
X34101912Y-38571659D01*
X33926832Y-38571659D01*
X33911646Y-38564881D01*
X33911646Y-38525924D01*
X34242107Y-38390675D01*
X34616226Y-38238328D01*
X34836045Y-38142707D01*
X34831953Y-38226055D01*
G37*
G36*
X34770465Y-38043911D02*
G01*
X34765092Y-38043911D01*
X34739102Y-38031694D01*
X34719357Y-38016922D01*
X34703595Y-37997530D01*
X34689316Y-37968806D01*
X34689316Y-37963311D01*
X34702888Y-37934970D01*
X34718319Y-37914829D01*
X34738074Y-37899482D01*
X34765092Y-37887473D01*
X34770465Y-37887473D01*
X34801033Y-37900718D01*
X34821024Y-37915867D01*
X34835348Y-37935711D01*
X34845631Y-37963311D01*
X34845631Y-37968806D01*
X34835337Y-37998745D01*
X34821756Y-38018326D01*
X34802154Y-38032360D01*
X34770465Y-38043911D01*
G37*
G36*
X34207486Y-37317716D02*
G01*
X34037207Y-37321647D01*
X33927278Y-37331393D01*
X33923187Y-37328646D01*
X33927278Y-37257632D01*
X33923187Y-37185886D01*
X33927278Y-37183138D01*
X34035827Y-37193334D01*
X34207852Y-37197487D01*
X34348841Y-37197487D01*
X34344604Y-37180303D01*
X34336507Y-37166774D01*
X34234255Y-37057241D01*
X34098505Y-36925347D01*
X33923187Y-36767803D01*
X33927278Y-36699476D01*
X33923187Y-36627791D01*
X34139464Y-36863424D01*
X34254854Y-36979758D01*
X34335225Y-37053323D01*
X34337972Y-37053323D01*
X34834091Y-36614113D01*
X34830000Y-36700881D01*
X34834091Y-36787648D01*
X34496465Y-37066708D01*
X34380226Y-37170865D01*
X34373949Y-37181748D01*
X34370701Y-37197487D01*
X34550158Y-37197487D01*
X34716170Y-37193438D01*
X34830000Y-37183138D01*
X34834091Y-37185886D01*
X34830000Y-37257632D01*
X34834091Y-37328646D01*
X34830000Y-37331393D01*
X34723635Y-37321711D01*
X34549792Y-37317716D01*
X34207486Y-37317716D01*
G37*
G36*
X34826272Y-35979372D02*
G01*
X34840537Y-36015805D01*
X34845631Y-36061392D01*
X34840420Y-36098861D01*
X34825359Y-36130085D01*
X34800850Y-36154367D01*
X34765825Y-36170690D01*
X34765825Y-36176125D01*
X34807723Y-36231787D01*
X34829389Y-36271135D01*
X34841221Y-36312143D01*
X34845631Y-36366756D01*
X34840918Y-36419704D01*
X34827920Y-36461633D01*
X34807590Y-36494862D01*
X34779153Y-36520178D01*
X34742251Y-36535937D01*
X34694200Y-36541634D01*
X34649410Y-36534980D01*
X34608107Y-36514894D01*
X34568843Y-36479474D01*
X34537899Y-36435878D01*
X34511628Y-36380007D01*
X34490685Y-36309359D01*
X34461254Y-36178872D01*
X34455735Y-36171905D01*
X34450555Y-36170690D01*
X34518101Y-36170690D01*
X34550158Y-36289576D01*
X34567474Y-36340462D01*
X34586060Y-36375249D01*
X34605418Y-36397836D01*
X34629674Y-36414570D01*
X34657526Y-36424718D01*
X34689987Y-36428244D01*
X34721464Y-36421155D01*
X34749705Y-36398874D01*
X34768654Y-36366223D01*
X34775289Y-36324380D01*
X34770168Y-36288538D01*
X34753149Y-36246400D01*
X34720701Y-36195969D01*
X34703757Y-36180871D01*
X34684553Y-36176125D01*
X34518101Y-36170690D01*
X34450555Y-36170690D01*
X34444829Y-36169347D01*
X34401291Y-36171928D01*
X34367037Y-36178934D01*
X34336972Y-36190053D01*
X34318066Y-36201465D01*
X34303429Y-36216144D01*
X34291994Y-36234926D01*
X34280697Y-36269731D01*
X34278988Y-36303864D01*
X34282649Y-36333133D01*
X34293622Y-36360441D01*
X34312571Y-36386540D01*
X34349897Y-36421552D01*
X34400743Y-36457615D01*
X34399399Y-36476055D01*
X34305793Y-36499258D01*
X34300176Y-36495167D01*
X34263600Y-36449066D01*
X34249717Y-36424863D01*
X34232643Y-36383487D01*
X34220538Y-36337813D01*
X34216461Y-36289576D01*
X34221591Y-36224302D01*
X34229139Y-36194132D01*
X34242168Y-36162508D01*
X34259935Y-36133179D01*
X34281857Y-36108897D01*
X34309249Y-36089399D01*
X34347620Y-36072688D01*
X34390981Y-36062362D01*
X34443852Y-36058644D01*
X34540389Y-36060720D01*
X34655427Y-36062735D01*
X34715046Y-36059072D01*
X34748391Y-36050487D01*
X34765031Y-36039532D01*
X34772306Y-36024736D01*
X34775289Y-35998560D01*
X34768511Y-35960947D01*
X34803255Y-35950017D01*
X34826272Y-35979372D01*
G37*
G36*
X34271782Y-35581577D02*
G01*
X34279001Y-35626611D01*
X34300722Y-35667056D01*
X34339255Y-35704553D01*
X34386727Y-35731633D01*
X34445499Y-35748891D01*
X34518407Y-35755111D01*
X34596869Y-35748685D01*
X34658493Y-35731085D01*
X34706779Y-35703881D01*
X34737499Y-35675639D01*
X34758514Y-35644938D01*
X34771020Y-35611193D01*
X34775289Y-35573394D01*
X34772023Y-35532267D01*
X34762650Y-35496214D01*
X34745641Y-35462117D01*
X34716366Y-35423796D01*
X34716366Y-35417629D01*
X34745980Y-35391006D01*
X34789952Y-35433551D01*
X34820614Y-35481297D01*
X34839198Y-35535317D01*
X34845631Y-35597330D01*
X34839862Y-35660139D01*
X34823369Y-35714116D01*
X34796617Y-35760971D01*
X34759047Y-35801884D01*
X34713895Y-35834135D01*
X34661124Y-35857818D01*
X34599296Y-35872744D01*
X34526589Y-35878026D01*
X34459376Y-35871440D01*
X34397934Y-35852076D01*
X34342744Y-35821520D01*
X34299321Y-35783810D01*
X34264576Y-35738714D01*
X34238382Y-35688189D01*
X34221871Y-35634198D01*
X34216461Y-35580233D01*
X34219154Y-35529186D01*
X34227269Y-35478140D01*
X34240224Y-35429845D01*
X34254930Y-35394426D01*
X34258960Y-35391006D01*
X34373571Y-35423796D01*
X34374914Y-35441564D01*
X34325957Y-35476141D01*
X34294763Y-35510539D01*
X34277422Y-35545281D01*
X34271782Y-35581577D01*
G37*
G36*
X34343712Y-35093763D02*
G01*
X34347681Y-35091015D01*
X34310970Y-35058024D01*
X34281003Y-35023726D01*
X34256423Y-34987601D01*
X34240336Y-34955460D01*
X34221835Y-34897391D01*
X34216461Y-34848482D01*
X34223303Y-34789608D01*
X34241805Y-34746702D01*
X34270928Y-34715675D01*
X34309492Y-34694627D01*
X34363251Y-34680396D01*
X34436891Y-34675008D01*
X34506927Y-34676718D01*
X34577025Y-34678428D01*
X34725704Y-34674761D01*
X34828046Y-34665422D01*
X34832137Y-34668169D01*
X34828046Y-34734420D01*
X34832137Y-34800000D01*
X34828046Y-34802747D01*
X34729470Y-34793484D01*
X34576231Y-34789741D01*
X34439760Y-34789741D01*
X34384426Y-34793087D01*
X34349127Y-34801374D01*
X34327897Y-34812639D01*
X34312418Y-34830102D01*
X34302329Y-34855248D01*
X34298527Y-34890858D01*
X34305282Y-34934538D01*
X34328447Y-34989227D01*
X34364867Y-35041538D01*
X34419549Y-35093763D01*
X34580139Y-35093763D01*
X34722524Y-35090178D01*
X34828046Y-35080757D01*
X34832137Y-35084176D01*
X34828046Y-35149755D01*
X34832137Y-35215334D01*
X34828046Y-35218082D01*
X34730669Y-35209314D01*
X34576781Y-35205748D01*
X34157294Y-35205748D01*
X33970594Y-35209701D01*
X33886917Y-35218082D01*
X33881971Y-35215334D01*
X33872345Y-35154547D01*
X33853028Y-35093763D01*
X33856675Y-35084194D01*
X33868476Y-35080757D01*
X34025341Y-35090903D01*
X34133053Y-35093763D01*
X34343712Y-35093763D01*
G37*
G36*
X34826272Y-33938479D02*
G01*
X34840537Y-33974912D01*
X34845631Y-34020498D01*
X34840420Y-34057968D01*
X34825359Y-34089192D01*
X34800850Y-34113473D01*
X34765825Y-34129797D01*
X34765825Y-34135232D01*
X34807723Y-34190894D01*
X34829389Y-34230242D01*
X34841221Y-34271250D01*
X34845631Y-34325863D01*
X34840918Y-34378811D01*
X34827920Y-34420739D01*
X34807590Y-34453968D01*
X34779153Y-34479285D01*
X34742251Y-34495044D01*
X34694200Y-34500741D01*
X34649410Y-34494087D01*
X34608107Y-34474000D01*
X34568843Y-34438581D01*
X34537899Y-34394985D01*
X34511628Y-34339114D01*
X34490685Y-34268466D01*
X34461254Y-34137979D01*
X34455735Y-34131012D01*
X34450555Y-34129797D01*
X34518101Y-34129797D01*
X34550158Y-34248682D01*
X34567474Y-34299568D01*
X34586060Y-34334356D01*
X34605418Y-34356943D01*
X34629674Y-34373676D01*
X34657526Y-34383825D01*
X34689987Y-34387351D01*
X34721464Y-34380261D01*
X34749705Y-34357981D01*
X34768654Y-34325330D01*
X34775289Y-34283487D01*
X34770168Y-34247645D01*
X34753149Y-34205507D01*
X34720701Y-34155076D01*
X34703757Y-34139978D01*
X34684553Y-34135232D01*
X34518101Y-34129797D01*
X34450555Y-34129797D01*
X34444829Y-34128454D01*
X34401291Y-34131035D01*
X34367037Y-34138040D01*
X34336972Y-34149160D01*
X34318066Y-34160572D01*
X34303429Y-34175251D01*
X34291994Y-34194033D01*
X34280697Y-34228838D01*
X34278988Y-34262971D01*
X34282649Y-34292240D01*
X34293622Y-34319548D01*
X34312571Y-34345647D01*
X34349897Y-34380659D01*
X34400743Y-34416721D01*
X34399399Y-34435162D01*
X34305793Y-34458365D01*
X34300176Y-34454274D01*
X34263600Y-34408173D01*
X34249717Y-34383970D01*
X34232643Y-34342594D01*
X34220538Y-34296920D01*
X34216461Y-34248682D01*
X34221591Y-34183408D01*
X34229139Y-34153239D01*
X34242168Y-34121615D01*
X34259935Y-34092286D01*
X34281857Y-34068004D01*
X34309249Y-34048505D01*
X34347620Y-34031795D01*
X34390981Y-34021469D01*
X34443852Y-34017751D01*
X34540389Y-34019827D01*
X34655427Y-34021842D01*
X34715046Y-34018179D01*
X34748391Y-34009594D01*
X34765031Y-33998639D01*
X34772306Y-33983843D01*
X34775289Y-33957667D01*
X34768511Y-33920054D01*
X34803255Y-33909124D01*
X34826272Y-33938479D01*
G37*
G36*
X34755959Y-33343646D02*
G01*
X34785973Y-33378760D01*
X34811498Y-33419783D01*
X34830501Y-33464084D01*
X34841827Y-33509890D01*
X34845631Y-33557780D01*
X34839282Y-33625820D01*
X34820963Y-33685519D01*
X34791715Y-33738223D01*
X34753185Y-33779797D01*
X34714294Y-33805852D01*
X34666841Y-33825451D01*
X34609091Y-33838081D01*
X34538923Y-33842629D01*
X34467080Y-33836003D01*
X34402330Y-33816678D01*
X34344348Y-33786171D01*
X34299993Y-33749389D01*
X34264599Y-33705528D01*
X34238382Y-33657493D01*
X34221827Y-33606401D01*
X34216461Y-33556376D01*
X34271782Y-33556376D01*
X34275935Y-33583060D01*
X34292604Y-33619269D01*
X34323867Y-33658531D01*
X34345060Y-33675307D01*
X34375952Y-33692663D01*
X34410755Y-33706230D01*
X34450935Y-33715561D01*
X34450935Y-33458007D01*
X34445927Y-33443199D01*
X34430785Y-33438224D01*
X34382591Y-33442843D01*
X34344441Y-33455625D01*
X34314159Y-33475776D01*
X34289591Y-33502872D01*
X34276109Y-33529427D01*
X34271782Y-33556376D01*
X34216461Y-33556376D01*
X34220740Y-33504867D01*
X34232948Y-33460450D01*
X34252465Y-33420866D01*
X34275874Y-33391085D01*
X34304330Y-33366753D01*
X34337667Y-33346388D01*
X34373490Y-33330867D01*
X34408742Y-33321109D01*
X34482198Y-33313904D01*
X34495742Y-33316808D01*
X34503375Y-33324714D01*
X34506256Y-33339183D01*
X34506256Y-33719652D01*
X34588888Y-33714975D01*
X34645853Y-33703014D01*
X34683698Y-33686191D01*
X34720366Y-33655942D01*
X34744453Y-33618536D01*
X34758894Y-33575731D01*
X34763565Y-33533845D01*
X34758367Y-33474424D01*
X34743562Y-33423620D01*
X34719698Y-33379819D01*
X34686446Y-33341870D01*
X34721250Y-33313904D01*
X34755959Y-33343646D01*
G37*
G36*
X34834091Y-32991809D02*
G01*
X34443166Y-33146182D01*
X34226048Y-33239105D01*
X34230139Y-33164672D01*
X34226048Y-33095001D01*
X34318005Y-33066303D01*
X34420893Y-33033513D01*
X34508820Y-33004509D01*
X34611341Y-32967262D01*
X34702993Y-32928977D01*
X34702993Y-32926229D01*
X34639602Y-32898626D01*
X34561943Y-32869565D01*
X34380715Y-32808077D01*
X34226048Y-32756175D01*
X34230139Y-32709036D01*
X34226048Y-32655730D01*
X34602353Y-32817024D01*
X34834091Y-32906446D01*
X34830000Y-32948089D01*
X34834091Y-32991809D01*
G37*
G36*
X34768328Y-32644312D02*
G01*
X34762955Y-32644312D01*
X34736405Y-32632460D01*
X34716182Y-32617323D01*
X34699976Y-32597300D01*
X34685408Y-32568475D01*
X34685408Y-32562979D01*
X34705998Y-32524991D01*
X34735172Y-32497095D01*
X34759014Y-32484773D01*
X34790840Y-32476579D01*
X34832869Y-32473525D01*
X34878176Y-32478288D01*
X34914508Y-32488546D01*
X34945710Y-32507658D01*
X34970378Y-32529518D01*
X34992726Y-32557545D01*
X35011899Y-32586243D01*
X35031133Y-32619033D01*
X35015326Y-32632928D01*
X35001824Y-32636802D01*
X34963757Y-32585959D01*
X34933558Y-32554797D01*
X34901445Y-32534466D01*
X34870055Y-32528175D01*
X34849905Y-32531594D01*
X34839036Y-32541852D01*
X34834945Y-32554492D01*
X34833907Y-32568475D01*
X34824408Y-32601067D01*
X34814124Y-32619705D01*
X34798166Y-32632787D01*
X34768328Y-32644312D01*
G37*
G36*
X34696643Y-31858644D02*
G01*
X34207424Y-31858644D01*
X34041237Y-31862693D01*
X33927278Y-31872993D01*
X33923187Y-31870245D01*
X33927278Y-31798560D01*
X33923187Y-31726142D01*
X33927278Y-31724738D01*
X34031878Y-31734391D01*
X34206936Y-31738415D01*
X34664586Y-31738415D01*
X34742599Y-31740374D01*
X34793546Y-31745254D01*
X34838120Y-31755059D01*
X34876039Y-31769862D01*
X34913209Y-31791245D01*
X34962684Y-31826526D01*
X35009134Y-31871364D01*
X35041670Y-31922266D01*
X35061490Y-31980454D01*
X35068381Y-32047871D01*
X35064888Y-32087677D01*
X35056474Y-32110703D01*
X35052505Y-32112107D01*
X35016868Y-32096192D01*
X34939176Y-32073150D01*
X34937833Y-32057458D01*
X34965122Y-32035862D01*
X34980871Y-32009311D01*
X34986315Y-31976125D01*
X34983769Y-31953900D01*
X34976423Y-31934848D01*
X34965013Y-31918116D01*
X34950778Y-31904439D01*
X34910478Y-31883251D01*
X34862606Y-31869940D01*
X34807651Y-31862796D01*
X34751964Y-31859377D01*
X34696643Y-31858644D01*
G37*
G36*
X34770465Y-31531420D02*
G01*
X34765092Y-31531420D01*
X34739102Y-31519203D01*
X34719357Y-31504431D01*
X34703595Y-31485039D01*
X34689316Y-31456315D01*
X34689316Y-31450819D01*
X34702888Y-31422478D01*
X34718319Y-31402337D01*
X34738074Y-31386991D01*
X34765092Y-31374982D01*
X34770465Y-31374982D01*
X34801033Y-31388226D01*
X34821024Y-31403375D01*
X34835348Y-31423220D01*
X34845631Y-31450819D01*
X34845631Y-31456315D01*
X34835337Y-31486253D01*
X34821756Y-31505835D01*
X34802154Y-31519868D01*
X34770465Y-31531420D01*
G37*
G36*
X34696643Y-30754666D02*
G01*
X34207424Y-30754666D01*
X34041237Y-30758716D01*
X33927278Y-30769016D01*
X33923187Y-30766268D01*
X33927278Y-30694583D01*
X33923187Y-30622165D01*
X33927278Y-30620760D01*
X34031878Y-30630414D01*
X34206936Y-30634438D01*
X34664586Y-30634438D01*
X34742599Y-30636397D01*
X34793546Y-30641277D01*
X34838120Y-30651081D01*
X34876039Y-30665884D01*
X34913209Y-30687267D01*
X34962684Y-30722548D01*
X35009134Y-30767386D01*
X35041670Y-30818289D01*
X35061490Y-30876477D01*
X35068381Y-30943893D01*
X35064888Y-30983699D01*
X35056474Y-31006725D01*
X35052505Y-31008129D01*
X35016868Y-30992214D01*
X34939176Y-30969173D01*
X34937833Y-30953480D01*
X34965122Y-30931885D01*
X34980871Y-30905333D01*
X34986315Y-30872147D01*
X34983769Y-30849922D01*
X34976423Y-30830870D01*
X34965013Y-30814138D01*
X34950778Y-30800462D01*
X34910478Y-30779274D01*
X34862606Y-30765963D01*
X34807651Y-30758818D01*
X34751964Y-30755399D01*
X34696643Y-30754666D01*
G37*
G36*
X34826272Y-29878186D02*
G01*
X34840537Y-29914619D01*
X34845631Y-29960205D01*
X34840420Y-29997674D01*
X34825359Y-30028899D01*
X34800850Y-30053180D01*
X34765825Y-30069504D01*
X34765825Y-30074938D01*
X34807723Y-30130601D01*
X34829389Y-30169949D01*
X34841221Y-30210957D01*
X34845631Y-30265570D01*
X34840918Y-30318518D01*
X34827920Y-30360446D01*
X34807590Y-30393675D01*
X34779153Y-30418992D01*
X34742251Y-30434751D01*
X34694200Y-30440448D01*
X34649410Y-30433794D01*
X34608107Y-30413707D01*
X34568843Y-30378288D01*
X34537899Y-30334692D01*
X34511628Y-30278821D01*
X34490685Y-30208173D01*
X34461254Y-30077686D01*
X34455735Y-30070719D01*
X34450555Y-30069504D01*
X34518101Y-30069504D01*
X34550158Y-30188389D01*
X34567474Y-30239275D01*
X34586060Y-30274063D01*
X34605418Y-30296650D01*
X34629674Y-30313383D01*
X34657526Y-30323532D01*
X34689987Y-30327058D01*
X34721464Y-30319968D01*
X34749705Y-30297688D01*
X34768654Y-30265037D01*
X34775289Y-30223194D01*
X34770168Y-30187352D01*
X34753149Y-30145214D01*
X34720701Y-30094783D01*
X34703757Y-30079685D01*
X34684553Y-30074938D01*
X34518101Y-30069504D01*
X34450555Y-30069504D01*
X34444829Y-30068161D01*
X34401291Y-30070742D01*
X34367037Y-30077747D01*
X34336972Y-30088867D01*
X34318066Y-30100279D01*
X34303429Y-30114958D01*
X34291994Y-30133740D01*
X34280697Y-30168545D01*
X34278988Y-30202677D01*
X34282649Y-30231947D01*
X34293622Y-30259255D01*
X34312571Y-30285354D01*
X34349897Y-30320366D01*
X34400743Y-30356428D01*
X34399399Y-30374869D01*
X34305793Y-30398072D01*
X34300176Y-30393981D01*
X34263600Y-30347880D01*
X34249717Y-30323677D01*
X34232643Y-30282301D01*
X34220538Y-30236627D01*
X34216461Y-30188389D01*
X34221591Y-30123115D01*
X34229139Y-30092946D01*
X34242168Y-30061322D01*
X34259935Y-30031993D01*
X34281857Y-30007711D01*
X34309249Y-29988212D01*
X34347620Y-29971502D01*
X34390981Y-29961176D01*
X34443852Y-29957458D01*
X34540389Y-29959534D01*
X34655427Y-29961549D01*
X34715046Y-29957885D01*
X34748391Y-29949301D01*
X34765031Y-29938346D01*
X34772306Y-29923550D01*
X34775289Y-29897374D01*
X34768511Y-29859760D01*
X34803255Y-29848831D01*
X34826272Y-29878186D01*
G37*
G36*
X34577025Y-29186627D02*
G01*
X34725703Y-29182978D01*
X34828046Y-29173682D01*
X34832137Y-29177102D01*
X34828046Y-29242681D01*
X34832137Y-29308260D01*
X34828046Y-29310947D01*
X34728955Y-29302196D01*
X34576231Y-29298674D01*
X34439760Y-29298674D01*
X34384391Y-29301971D01*
X34349095Y-29310132D01*
X34327897Y-29321205D01*
X34312435Y-29338453D01*
X34302340Y-29363474D01*
X34298527Y-29399118D01*
X34305278Y-29442753D01*
X34328447Y-29497487D01*
X34364870Y-29549788D01*
X34419549Y-29601962D01*
X34580139Y-29601962D01*
X34730509Y-29598440D01*
X34828107Y-29589689D01*
X34832137Y-29592437D01*
X34828046Y-29658016D01*
X34832137Y-29723595D01*
X34828046Y-29726282D01*
X34732871Y-29717594D01*
X34577208Y-29714009D01*
X34501065Y-29714009D01*
X34322396Y-29717784D01*
X34230444Y-29726282D01*
X34226475Y-29723595D01*
X34228359Y-29664934D01*
X34221774Y-29610205D01*
X34224840Y-29604448D01*
X34236856Y-29601962D01*
X34343712Y-29601962D01*
X34347681Y-29599275D01*
X34310947Y-29566339D01*
X34281003Y-29532292D01*
X34256466Y-29496376D01*
X34240336Y-29463965D01*
X34221835Y-29405957D01*
X34216461Y-29357414D01*
X34223303Y-29298540D01*
X34241805Y-29255634D01*
X34270928Y-29224607D01*
X34309492Y-29203560D01*
X34363251Y-29189328D01*
X34436891Y-29183941D01*
X34506927Y-29185284D01*
X34577025Y-29186627D01*
G37*
G36*
X34689499Y-29007231D02*
G01*
X34689499Y-28986043D01*
X34729979Y-28951402D01*
X34762039Y-28911243D01*
X34783406Y-28866416D01*
X34790310Y-28820751D01*
X34786619Y-28783617D01*
X34776227Y-28753100D01*
X34759535Y-28727817D01*
X34736824Y-28708389D01*
X34708806Y-28696499D01*
X34673867Y-28692280D01*
X34644679Y-28696357D01*
X34621677Y-28707899D01*
X34603342Y-28727145D01*
X34583470Y-28765647D01*
X34560233Y-28833696D01*
X34538679Y-28895856D01*
X34507843Y-28947819D01*
X34485717Y-28970658D01*
X34458201Y-28987447D01*
X34426368Y-28997487D01*
X34387676Y-29001064D01*
X34351786Y-28997408D01*
X34320243Y-28986814D01*
X34292116Y-28969312D01*
X34257556Y-28933702D01*
X34234291Y-28890788D01*
X34221000Y-28842624D01*
X34216461Y-28789977D01*
X34219446Y-28739275D01*
X34228613Y-28686479D01*
X34242717Y-28636487D01*
X34257616Y-28601421D01*
X34262318Y-28598735D01*
X34365327Y-28626700D01*
X34366732Y-28645874D01*
X34324592Y-28684404D01*
X34302496Y-28709377D01*
X34279164Y-28752594D01*
X34271782Y-28795472D01*
X34277949Y-28839347D01*
X34295108Y-28872348D01*
X34312509Y-28888701D01*
X34333796Y-28898555D01*
X34360198Y-28902023D01*
X34393104Y-28895308D01*
X34421785Y-28874687D01*
X34447625Y-28836166D01*
X34469924Y-28772208D01*
X34492883Y-28700157D01*
X34508065Y-28669908D01*
X34527199Y-28640744D01*
X34550880Y-28615652D01*
X34580322Y-28597025D01*
X34614094Y-28585622D01*
X34653656Y-28581638D01*
X34703421Y-28587438D01*
X34727585Y-28595572D01*
X34754467Y-28609665D01*
X34779333Y-28628278D01*
X34800751Y-28651674D01*
X34817845Y-28680187D01*
X34832930Y-28720673D01*
X34842289Y-28765738D01*
X34845631Y-28819347D01*
X34841565Y-28888012D01*
X34829175Y-28958217D01*
X34808018Y-29030434D01*
X34689499Y-29007231D01*
G37*
G36*
X34826272Y-27897865D02*
G01*
X34840537Y-27934298D01*
X34845631Y-27979884D01*
X34840420Y-28017353D01*
X34825359Y-28048578D01*
X34800850Y-28072859D01*
X34765825Y-28089183D01*
X34765825Y-28094617D01*
X34807723Y-28150280D01*
X34829389Y-28189628D01*
X34841221Y-28230636D01*
X34845631Y-28285249D01*
X34840918Y-28338197D01*
X34827920Y-28380125D01*
X34807590Y-28413354D01*
X34779153Y-28438671D01*
X34742251Y-28454430D01*
X34694200Y-28460127D01*
X34649410Y-28453473D01*
X34608107Y-28433386D01*
X34568843Y-28397967D01*
X34537899Y-28354371D01*
X34511628Y-28298500D01*
X34490685Y-28227852D01*
X34461254Y-28097365D01*
X34455735Y-28090398D01*
X34450555Y-28089183D01*
X34518101Y-28089183D01*
X34550158Y-28208068D01*
X34567474Y-28258954D01*
X34586060Y-28293742D01*
X34605418Y-28316329D01*
X34629674Y-28333062D01*
X34657526Y-28343211D01*
X34689987Y-28346737D01*
X34721464Y-28339647D01*
X34749705Y-28317367D01*
X34768654Y-28284716D01*
X34775289Y-28242873D01*
X34770168Y-28207031D01*
X34753149Y-28164893D01*
X34720701Y-28114462D01*
X34703757Y-28099364D01*
X34684553Y-28094617D01*
X34518101Y-28089183D01*
X34450555Y-28089183D01*
X34444829Y-28087840D01*
X34401291Y-28090421D01*
X34367037Y-28097426D01*
X34336972Y-28108546D01*
X34318066Y-28119958D01*
X34303429Y-28134637D01*
X34291994Y-28153419D01*
X34280697Y-28188224D01*
X34278988Y-28222356D01*
X34282649Y-28251625D01*
X34293622Y-28278934D01*
X34312571Y-28305033D01*
X34349897Y-28340045D01*
X34400743Y-28376107D01*
X34399399Y-28394548D01*
X34305793Y-28417751D01*
X34300176Y-28413660D01*
X34263600Y-28367559D01*
X34249717Y-28343356D01*
X34232643Y-28301980D01*
X34220538Y-28256306D01*
X34216461Y-28208068D01*
X34221591Y-28142794D01*
X34229139Y-28112625D01*
X34242168Y-28081001D01*
X34259935Y-28051672D01*
X34281857Y-28027390D01*
X34309249Y-28007891D01*
X34347620Y-27991181D01*
X34390981Y-27980855D01*
X34443852Y-27977137D01*
X34540389Y-27979213D01*
X34655427Y-27981228D01*
X34715046Y-27977564D01*
X34748391Y-27968980D01*
X34765031Y-27958025D01*
X34772306Y-27943229D01*
X34775289Y-27917053D01*
X34768511Y-27879439D01*
X34803255Y-27868510D01*
X34826272Y-27897865D01*
G37*
D12*
G36*
X171088197Y-41347030D02*
G01*
X171088197Y-40132533D01*
X171076049Y-39635182D01*
X171045150Y-39294108D01*
X171053393Y-39281835D01*
X171397592Y-39281835D01*
X171729701Y-39281835D01*
X171733731Y-39294108D01*
X171704771Y-39607310D01*
X171692698Y-40131617D01*
X171692698Y-41502185D01*
X171676480Y-41841349D01*
X171637377Y-42046603D01*
X171591067Y-42163797D01*
X171514762Y-42297938D01*
X171401805Y-42452168D01*
X171291479Y-42569207D01*
X171168851Y-42664020D01*
X171032693Y-42738115D01*
X170886972Y-42792207D01*
X170744739Y-42823751D01*
X170604596Y-42834103D01*
X170424162Y-42822013D01*
X170290989Y-42795818D01*
X170286775Y-42783728D01*
X170318267Y-42709182D01*
X170360781Y-42547606D01*
X170391505Y-42380602D01*
X170399616Y-42279061D01*
X170520516Y-42254515D01*
X170573616Y-42323913D01*
X170671092Y-42410036D01*
X170780772Y-42475800D01*
X170864715Y-42494117D01*
X170937970Y-42480906D01*
X170996843Y-42442174D01*
X171044966Y-42373400D01*
X171089022Y-42246362D01*
X171104501Y-42095329D01*
X171096257Y-41676392D01*
X171088197Y-41347030D01*
G37*
G36*
X173507825Y-40168584D02*
G01*
X173713930Y-40222292D01*
X173894615Y-40311788D01*
X174029553Y-40425624D01*
X174133211Y-40565382D01*
X174206873Y-40724577D01*
X174250218Y-40898633D01*
X174265308Y-41096254D01*
X174247004Y-41312001D01*
X174195104Y-41495018D01*
X174111929Y-41651348D01*
X173996763Y-41785385D01*
X173856075Y-41891477D01*
X173688625Y-41969671D01*
X173489138Y-42019240D01*
X173250846Y-42036894D01*
X173016519Y-42019978D01*
X172818445Y-41972313D01*
X172650504Y-41896920D01*
X172507859Y-41794544D01*
X172389780Y-41664522D01*
X172305216Y-41513965D01*
X172252788Y-41338809D01*
X172234368Y-41133257D01*
X172242382Y-41036536D01*
X172830626Y-41036536D01*
X172835755Y-41209460D01*
X172856271Y-41385132D01*
X172876897Y-41478859D01*
X172905364Y-41555675D01*
X172989445Y-41693428D01*
X173046874Y-41750153D01*
X173121519Y-41793079D01*
X173207368Y-41818969D01*
X173308182Y-41828066D01*
X173411022Y-41813296D01*
X173493988Y-41770998D01*
X173562136Y-41699385D01*
X173616591Y-41590745D01*
X173654347Y-41432679D01*
X173668867Y-41209277D01*
X173655812Y-40898811D01*
X173622823Y-40688807D01*
X173577643Y-40553485D01*
X173522672Y-40469240D01*
X173449123Y-40409552D01*
X173353298Y-40371904D01*
X173228314Y-40358213D01*
X173128586Y-40367998D01*
X173048796Y-40395216D01*
X172981105Y-40438283D01*
X172932109Y-40489738D01*
X172896097Y-40553436D01*
X172866530Y-40641962D01*
X172836671Y-40823862D01*
X172830626Y-41036536D01*
X172242382Y-41036536D01*
X172253848Y-40898160D01*
X172308537Y-40702933D01*
X172395222Y-40540103D01*
X172514087Y-40404192D01*
X172660470Y-40295710D01*
X172830264Y-40216541D01*
X173027898Y-40166896D01*
X173259089Y-40149385D01*
X173507825Y-40168584D01*
G37*
G36*
X174517916Y-40184007D02*
G01*
X174888860Y-40196280D01*
X175153192Y-40184007D01*
X175348657Y-40730439D01*
X175647051Y-41473060D01*
X175686069Y-41477090D01*
X175921413Y-40899556D01*
X176167655Y-40184007D01*
X176230125Y-40191898D01*
X176431987Y-40196280D01*
X176612238Y-40184007D01*
X175918527Y-41648182D01*
X175509444Y-42570472D01*
X175353960Y-42983579D01*
X175277615Y-42969114D01*
X175148979Y-42963063D01*
X174962923Y-42969618D01*
X174878602Y-42983579D01*
X175010676Y-42747641D01*
X175110144Y-42540095D01*
X175212543Y-42304157D01*
X175306882Y-42084338D01*
X175296624Y-42055579D01*
X174921650Y-41127944D01*
X174517916Y-40184007D01*
G37*
G36*
X178410037Y-40167195D02*
G01*
X178563306Y-40218195D01*
X178696118Y-40301427D01*
X178835558Y-40441958D01*
X178934184Y-40603415D01*
X178994771Y-40789967D01*
X179015954Y-41007960D01*
X178998090Y-41225088D01*
X178946565Y-41417233D01*
X178862700Y-41588843D01*
X178745394Y-41743253D01*
X178600442Y-41872882D01*
X178442594Y-41963464D01*
X178268925Y-42018137D01*
X178075130Y-42036894D01*
X177902117Y-42023180D01*
X177753974Y-41984222D01*
X177626334Y-41921856D01*
X177626334Y-42132515D01*
X177638727Y-42641739D01*
X177669382Y-42968742D01*
X177661322Y-42981015D01*
X177345699Y-42974787D01*
X177034106Y-42974787D01*
X177030076Y-42962513D01*
X177060468Y-42650881D01*
X177073124Y-42130683D01*
X177073124Y-41018035D01*
X177067509Y-40812688D01*
X177626334Y-40812688D01*
X177626334Y-41676575D01*
X177754053Y-41763526D01*
X177877372Y-41812320D01*
X177999476Y-41828066D01*
X178110120Y-41808652D01*
X178208688Y-41749846D01*
X178299528Y-41643785D01*
X178363521Y-41515403D01*
X178404650Y-41356696D01*
X178419513Y-41160551D01*
X178404364Y-40882128D01*
X178365501Y-40689524D01*
X178310796Y-40561376D01*
X178244759Y-40480385D01*
X178167625Y-40434571D01*
X178075130Y-40419030D01*
X178003535Y-40429899D01*
X177922409Y-40465582D01*
X177828201Y-40533152D01*
X177710876Y-40659839D01*
X177626334Y-40812688D01*
X177067509Y-40812688D01*
X177058973Y-40500516D01*
X177025863Y-40208553D01*
X177034106Y-40196280D01*
X177388304Y-40188468D01*
X177581271Y-40170451D01*
X177604883Y-40180114D01*
X177618274Y-40213682D01*
X177626334Y-40482960D01*
X177642821Y-40495416D01*
X177780695Y-40336368D01*
X177922816Y-40230730D01*
X178071506Y-40169721D01*
X178231018Y-40149385D01*
X178410037Y-40167195D01*
G37*
G36*
X180446919Y-40160187D02*
G01*
X180629239Y-40193715D01*
X180797578Y-40250954D01*
X180904928Y-40320111D01*
X180973012Y-40399971D01*
X181025290Y-40507148D01*
X181060013Y-40648768D01*
X181072906Y-40833937D01*
X181064663Y-41220635D01*
X181056603Y-41662470D01*
X181072685Y-41745600D01*
X181113939Y-41787034D01*
X181182102Y-41806252D01*
X181312691Y-41814694D01*
X181336997Y-41845871D01*
X181353724Y-41901706D01*
X181256877Y-41958526D01*
X181128227Y-42002456D01*
X180990760Y-42028375D01*
X180855652Y-42036894D01*
X180730315Y-42021666D01*
X180644626Y-41981390D01*
X180579352Y-41912249D01*
X180523726Y-41798757D01*
X180515483Y-41798757D01*
X180387158Y-41904062D01*
X180250049Y-41977607D01*
X180101944Y-42021820D01*
X179939741Y-42036894D01*
X179787964Y-42022564D01*
X179654551Y-41981167D01*
X179535825Y-41913246D01*
X179440610Y-41820391D01*
X179384973Y-41711652D01*
X179365832Y-41581503D01*
X179370020Y-41551095D01*
X179927468Y-41551095D01*
X179943090Y-41634861D01*
X179991948Y-41715043D01*
X180063863Y-41772258D01*
X180146737Y-41790697D01*
X180251830Y-41775685D01*
X180353929Y-41729583D01*
X180456132Y-41647449D01*
X180499180Y-41563551D01*
X180519696Y-41459138D01*
X180527756Y-41068044D01*
X180191800Y-41156154D01*
X180120327Y-41182652D01*
X180061557Y-41219535D01*
X180013475Y-41266489D01*
X179979675Y-41318820D01*
X179939741Y-41432393D01*
X179927468Y-41551095D01*
X179370020Y-41551095D01*
X179384486Y-41446063D01*
X179439944Y-41324273D01*
X179535825Y-41211842D01*
X179657055Y-41121467D01*
X179813187Y-41044258D01*
X180011366Y-40981948D01*
X180503210Y-40852255D01*
X180520650Y-40837134D01*
X180527756Y-40800598D01*
X180517688Y-40644096D01*
X180492058Y-40538100D01*
X180455949Y-40469038D01*
X180401604Y-40416292D01*
X180331004Y-40383824D01*
X180238878Y-40372135D01*
X180101499Y-40393088D01*
X179964288Y-40458414D01*
X179840153Y-40559769D01*
X179722487Y-40702962D01*
X179583086Y-40702962D01*
X179499005Y-40387705D01*
X179511278Y-40369387D01*
X179616930Y-40303689D01*
X179830015Y-40222841D01*
X180063030Y-40167053D01*
X180275697Y-40149385D01*
X180446919Y-40160187D01*
G37*
G36*
X183544094Y-39070590D02*
G01*
X183555757Y-39104515D01*
X183517116Y-39505921D01*
X183504466Y-39892747D01*
X183504466Y-41184731D01*
X183523423Y-41558892D01*
X183584333Y-41989450D01*
X183576090Y-42001723D01*
X183285197Y-41989450D01*
X183018667Y-42001723D01*
X182986355Y-41997448D01*
X182979832Y-41989450D01*
X182959316Y-41763953D01*
X182951072Y-41763953D01*
X182861170Y-41877867D01*
X182737467Y-41961892D01*
X182571546Y-42016624D01*
X182350601Y-42036894D01*
X182182538Y-42020493D01*
X182035210Y-41973105D01*
X181904351Y-41895205D01*
X181787133Y-41784286D01*
X181693910Y-41652572D01*
X181626420Y-41503750D01*
X181584515Y-41334677D01*
X181569879Y-41141317D01*
X181577299Y-41063098D01*
X182166137Y-41063098D01*
X182182049Y-41331291D01*
X182223124Y-41518806D01*
X182281601Y-41645506D01*
X182353411Y-41727224D01*
X182438993Y-41774445D01*
X182543309Y-41790697D01*
X182670282Y-41769976D01*
X182777965Y-41708815D01*
X182865561Y-41607710D01*
X182951072Y-41434408D01*
X182951072Y-40719815D01*
X182918736Y-40616375D01*
X182870938Y-40529947D01*
X182807641Y-40457864D01*
X182730499Y-40402279D01*
X182646007Y-40369400D01*
X182551552Y-40358213D01*
X182443458Y-40374444D01*
X182355458Y-40421287D01*
X182282333Y-40501539D01*
X182223291Y-40624742D01*
X182182058Y-40805684D01*
X182166137Y-41063098D01*
X181577299Y-41063098D01*
X181592256Y-40905429D01*
X181657990Y-40689590D01*
X181727555Y-40557923D01*
X181817912Y-40443469D01*
X181930565Y-40344474D01*
X182079625Y-40251019D01*
X182214314Y-40193532D01*
X182359728Y-40161493D01*
X182555582Y-40149385D01*
X182653574Y-40161881D01*
X182772836Y-40203790D01*
X182881233Y-40267049D01*
X182951072Y-40338063D01*
X182951072Y-40001741D01*
X182936331Y-39520007D01*
X182899965Y-39212042D01*
X182908025Y-39199769D01*
X183033662Y-39188650D01*
X183221632Y-39148112D01*
X183508496Y-39059085D01*
X183544094Y-39070590D01*
G37*
D10*
X123256265Y-77324800D02*
X123399122Y-77372419D01*
X123399122Y-77372419D02*
X123637217Y-77372419D01*
X123637217Y-77372419D02*
X123732455Y-77324800D01*
X123732455Y-77324800D02*
X123780074Y-77277180D01*
X123780074Y-77277180D02*
X123827693Y-77181942D01*
X123827693Y-77181942D02*
X123827693Y-77086704D01*
X123827693Y-77086704D02*
X123780074Y-76991466D01*
X123780074Y-76991466D02*
X123732455Y-76943847D01*
X123732455Y-76943847D02*
X123637217Y-76896228D01*
X123637217Y-76896228D02*
X123446741Y-76848609D01*
X123446741Y-76848609D02*
X123351503Y-76800990D01*
X123351503Y-76800990D02*
X123303884Y-76753371D01*
X123303884Y-76753371D02*
X123256265Y-76658133D01*
X123256265Y-76658133D02*
X123256265Y-76562895D01*
X123256265Y-76562895D02*
X123303884Y-76467657D01*
X123303884Y-76467657D02*
X123351503Y-76420038D01*
X123351503Y-76420038D02*
X123446741Y-76372419D01*
X123446741Y-76372419D02*
X123684836Y-76372419D01*
X123684836Y-76372419D02*
X123827693Y-76420038D01*
X124113408Y-76372419D02*
X124684836Y-76372419D01*
X124399122Y-77372419D02*
X124399122Y-76372419D01*
X124970551Y-77086704D02*
X125446741Y-77086704D01*
X124875313Y-77372419D02*
X125208646Y-76372419D01*
X125208646Y-76372419D02*
X125541979Y-77372419D01*
X126446741Y-77372419D02*
X126113408Y-76896228D01*
X125875313Y-77372419D02*
X125875313Y-76372419D01*
X125875313Y-76372419D02*
X126256265Y-76372419D01*
X126256265Y-76372419D02*
X126351503Y-76420038D01*
X126351503Y-76420038D02*
X126399122Y-76467657D01*
X126399122Y-76467657D02*
X126446741Y-76562895D01*
X126446741Y-76562895D02*
X126446741Y-76705752D01*
X126446741Y-76705752D02*
X126399122Y-76800990D01*
X126399122Y-76800990D02*
X126351503Y-76848609D01*
X126351503Y-76848609D02*
X126256265Y-76896228D01*
X126256265Y-76896228D02*
X125875313Y-76896228D01*
X126732456Y-76372419D02*
X127303884Y-76372419D01*
X127018170Y-77372419D02*
X127018170Y-76372419D01*
X151137217Y-82348609D02*
X151280074Y-82396228D01*
X151280074Y-82396228D02*
X151327693Y-82443847D01*
X151327693Y-82443847D02*
X151375312Y-82539085D01*
X151375312Y-82539085D02*
X151375312Y-82681942D01*
X151375312Y-82681942D02*
X151327693Y-82777180D01*
X151327693Y-82777180D02*
X151280074Y-82824800D01*
X151280074Y-82824800D02*
X151184836Y-82872419D01*
X151184836Y-82872419D02*
X150803884Y-82872419D01*
X150803884Y-82872419D02*
X150803884Y-81872419D01*
X150803884Y-81872419D02*
X151137217Y-81872419D01*
X151137217Y-81872419D02*
X151232455Y-81920038D01*
X151232455Y-81920038D02*
X151280074Y-81967657D01*
X151280074Y-81967657D02*
X151327693Y-82062895D01*
X151327693Y-82062895D02*
X151327693Y-82158133D01*
X151327693Y-82158133D02*
X151280074Y-82253371D01*
X151280074Y-82253371D02*
X151232455Y-82300990D01*
X151232455Y-82300990D02*
X151137217Y-82348609D01*
X151137217Y-82348609D02*
X150803884Y-82348609D01*
D13*
X133683333Y-41880892D02*
X133350000Y-41404701D01*
X133111905Y-41880892D02*
X133111905Y-40880892D01*
X133111905Y-40880892D02*
X133492857Y-40880892D01*
X133492857Y-40880892D02*
X133588095Y-40928511D01*
X133588095Y-40928511D02*
X133635714Y-40976130D01*
X133635714Y-40976130D02*
X133683333Y-41071368D01*
X133683333Y-41071368D02*
X133683333Y-41214225D01*
X133683333Y-41214225D02*
X133635714Y-41309463D01*
X133635714Y-41309463D02*
X133588095Y-41357082D01*
X133588095Y-41357082D02*
X133492857Y-41404701D01*
X133492857Y-41404701D02*
X133111905Y-41404701D01*
X134540476Y-41214225D02*
X134540476Y-41880892D01*
X134302381Y-40833273D02*
X134064286Y-41547558D01*
X134064286Y-41547558D02*
X134683333Y-41547558D01*
X102916667Y-60607200D02*
X103059524Y-60654819D01*
X103059524Y-60654819D02*
X103297619Y-60654819D01*
X103297619Y-60654819D02*
X103392857Y-60607200D01*
X103392857Y-60607200D02*
X103440476Y-60559580D01*
X103440476Y-60559580D02*
X103488095Y-60464342D01*
X103488095Y-60464342D02*
X103488095Y-60369104D01*
X103488095Y-60369104D02*
X103440476Y-60273866D01*
X103440476Y-60273866D02*
X103392857Y-60226247D01*
X103392857Y-60226247D02*
X103297619Y-60178628D01*
X103297619Y-60178628D02*
X103107143Y-60131009D01*
X103107143Y-60131009D02*
X103011905Y-60083390D01*
X103011905Y-60083390D02*
X102964286Y-60035771D01*
X102964286Y-60035771D02*
X102916667Y-59940533D01*
X102916667Y-59940533D02*
X102916667Y-59845295D01*
X102916667Y-59845295D02*
X102964286Y-59750057D01*
X102964286Y-59750057D02*
X103011905Y-59702438D01*
X103011905Y-59702438D02*
X103107143Y-59654819D01*
X103107143Y-59654819D02*
X103345238Y-59654819D01*
X103345238Y-59654819D02*
X103488095Y-59702438D01*
X103821429Y-59654819D02*
X104059524Y-60654819D01*
X104059524Y-60654819D02*
X104250000Y-59940533D01*
X104250000Y-59940533D02*
X104440476Y-60654819D01*
X104440476Y-60654819D02*
X104678572Y-59654819D01*
X104964286Y-59654819D02*
X105583333Y-59654819D01*
X105583333Y-59654819D02*
X105250000Y-60035771D01*
X105250000Y-60035771D02*
X105392857Y-60035771D01*
X105392857Y-60035771D02*
X105488095Y-60083390D01*
X105488095Y-60083390D02*
X105535714Y-60131009D01*
X105535714Y-60131009D02*
X105583333Y-60226247D01*
X105583333Y-60226247D02*
X105583333Y-60464342D01*
X105583333Y-60464342D02*
X105535714Y-60559580D01*
X105535714Y-60559580D02*
X105488095Y-60607200D01*
X105488095Y-60607200D02*
X105392857Y-60654819D01*
X105392857Y-60654819D02*
X105107143Y-60654819D01*
X105107143Y-60654819D02*
X105011905Y-60607200D01*
X105011905Y-60607200D02*
X104964286Y-60559580D01*
X123916667Y-60607200D02*
X124059524Y-60654819D01*
X124059524Y-60654819D02*
X124297619Y-60654819D01*
X124297619Y-60654819D02*
X124392857Y-60607200D01*
X124392857Y-60607200D02*
X124440476Y-60559580D01*
X124440476Y-60559580D02*
X124488095Y-60464342D01*
X124488095Y-60464342D02*
X124488095Y-60369104D01*
X124488095Y-60369104D02*
X124440476Y-60273866D01*
X124440476Y-60273866D02*
X124392857Y-60226247D01*
X124392857Y-60226247D02*
X124297619Y-60178628D01*
X124297619Y-60178628D02*
X124107143Y-60131009D01*
X124107143Y-60131009D02*
X124011905Y-60083390D01*
X124011905Y-60083390D02*
X123964286Y-60035771D01*
X123964286Y-60035771D02*
X123916667Y-59940533D01*
X123916667Y-59940533D02*
X123916667Y-59845295D01*
X123916667Y-59845295D02*
X123964286Y-59750057D01*
X123964286Y-59750057D02*
X124011905Y-59702438D01*
X124011905Y-59702438D02*
X124107143Y-59654819D01*
X124107143Y-59654819D02*
X124345238Y-59654819D01*
X124345238Y-59654819D02*
X124488095Y-59702438D01*
X124821429Y-59654819D02*
X125059524Y-60654819D01*
X125059524Y-60654819D02*
X125250000Y-59940533D01*
X125250000Y-59940533D02*
X125440476Y-60654819D01*
X125440476Y-60654819D02*
X125678572Y-59654819D01*
X126488095Y-59988152D02*
X126488095Y-60654819D01*
X126250000Y-59607200D02*
X126011905Y-60321485D01*
X126011905Y-60321485D02*
X126630952Y-60321485D01*
D10*
X75666666Y-22457419D02*
X75666666Y-23171704D01*
X75666666Y-23171704D02*
X75619047Y-23314561D01*
X75619047Y-23314561D02*
X75523809Y-23409800D01*
X75523809Y-23409800D02*
X75380952Y-23457419D01*
X75380952Y-23457419D02*
X75285714Y-23457419D01*
X76666666Y-23457419D02*
X76095238Y-23457419D01*
X76380952Y-23457419D02*
X76380952Y-22457419D01*
X76380952Y-22457419D02*
X76285714Y-22600276D01*
X76285714Y-22600276D02*
X76190476Y-22695514D01*
X76190476Y-22695514D02*
X76095238Y-22743133D01*
D13*
X133665476Y-47844564D02*
X133617857Y-47892184D01*
X133617857Y-47892184D02*
X133475000Y-47939803D01*
X133475000Y-47939803D02*
X133379762Y-47939803D01*
X133379762Y-47939803D02*
X133236905Y-47892184D01*
X133236905Y-47892184D02*
X133141667Y-47796945D01*
X133141667Y-47796945D02*
X133094048Y-47701707D01*
X133094048Y-47701707D02*
X133046429Y-47511231D01*
X133046429Y-47511231D02*
X133046429Y-47368374D01*
X133046429Y-47368374D02*
X133094048Y-47177898D01*
X133094048Y-47177898D02*
X133141667Y-47082660D01*
X133141667Y-47082660D02*
X133236905Y-46987422D01*
X133236905Y-46987422D02*
X133379762Y-46939803D01*
X133379762Y-46939803D02*
X133475000Y-46939803D01*
X133475000Y-46939803D02*
X133617857Y-46987422D01*
X133617857Y-46987422D02*
X133665476Y-47035041D01*
X134617857Y-47939803D02*
X134046429Y-47939803D01*
X134332143Y-47939803D02*
X134332143Y-46939803D01*
X134332143Y-46939803D02*
X134236905Y-47082660D01*
X134236905Y-47082660D02*
X134141667Y-47177898D01*
X134141667Y-47177898D02*
X134046429Y-47225517D01*
X149466667Y-66107200D02*
X149609524Y-66154819D01*
X149609524Y-66154819D02*
X149847619Y-66154819D01*
X149847619Y-66154819D02*
X149942857Y-66107200D01*
X149942857Y-66107200D02*
X149990476Y-66059580D01*
X149990476Y-66059580D02*
X150038095Y-65964342D01*
X150038095Y-65964342D02*
X150038095Y-65869104D01*
X150038095Y-65869104D02*
X149990476Y-65773866D01*
X149990476Y-65773866D02*
X149942857Y-65726247D01*
X149942857Y-65726247D02*
X149847619Y-65678628D01*
X149847619Y-65678628D02*
X149657143Y-65631009D01*
X149657143Y-65631009D02*
X149561905Y-65583390D01*
X149561905Y-65583390D02*
X149514286Y-65535771D01*
X149514286Y-65535771D02*
X149466667Y-65440533D01*
X149466667Y-65440533D02*
X149466667Y-65345295D01*
X149466667Y-65345295D02*
X149514286Y-65250057D01*
X149514286Y-65250057D02*
X149561905Y-65202438D01*
X149561905Y-65202438D02*
X149657143Y-65154819D01*
X149657143Y-65154819D02*
X149895238Y-65154819D01*
X149895238Y-65154819D02*
X150038095Y-65202438D01*
X150371429Y-65154819D02*
X150609524Y-66154819D01*
X150609524Y-66154819D02*
X150800000Y-65440533D01*
X150800000Y-65440533D02*
X150990476Y-66154819D01*
X150990476Y-66154819D02*
X151228572Y-65154819D01*
X151561905Y-65250057D02*
X151609524Y-65202438D01*
X151609524Y-65202438D02*
X151704762Y-65154819D01*
X151704762Y-65154819D02*
X151942857Y-65154819D01*
X151942857Y-65154819D02*
X152038095Y-65202438D01*
X152038095Y-65202438D02*
X152085714Y-65250057D01*
X152085714Y-65250057D02*
X152133333Y-65345295D01*
X152133333Y-65345295D02*
X152133333Y-65440533D01*
X152133333Y-65440533D02*
X152085714Y-65583390D01*
X152085714Y-65583390D02*
X151514286Y-66154819D01*
X151514286Y-66154819D02*
X152133333Y-66154819D01*
X75666667Y-56107200D02*
X75809524Y-56154819D01*
X75809524Y-56154819D02*
X76047619Y-56154819D01*
X76047619Y-56154819D02*
X76142857Y-56107200D01*
X76142857Y-56107200D02*
X76190476Y-56059580D01*
X76190476Y-56059580D02*
X76238095Y-55964342D01*
X76238095Y-55964342D02*
X76238095Y-55869104D01*
X76238095Y-55869104D02*
X76190476Y-55773866D01*
X76190476Y-55773866D02*
X76142857Y-55726247D01*
X76142857Y-55726247D02*
X76047619Y-55678628D01*
X76047619Y-55678628D02*
X75857143Y-55631009D01*
X75857143Y-55631009D02*
X75761905Y-55583390D01*
X75761905Y-55583390D02*
X75714286Y-55535771D01*
X75714286Y-55535771D02*
X75666667Y-55440533D01*
X75666667Y-55440533D02*
X75666667Y-55345295D01*
X75666667Y-55345295D02*
X75714286Y-55250057D01*
X75714286Y-55250057D02*
X75761905Y-55202438D01*
X75761905Y-55202438D02*
X75857143Y-55154819D01*
X75857143Y-55154819D02*
X76095238Y-55154819D01*
X76095238Y-55154819D02*
X76238095Y-55202438D01*
X76571429Y-55154819D02*
X76809524Y-56154819D01*
X76809524Y-56154819D02*
X77000000Y-55440533D01*
X77000000Y-55440533D02*
X77190476Y-56154819D01*
X77190476Y-56154819D02*
X77428572Y-55154819D01*
X77952381Y-55583390D02*
X77857143Y-55535771D01*
X77857143Y-55535771D02*
X77809524Y-55488152D01*
X77809524Y-55488152D02*
X77761905Y-55392914D01*
X77761905Y-55392914D02*
X77761905Y-55345295D01*
X77761905Y-55345295D02*
X77809524Y-55250057D01*
X77809524Y-55250057D02*
X77857143Y-55202438D01*
X77857143Y-55202438D02*
X77952381Y-55154819D01*
X77952381Y-55154819D02*
X78142857Y-55154819D01*
X78142857Y-55154819D02*
X78238095Y-55202438D01*
X78238095Y-55202438D02*
X78285714Y-55250057D01*
X78285714Y-55250057D02*
X78333333Y-55345295D01*
X78333333Y-55345295D02*
X78333333Y-55392914D01*
X78333333Y-55392914D02*
X78285714Y-55488152D01*
X78285714Y-55488152D02*
X78238095Y-55535771D01*
X78238095Y-55535771D02*
X78142857Y-55583390D01*
X78142857Y-55583390D02*
X77952381Y-55583390D01*
X77952381Y-55583390D02*
X77857143Y-55631009D01*
X77857143Y-55631009D02*
X77809524Y-55678628D01*
X77809524Y-55678628D02*
X77761905Y-55773866D01*
X77761905Y-55773866D02*
X77761905Y-55964342D01*
X77761905Y-55964342D02*
X77809524Y-56059580D01*
X77809524Y-56059580D02*
X77857143Y-56107200D01*
X77857143Y-56107200D02*
X77952381Y-56154819D01*
X77952381Y-56154819D02*
X78142857Y-56154819D01*
X78142857Y-56154819D02*
X78238095Y-56107200D01*
X78238095Y-56107200D02*
X78285714Y-56059580D01*
X78285714Y-56059580D02*
X78333333Y-55964342D01*
X78333333Y-55964342D02*
X78333333Y-55773866D01*
X78333333Y-55773866D02*
X78285714Y-55678628D01*
X78285714Y-55678628D02*
X78238095Y-55631009D01*
X78238095Y-55631009D02*
X78142857Y-55583390D01*
X173666667Y-66207200D02*
X173809524Y-66254819D01*
X173809524Y-66254819D02*
X174047619Y-66254819D01*
X174047619Y-66254819D02*
X174142857Y-66207200D01*
X174142857Y-66207200D02*
X174190476Y-66159580D01*
X174190476Y-66159580D02*
X174238095Y-66064342D01*
X174238095Y-66064342D02*
X174238095Y-65969104D01*
X174238095Y-65969104D02*
X174190476Y-65873866D01*
X174190476Y-65873866D02*
X174142857Y-65826247D01*
X174142857Y-65826247D02*
X174047619Y-65778628D01*
X174047619Y-65778628D02*
X173857143Y-65731009D01*
X173857143Y-65731009D02*
X173761905Y-65683390D01*
X173761905Y-65683390D02*
X173714286Y-65635771D01*
X173714286Y-65635771D02*
X173666667Y-65540533D01*
X173666667Y-65540533D02*
X173666667Y-65445295D01*
X173666667Y-65445295D02*
X173714286Y-65350057D01*
X173714286Y-65350057D02*
X173761905Y-65302438D01*
X173761905Y-65302438D02*
X173857143Y-65254819D01*
X173857143Y-65254819D02*
X174095238Y-65254819D01*
X174095238Y-65254819D02*
X174238095Y-65302438D01*
X174571429Y-65254819D02*
X174809524Y-66254819D01*
X174809524Y-66254819D02*
X175000000Y-65540533D01*
X175000000Y-65540533D02*
X175190476Y-66254819D01*
X175190476Y-66254819D02*
X175428572Y-65254819D01*
X176333333Y-66254819D02*
X175761905Y-66254819D01*
X176047619Y-66254819D02*
X176047619Y-65254819D01*
X176047619Y-65254819D02*
X175952381Y-65397676D01*
X175952381Y-65397676D02*
X175857143Y-65492914D01*
X175857143Y-65492914D02*
X175761905Y-65540533D01*
X60666667Y-41107200D02*
X60809524Y-41154819D01*
X60809524Y-41154819D02*
X61047619Y-41154819D01*
X61047619Y-41154819D02*
X61142857Y-41107200D01*
X61142857Y-41107200D02*
X61190476Y-41059580D01*
X61190476Y-41059580D02*
X61238095Y-40964342D01*
X61238095Y-40964342D02*
X61238095Y-40869104D01*
X61238095Y-40869104D02*
X61190476Y-40773866D01*
X61190476Y-40773866D02*
X61142857Y-40726247D01*
X61142857Y-40726247D02*
X61047619Y-40678628D01*
X61047619Y-40678628D02*
X60857143Y-40631009D01*
X60857143Y-40631009D02*
X60761905Y-40583390D01*
X60761905Y-40583390D02*
X60714286Y-40535771D01*
X60714286Y-40535771D02*
X60666667Y-40440533D01*
X60666667Y-40440533D02*
X60666667Y-40345295D01*
X60666667Y-40345295D02*
X60714286Y-40250057D01*
X60714286Y-40250057D02*
X60761905Y-40202438D01*
X60761905Y-40202438D02*
X60857143Y-40154819D01*
X60857143Y-40154819D02*
X61095238Y-40154819D01*
X61095238Y-40154819D02*
X61238095Y-40202438D01*
X61571429Y-40154819D02*
X61809524Y-41154819D01*
X61809524Y-41154819D02*
X62000000Y-40440533D01*
X62000000Y-40440533D02*
X62190476Y-41154819D01*
X62190476Y-41154819D02*
X62428572Y-40154819D01*
X63285714Y-40154819D02*
X62809524Y-40154819D01*
X62809524Y-40154819D02*
X62761905Y-40631009D01*
X62761905Y-40631009D02*
X62809524Y-40583390D01*
X62809524Y-40583390D02*
X62904762Y-40535771D01*
X62904762Y-40535771D02*
X63142857Y-40535771D01*
X63142857Y-40535771D02*
X63238095Y-40583390D01*
X63238095Y-40583390D02*
X63285714Y-40631009D01*
X63285714Y-40631009D02*
X63333333Y-40726247D01*
X63333333Y-40726247D02*
X63333333Y-40964342D01*
X63333333Y-40964342D02*
X63285714Y-41059580D01*
X63285714Y-41059580D02*
X63238095Y-41107200D01*
X63238095Y-41107200D02*
X63142857Y-41154819D01*
X63142857Y-41154819D02*
X62904762Y-41154819D01*
X62904762Y-41154819D02*
X62809524Y-41107200D01*
X62809524Y-41107200D02*
X62761905Y-41059580D01*
X45666667Y-56107200D02*
X45809524Y-56154819D01*
X45809524Y-56154819D02*
X46047619Y-56154819D01*
X46047619Y-56154819D02*
X46142857Y-56107200D01*
X46142857Y-56107200D02*
X46190476Y-56059580D01*
X46190476Y-56059580D02*
X46238095Y-55964342D01*
X46238095Y-55964342D02*
X46238095Y-55869104D01*
X46238095Y-55869104D02*
X46190476Y-55773866D01*
X46190476Y-55773866D02*
X46142857Y-55726247D01*
X46142857Y-55726247D02*
X46047619Y-55678628D01*
X46047619Y-55678628D02*
X45857143Y-55631009D01*
X45857143Y-55631009D02*
X45761905Y-55583390D01*
X45761905Y-55583390D02*
X45714286Y-55535771D01*
X45714286Y-55535771D02*
X45666667Y-55440533D01*
X45666667Y-55440533D02*
X45666667Y-55345295D01*
X45666667Y-55345295D02*
X45714286Y-55250057D01*
X45714286Y-55250057D02*
X45761905Y-55202438D01*
X45761905Y-55202438D02*
X45857143Y-55154819D01*
X45857143Y-55154819D02*
X46095238Y-55154819D01*
X46095238Y-55154819D02*
X46238095Y-55202438D01*
X46571429Y-55154819D02*
X46809524Y-56154819D01*
X46809524Y-56154819D02*
X47000000Y-55440533D01*
X47000000Y-55440533D02*
X47190476Y-56154819D01*
X47190476Y-56154819D02*
X47428572Y-55154819D01*
X47714286Y-55154819D02*
X48380952Y-55154819D01*
X48380952Y-55154819D02*
X47952381Y-56154819D01*
X133665476Y-46425075D02*
X133332143Y-45948884D01*
X133094048Y-46425075D02*
X133094048Y-45425075D01*
X133094048Y-45425075D02*
X133475000Y-45425075D01*
X133475000Y-45425075D02*
X133570238Y-45472694D01*
X133570238Y-45472694D02*
X133617857Y-45520313D01*
X133617857Y-45520313D02*
X133665476Y-45615551D01*
X133665476Y-45615551D02*
X133665476Y-45758408D01*
X133665476Y-45758408D02*
X133617857Y-45853646D01*
X133617857Y-45853646D02*
X133570238Y-45901265D01*
X133570238Y-45901265D02*
X133475000Y-45948884D01*
X133475000Y-45948884D02*
X133094048Y-45948884D01*
X134617857Y-46425075D02*
X134046429Y-46425075D01*
X134332143Y-46425075D02*
X134332143Y-45425075D01*
X134332143Y-45425075D02*
X134236905Y-45567932D01*
X134236905Y-45567932D02*
X134141667Y-45663170D01*
X134141667Y-45663170D02*
X134046429Y-45710789D01*
X133619110Y-40366164D02*
X133285777Y-39889973D01*
X133047682Y-40366164D02*
X133047682Y-39366164D01*
X133047682Y-39366164D02*
X133428634Y-39366164D01*
X133428634Y-39366164D02*
X133523872Y-39413783D01*
X133523872Y-39413783D02*
X133571491Y-39461402D01*
X133571491Y-39461402D02*
X133619110Y-39556640D01*
X133619110Y-39556640D02*
X133619110Y-39699497D01*
X133619110Y-39699497D02*
X133571491Y-39794735D01*
X133571491Y-39794735D02*
X133523872Y-39842354D01*
X133523872Y-39842354D02*
X133428634Y-39889973D01*
X133428634Y-39889973D02*
X133047682Y-39889973D01*
X134190539Y-39794735D02*
X134095301Y-39747116D01*
X134095301Y-39747116D02*
X134047682Y-39699497D01*
X134047682Y-39699497D02*
X134000063Y-39604259D01*
X134000063Y-39604259D02*
X134000063Y-39556640D01*
X134000063Y-39556640D02*
X134047682Y-39461402D01*
X134047682Y-39461402D02*
X134095301Y-39413783D01*
X134095301Y-39413783D02*
X134190539Y-39366164D01*
X134190539Y-39366164D02*
X134381015Y-39366164D01*
X134381015Y-39366164D02*
X134476253Y-39413783D01*
X134476253Y-39413783D02*
X134523872Y-39461402D01*
X134523872Y-39461402D02*
X134571491Y-39556640D01*
X134571491Y-39556640D02*
X134571491Y-39604259D01*
X134571491Y-39604259D02*
X134523872Y-39699497D01*
X134523872Y-39699497D02*
X134476253Y-39747116D01*
X134476253Y-39747116D02*
X134381015Y-39794735D01*
X134381015Y-39794735D02*
X134190539Y-39794735D01*
X134190539Y-39794735D02*
X134095301Y-39842354D01*
X134095301Y-39842354D02*
X134047682Y-39889973D01*
X134047682Y-39889973D02*
X134000063Y-39985211D01*
X134000063Y-39985211D02*
X134000063Y-40175687D01*
X134000063Y-40175687D02*
X134047682Y-40270925D01*
X134047682Y-40270925D02*
X134095301Y-40318545D01*
X134095301Y-40318545D02*
X134190539Y-40366164D01*
X134190539Y-40366164D02*
X134381015Y-40366164D01*
X134381015Y-40366164D02*
X134476253Y-40318545D01*
X134476253Y-40318545D02*
X134523872Y-40270925D01*
X134523872Y-40270925D02*
X134571491Y-40175687D01*
X134571491Y-40175687D02*
X134571491Y-39985211D01*
X134571491Y-39985211D02*
X134523872Y-39889973D01*
X134523872Y-39889973D02*
X134476253Y-39842354D01*
X134476253Y-39842354D02*
X134381015Y-39794735D01*
X108354819Y-41761904D02*
X109164342Y-41761904D01*
X109164342Y-41761904D02*
X109259580Y-41714285D01*
X109259580Y-41714285D02*
X109307200Y-41666666D01*
X109307200Y-41666666D02*
X109354819Y-41571428D01*
X109354819Y-41571428D02*
X109354819Y-41380952D01*
X109354819Y-41380952D02*
X109307200Y-41285714D01*
X109307200Y-41285714D02*
X109259580Y-41238095D01*
X109259580Y-41238095D02*
X109164342Y-41190476D01*
X109164342Y-41190476D02*
X108354819Y-41190476D01*
X109354819Y-40190476D02*
X109354819Y-40761904D01*
X109354819Y-40476190D02*
X108354819Y-40476190D01*
X108354819Y-40476190D02*
X108497676Y-40571428D01*
X108497676Y-40571428D02*
X108592914Y-40666666D01*
X108592914Y-40666666D02*
X108640533Y-40761904D01*
X117954819Y-24892857D02*
X117478628Y-25226190D01*
X117954819Y-25464285D02*
X116954819Y-25464285D01*
X116954819Y-25464285D02*
X116954819Y-25083333D01*
X116954819Y-25083333D02*
X117002438Y-24988095D01*
X117002438Y-24988095D02*
X117050057Y-24940476D01*
X117050057Y-24940476D02*
X117145295Y-24892857D01*
X117145295Y-24892857D02*
X117288152Y-24892857D01*
X117288152Y-24892857D02*
X117383390Y-24940476D01*
X117383390Y-24940476D02*
X117431009Y-24988095D01*
X117431009Y-24988095D02*
X117478628Y-25083333D01*
X117478628Y-25083333D02*
X117478628Y-25464285D01*
X117954819Y-23940476D02*
X117954819Y-24511904D01*
X117954819Y-24226190D02*
X116954819Y-24226190D01*
X116954819Y-24226190D02*
X117097676Y-24321428D01*
X117097676Y-24321428D02*
X117192914Y-24416666D01*
X117192914Y-24416666D02*
X117240533Y-24511904D01*
X116954819Y-23321428D02*
X116954819Y-23226190D01*
X116954819Y-23226190D02*
X117002438Y-23130952D01*
X117002438Y-23130952D02*
X117050057Y-23083333D01*
X117050057Y-23083333D02*
X117145295Y-23035714D01*
X117145295Y-23035714D02*
X117335771Y-22988095D01*
X117335771Y-22988095D02*
X117573866Y-22988095D01*
X117573866Y-22988095D02*
X117764342Y-23035714D01*
X117764342Y-23035714D02*
X117859580Y-23083333D01*
X117859580Y-23083333D02*
X117907200Y-23130952D01*
X117907200Y-23130952D02*
X117954819Y-23226190D01*
X117954819Y-23226190D02*
X117954819Y-23321428D01*
X117954819Y-23321428D02*
X117907200Y-23416666D01*
X117907200Y-23416666D02*
X117859580Y-23464285D01*
X117859580Y-23464285D02*
X117764342Y-23511904D01*
X117764342Y-23511904D02*
X117573866Y-23559523D01*
X117573866Y-23559523D02*
X117335771Y-23559523D01*
X117335771Y-23559523D02*
X117145295Y-23511904D01*
X117145295Y-23511904D02*
X117050057Y-23464285D01*
X117050057Y-23464285D02*
X117002438Y-23416666D01*
X117002438Y-23416666D02*
X116954819Y-23321428D01*
X133677556Y-44910348D02*
X133344223Y-44434157D01*
X133106128Y-44910348D02*
X133106128Y-43910348D01*
X133106128Y-43910348D02*
X133487080Y-43910348D01*
X133487080Y-43910348D02*
X133582318Y-43957967D01*
X133582318Y-43957967D02*
X133629937Y-44005586D01*
X133629937Y-44005586D02*
X133677556Y-44100824D01*
X133677556Y-44100824D02*
X133677556Y-44243681D01*
X133677556Y-44243681D02*
X133629937Y-44338919D01*
X133629937Y-44338919D02*
X133582318Y-44386538D01*
X133582318Y-44386538D02*
X133487080Y-44434157D01*
X133487080Y-44434157D02*
X133106128Y-44434157D01*
X134058509Y-44005586D02*
X134106128Y-43957967D01*
X134106128Y-43957967D02*
X134201366Y-43910348D01*
X134201366Y-43910348D02*
X134439461Y-43910348D01*
X134439461Y-43910348D02*
X134534699Y-43957967D01*
X134534699Y-43957967D02*
X134582318Y-44005586D01*
X134582318Y-44005586D02*
X134629937Y-44100824D01*
X134629937Y-44100824D02*
X134629937Y-44196062D01*
X134629937Y-44196062D02*
X134582318Y-44338919D01*
X134582318Y-44338919D02*
X134010890Y-44910348D01*
X134010890Y-44910348D02*
X134629937Y-44910348D01*
X133622392Y-38851437D02*
X133289059Y-38375246D01*
X133050964Y-38851437D02*
X133050964Y-37851437D01*
X133050964Y-37851437D02*
X133431916Y-37851437D01*
X133431916Y-37851437D02*
X133527154Y-37899056D01*
X133527154Y-37899056D02*
X133574773Y-37946675D01*
X133574773Y-37946675D02*
X133622392Y-38041913D01*
X133622392Y-38041913D02*
X133622392Y-38184770D01*
X133622392Y-38184770D02*
X133574773Y-38280008D01*
X133574773Y-38280008D02*
X133527154Y-38327627D01*
X133527154Y-38327627D02*
X133431916Y-38375246D01*
X133431916Y-38375246D02*
X133050964Y-38375246D01*
X133955726Y-37851437D02*
X134622392Y-37851437D01*
X134622392Y-37851437D02*
X134193821Y-38851437D01*
X133619110Y-43395620D02*
X133285777Y-42919429D01*
X133047682Y-43395620D02*
X133047682Y-42395620D01*
X133047682Y-42395620D02*
X133428634Y-42395620D01*
X133428634Y-42395620D02*
X133523872Y-42443239D01*
X133523872Y-42443239D02*
X133571491Y-42490858D01*
X133571491Y-42490858D02*
X133619110Y-42586096D01*
X133619110Y-42586096D02*
X133619110Y-42728953D01*
X133619110Y-42728953D02*
X133571491Y-42824191D01*
X133571491Y-42824191D02*
X133523872Y-42871810D01*
X133523872Y-42871810D02*
X133428634Y-42919429D01*
X133428634Y-42919429D02*
X133047682Y-42919429D01*
X133952444Y-42395620D02*
X134571491Y-42395620D01*
X134571491Y-42395620D02*
X134238158Y-42776572D01*
X134238158Y-42776572D02*
X134381015Y-42776572D01*
X134381015Y-42776572D02*
X134476253Y-42824191D01*
X134476253Y-42824191D02*
X134523872Y-42871810D01*
X134523872Y-42871810D02*
X134571491Y-42967048D01*
X134571491Y-42967048D02*
X134571491Y-43205143D01*
X134571491Y-43205143D02*
X134523872Y-43300381D01*
X134523872Y-43300381D02*
X134476253Y-43348001D01*
X134476253Y-43348001D02*
X134381015Y-43395620D01*
X134381015Y-43395620D02*
X134095301Y-43395620D01*
X134095301Y-43395620D02*
X134000063Y-43348001D01*
X134000063Y-43348001D02*
X133952444Y-43300381D01*
X60666667Y-71107200D02*
X60809524Y-71154819D01*
X60809524Y-71154819D02*
X61047619Y-71154819D01*
X61047619Y-71154819D02*
X61142857Y-71107200D01*
X61142857Y-71107200D02*
X61190476Y-71059580D01*
X61190476Y-71059580D02*
X61238095Y-70964342D01*
X61238095Y-70964342D02*
X61238095Y-70869104D01*
X61238095Y-70869104D02*
X61190476Y-70773866D01*
X61190476Y-70773866D02*
X61142857Y-70726247D01*
X61142857Y-70726247D02*
X61047619Y-70678628D01*
X61047619Y-70678628D02*
X60857143Y-70631009D01*
X60857143Y-70631009D02*
X60761905Y-70583390D01*
X60761905Y-70583390D02*
X60714286Y-70535771D01*
X60714286Y-70535771D02*
X60666667Y-70440533D01*
X60666667Y-70440533D02*
X60666667Y-70345295D01*
X60666667Y-70345295D02*
X60714286Y-70250057D01*
X60714286Y-70250057D02*
X60761905Y-70202438D01*
X60761905Y-70202438D02*
X60857143Y-70154819D01*
X60857143Y-70154819D02*
X61095238Y-70154819D01*
X61095238Y-70154819D02*
X61238095Y-70202438D01*
X61571429Y-70154819D02*
X61809524Y-71154819D01*
X61809524Y-71154819D02*
X62000000Y-70440533D01*
X62000000Y-70440533D02*
X62190476Y-71154819D01*
X62190476Y-71154819D02*
X62428572Y-70154819D01*
X63238095Y-70154819D02*
X63047619Y-70154819D01*
X63047619Y-70154819D02*
X62952381Y-70202438D01*
X62952381Y-70202438D02*
X62904762Y-70250057D01*
X62904762Y-70250057D02*
X62809524Y-70392914D01*
X62809524Y-70392914D02*
X62761905Y-70583390D01*
X62761905Y-70583390D02*
X62761905Y-70964342D01*
X62761905Y-70964342D02*
X62809524Y-71059580D01*
X62809524Y-71059580D02*
X62857143Y-71107200D01*
X62857143Y-71107200D02*
X62952381Y-71154819D01*
X62952381Y-71154819D02*
X63142857Y-71154819D01*
X63142857Y-71154819D02*
X63238095Y-71107200D01*
X63238095Y-71107200D02*
X63285714Y-71059580D01*
X63285714Y-71059580D02*
X63333333Y-70964342D01*
X63333333Y-70964342D02*
X63333333Y-70726247D01*
X63333333Y-70726247D02*
X63285714Y-70631009D01*
X63285714Y-70631009D02*
X63238095Y-70583390D01*
X63238095Y-70583390D02*
X63142857Y-70535771D01*
X63142857Y-70535771D02*
X62952381Y-70535771D01*
X62952381Y-70535771D02*
X62857143Y-70583390D01*
X62857143Y-70583390D02*
X62809524Y-70631009D01*
X62809524Y-70631009D02*
X62761905Y-70726247D01*
X119987392Y-24909133D02*
X119511201Y-25242466D01*
X119987392Y-25480561D02*
X118987392Y-25480561D01*
X118987392Y-25480561D02*
X118987392Y-25099609D01*
X118987392Y-25099609D02*
X119035011Y-25004371D01*
X119035011Y-25004371D02*
X119082630Y-24956752D01*
X119082630Y-24956752D02*
X119177868Y-24909133D01*
X119177868Y-24909133D02*
X119320725Y-24909133D01*
X119320725Y-24909133D02*
X119415963Y-24956752D01*
X119415963Y-24956752D02*
X119463582Y-25004371D01*
X119463582Y-25004371D02*
X119511201Y-25099609D01*
X119511201Y-25099609D02*
X119511201Y-25480561D01*
X119987392Y-24432942D02*
X119987392Y-24242466D01*
X119987392Y-24242466D02*
X119939773Y-24147228D01*
X119939773Y-24147228D02*
X119892153Y-24099609D01*
X119892153Y-24099609D02*
X119749296Y-24004371D01*
X119749296Y-24004371D02*
X119558820Y-23956752D01*
X119558820Y-23956752D02*
X119177868Y-23956752D01*
X119177868Y-23956752D02*
X119082630Y-24004371D01*
X119082630Y-24004371D02*
X119035011Y-24051990D01*
X119035011Y-24051990D02*
X118987392Y-24147228D01*
X118987392Y-24147228D02*
X118987392Y-24337704D01*
X118987392Y-24337704D02*
X119035011Y-24432942D01*
X119035011Y-24432942D02*
X119082630Y-24480561D01*
X119082630Y-24480561D02*
X119177868Y-24528180D01*
X119177868Y-24528180D02*
X119415963Y-24528180D01*
X119415963Y-24528180D02*
X119511201Y-24480561D01*
X119511201Y-24480561D02*
X119558820Y-24432942D01*
X119558820Y-24432942D02*
X119606439Y-24337704D01*
X119606439Y-24337704D02*
X119606439Y-24147228D01*
X119606439Y-24147228D02*
X119558820Y-24051990D01*
X119558820Y-24051990D02*
X119511201Y-24004371D01*
X119511201Y-24004371D02*
X119415963Y-23956752D01*
X133572744Y-37336709D02*
X133239411Y-36860518D01*
X133001316Y-37336709D02*
X133001316Y-36336709D01*
X133001316Y-36336709D02*
X133382268Y-36336709D01*
X133382268Y-36336709D02*
X133477506Y-36384328D01*
X133477506Y-36384328D02*
X133525125Y-36431947D01*
X133525125Y-36431947D02*
X133572744Y-36527185D01*
X133572744Y-36527185D02*
X133572744Y-36670042D01*
X133572744Y-36670042D02*
X133525125Y-36765280D01*
X133525125Y-36765280D02*
X133477506Y-36812899D01*
X133477506Y-36812899D02*
X133382268Y-36860518D01*
X133382268Y-36860518D02*
X133001316Y-36860518D01*
X134429887Y-36336709D02*
X134239411Y-36336709D01*
X134239411Y-36336709D02*
X134144173Y-36384328D01*
X134144173Y-36384328D02*
X134096554Y-36431947D01*
X134096554Y-36431947D02*
X134001316Y-36574804D01*
X134001316Y-36574804D02*
X133953697Y-36765280D01*
X133953697Y-36765280D02*
X133953697Y-37146232D01*
X133953697Y-37146232D02*
X134001316Y-37241470D01*
X134001316Y-37241470D02*
X134048935Y-37289090D01*
X134048935Y-37289090D02*
X134144173Y-37336709D01*
X134144173Y-37336709D02*
X134334649Y-37336709D01*
X134334649Y-37336709D02*
X134429887Y-37289090D01*
X134429887Y-37289090D02*
X134477506Y-37241470D01*
X134477506Y-37241470D02*
X134525125Y-37146232D01*
X134525125Y-37146232D02*
X134525125Y-36908137D01*
X134525125Y-36908137D02*
X134477506Y-36812899D01*
X134477506Y-36812899D02*
X134429887Y-36765280D01*
X134429887Y-36765280D02*
X134334649Y-36717661D01*
X134334649Y-36717661D02*
X134144173Y-36717661D01*
X134144173Y-36717661D02*
X134048935Y-36765280D01*
X134048935Y-36765280D02*
X134001316Y-36812899D01*
X134001316Y-36812899D02*
X133953697Y-36908137D01*
X133622392Y-35821981D02*
X133289059Y-35345790D01*
X133050964Y-35821981D02*
X133050964Y-34821981D01*
X133050964Y-34821981D02*
X133431916Y-34821981D01*
X133431916Y-34821981D02*
X133527154Y-34869600D01*
X133527154Y-34869600D02*
X133574773Y-34917219D01*
X133574773Y-34917219D02*
X133622392Y-35012457D01*
X133622392Y-35012457D02*
X133622392Y-35155314D01*
X133622392Y-35155314D02*
X133574773Y-35250552D01*
X133574773Y-35250552D02*
X133527154Y-35298171D01*
X133527154Y-35298171D02*
X133431916Y-35345790D01*
X133431916Y-35345790D02*
X133050964Y-35345790D01*
X134527154Y-34821981D02*
X134050964Y-34821981D01*
X134050964Y-34821981D02*
X134003345Y-35298171D01*
X134003345Y-35298171D02*
X134050964Y-35250552D01*
X134050964Y-35250552D02*
X134146202Y-35202933D01*
X134146202Y-35202933D02*
X134384297Y-35202933D01*
X134384297Y-35202933D02*
X134479535Y-35250552D01*
X134479535Y-35250552D02*
X134527154Y-35298171D01*
X134527154Y-35298171D02*
X134574773Y-35393409D01*
X134574773Y-35393409D02*
X134574773Y-35631504D01*
X134574773Y-35631504D02*
X134527154Y-35726742D01*
X134527154Y-35726742D02*
X134479535Y-35774362D01*
X134479535Y-35774362D02*
X134384297Y-35821981D01*
X134384297Y-35821981D02*
X134146202Y-35821981D01*
X134146202Y-35821981D02*
X134050964Y-35774362D01*
X134050964Y-35774362D02*
X134003345Y-35726742D01*
D14*
%TO.C,R4*%
X128937742Y-40977500D02*
X129412258Y-40977500D01*
X128937742Y-42022500D02*
X129412258Y-42022500D01*
%TO.C,SW3*%
X98140000Y-62390000D02*
X98140000Y-64900000D01*
X98140000Y-62390000D02*
X110360000Y-62390000D01*
X98140000Y-67200000D02*
X98140000Y-69800000D01*
X98140000Y-72100000D02*
X98140000Y-74610000D01*
X110360000Y-62390000D02*
X110360000Y-64900000D01*
X110360000Y-67200000D02*
X110360000Y-69800000D01*
X110360000Y-72100000D02*
X110360000Y-74610000D01*
X110360000Y-74610000D02*
X98140000Y-74610000D01*
%TO.C,SW4*%
X119140000Y-62390000D02*
X119140000Y-64900000D01*
X119140000Y-62390000D02*
X131360000Y-62390000D01*
X119140000Y-67200000D02*
X119140000Y-69800000D01*
X119140000Y-72100000D02*
X119140000Y-74610000D01*
X131360000Y-62390000D02*
X131360000Y-64900000D01*
X131360000Y-67200000D02*
X131360000Y-69800000D01*
X131360000Y-72100000D02*
X131360000Y-74610000D01*
X131360000Y-74610000D02*
X119140000Y-74610000D01*
D10*
%TO.C,J1*%
X78000000Y-21500000D02*
X92000000Y-21500000D01*
X78000000Y-25300000D02*
X78000000Y-21500000D01*
X78000000Y-34400000D02*
X78000000Y-28700000D01*
X78000000Y-34400000D02*
X92000000Y-34400000D01*
X92000000Y-21500000D02*
X92000000Y-25300000D01*
X92000000Y-34600000D02*
X92000000Y-28700000D01*
D14*
%TO.C,C1*%
X129313341Y-47063119D02*
X129020807Y-47063119D01*
X129313341Y-48083119D02*
X129020807Y-48083119D01*
%TO.C,SW2*%
X144690000Y-67890000D02*
X144690000Y-70400000D01*
X144690000Y-67890000D02*
X156910000Y-67890000D01*
X144690000Y-72700000D02*
X144690000Y-75300000D01*
X144690000Y-77600000D02*
X144690000Y-80110000D01*
X156910000Y-67890000D02*
X156910000Y-70400000D01*
X156910000Y-72700000D02*
X156910000Y-75300000D01*
X156910000Y-77600000D02*
X156910000Y-80110000D01*
X156910000Y-80110000D02*
X144690000Y-80110000D01*
%TO.C,SW8*%
X70890000Y-57890000D02*
X70890000Y-60400000D01*
X70890000Y-57890000D02*
X83110000Y-57890000D01*
X70890000Y-62700000D02*
X70890000Y-65300000D01*
X70890000Y-67600000D02*
X70890000Y-70110000D01*
X83110000Y-57890000D02*
X83110000Y-60400000D01*
X83110000Y-62700000D02*
X83110000Y-65300000D01*
X83110000Y-67600000D02*
X83110000Y-70110000D01*
X83110000Y-70110000D02*
X70890000Y-70110000D01*
%TO.C,SW1*%
X168890000Y-67990000D02*
X168890000Y-70500000D01*
X168890000Y-67990000D02*
X181110000Y-67990000D01*
X168890000Y-72800000D02*
X168890000Y-75400000D01*
X168890000Y-77700000D02*
X168890000Y-80210000D01*
X181110000Y-67990000D02*
X181110000Y-70500000D01*
X181110000Y-72800000D02*
X181110000Y-75400000D01*
X181110000Y-77700000D02*
X181110000Y-80210000D01*
X181110000Y-80210000D02*
X168890000Y-80210000D01*
%TO.C,SW5*%
X55890000Y-42890000D02*
X55890000Y-45400000D01*
X55890000Y-42890000D02*
X68110000Y-42890000D01*
X55890000Y-47700000D02*
X55890000Y-50300000D01*
X55890000Y-52600000D02*
X55890000Y-55110000D01*
X68110000Y-42890000D02*
X68110000Y-45400000D01*
X68110000Y-47700000D02*
X68110000Y-50300000D01*
X68110000Y-52600000D02*
X68110000Y-55110000D01*
X68110000Y-55110000D02*
X55890000Y-55110000D01*
%TO.C,SW7*%
X40890000Y-57890000D02*
X40890000Y-60400000D01*
X40890000Y-57890000D02*
X53110000Y-57890000D01*
X40890000Y-62700000D02*
X40890000Y-65300000D01*
X40890000Y-67600000D02*
X40890000Y-70110000D01*
X53110000Y-57890000D02*
X53110000Y-60400000D01*
X53110000Y-62700000D02*
X53110000Y-65300000D01*
X53110000Y-67600000D02*
X53110000Y-70110000D01*
X53110000Y-70110000D02*
X40890000Y-70110000D01*
%TO.C,R1*%
X125971196Y-45477940D02*
X126445712Y-45477940D01*
X125971196Y-46522940D02*
X126445712Y-46522940D01*
%TO.C,R8*%
X125940285Y-39388533D02*
X126414801Y-39388533D01*
X125940285Y-40433533D02*
X126414801Y-40433533D01*
%TO.C,U1*%
X109740000Y-38615000D02*
X110020000Y-38615000D01*
X109740000Y-43385000D02*
X109740000Y-38615000D01*
X110020000Y-43385000D02*
X109740000Y-43385000D01*
X119980000Y-38615000D02*
X120260000Y-38615000D01*
X120260000Y-38615000D02*
X120260000Y-43385000D01*
X120260000Y-43385000D02*
X119980000Y-43385000D01*
X110010000Y-44250000D02*
X109540000Y-44590000D01*
X109540000Y-43910000D01*
X110010000Y-44250000D01*
G36*
X110010000Y-44250000D02*
G01*
X109540000Y-44590000D01*
X109540000Y-43910000D01*
X110010000Y-44250000D01*
G37*
%TO.C,R10*%
X116977500Y-28237258D02*
X116977500Y-27762742D01*
X118022500Y-28237258D02*
X118022500Y-27762742D01*
%TO.C,R2*%
X128931965Y-43970408D02*
X129406481Y-43970408D01*
X128931965Y-45015408D02*
X129406481Y-45015408D01*
%TO.C,R7*%
X128876801Y-37904820D02*
X129351317Y-37904820D01*
X128876801Y-38949820D02*
X129351317Y-38949820D01*
%TO.C,R3*%
X125930696Y-42448692D02*
X126405212Y-42448692D01*
X125930696Y-43493692D02*
X126405212Y-43493692D01*
%TO.C,SW6*%
X55890000Y-72890000D02*
X55890000Y-75400000D01*
X55890000Y-72890000D02*
X68110000Y-72890000D01*
X55890000Y-77700000D02*
X55890000Y-80300000D01*
X55890000Y-82600000D02*
X55890000Y-85110000D01*
X68110000Y-72890000D02*
X68110000Y-75400000D01*
X68110000Y-77700000D02*
X68110000Y-80300000D01*
X68110000Y-82600000D02*
X68110000Y-85110000D01*
X68110000Y-85110000D02*
X55890000Y-85110000D01*
%TO.C,R9*%
X119010073Y-28229725D02*
X119010073Y-27755209D01*
X120055073Y-28229725D02*
X120055073Y-27755209D01*
%TO.C,R6*%
X125909374Y-36390196D02*
X126383890Y-36390196D01*
X125909374Y-37435196D02*
X126383890Y-37435196D01*
%TO.C,R5*%
X128876801Y-34844662D02*
X129351317Y-34844662D01*
X128876801Y-35889662D02*
X129351317Y-35889662D01*
%TD*%
M02*
