%TF.GenerationSoftware,KiCad,Pcbnew,9.0.7*%
%TF.CreationDate,2026-02-05T23:49:22+01:00*%
%TF.ProjectId,joypad,6a6f7970-6164-42e6-9b69-6361645f7063,rev?*%
%TF.SameCoordinates,Original*%
%TF.FileFunction,Soldermask,Top*%
%TF.FilePolarity,Negative*%
%FSLAX46Y46*%
G04 Gerber Fmt 4.6, Leading zero omitted, Abs format (unit mm)*
G04 Created by KiCad (PCBNEW 9.0.7) date 2026-02-05 23:49:22*
%MOMM*%
%LPD*%
G01*
G04 APERTURE LIST*
G04 Aperture macros list*
%AMRoundRect*
0 Rectangle with rounded corners*
0 $1 Rounding radius*
0 $2 $3 $4 $5 $6 $7 $8 $9 X,Y pos of 4 corners*
0 Add a 4 corners polygon primitive as box body*
4,1,4,$2,$3,$4,$5,$6,$7,$8,$9,$2,$3,0*
0 Add four circle primitives for the rounded corners*
1,1,$1+$1,$2,$3*
1,1,$1+$1,$4,$5*
1,1,$1+$1,$6,$7*
1,1,$1+$1,$8,$9*
0 Add four rect primitives between the rounded corners*
20,1,$1+$1,$2,$3,$4,$5,0*
20,1,$1+$1,$4,$5,$6,$7,0*
20,1,$1+$1,$6,$7,$8,$9,0*
20,1,$1+$1,$8,$9,$2,$3,0*%
G04 Aperture macros list end*
%ADD10RoundRect,0.200000X-0.200000X-0.275000X0.200000X-0.275000X0.200000X0.275000X-0.200000X0.275000X0*%
%ADD11C,1.800000*%
%ADD12O,2.900000X1.700000*%
%ADD13C,3.000000*%
%ADD14C,1.600000*%
%ADD15RoundRect,0.237500X0.300000X0.237500X-0.300000X0.237500X-0.300000X-0.237500X0.300000X-0.237500X0*%
%ADD16RoundRect,0.137500X0.137500X-0.662500X0.137500X0.662500X-0.137500X0.662500X-0.137500X-0.662500X0*%
%ADD17RoundRect,0.200000X0.275000X-0.200000X0.275000X0.200000X-0.275000X0.200000X-0.275000X-0.200000X0*%
G04 APERTURE END LIST*
D10*
%TO.C,R4*%
X128350000Y-41500000D03*
X130000000Y-41500000D03*
%TD*%
D11*
%TO.C,SW3*%
X104250000Y-64000000D03*
X104250000Y-73000000D03*
D12*
X98000000Y-66000000D03*
X110500000Y-66000000D03*
X98000000Y-71000000D03*
X110500000Y-71000000D03*
%TD*%
D11*
%TO.C,SW4*%
X125250000Y-64000000D03*
X125250000Y-73000000D03*
D12*
X119000000Y-66000000D03*
X131500000Y-66000000D03*
X119000000Y-71000000D03*
X131500000Y-71000000D03*
%TD*%
D13*
%TO.C,J1*%
X78250000Y-27000000D03*
X85000000Y-26200000D03*
X91750000Y-27000000D03*
D14*
X83700000Y-30000000D03*
X81600000Y-30000000D03*
X88400000Y-30000000D03*
X81600000Y-32500000D03*
X88400000Y-32500000D03*
%TD*%
D15*
%TO.C,C1*%
X130029574Y-47573119D03*
X128304574Y-47573119D03*
%TD*%
D11*
%TO.C,SW2*%
X150800000Y-69500000D03*
X150800000Y-78500000D03*
D12*
X144550000Y-71500000D03*
X157050000Y-71500000D03*
X144550000Y-76500000D03*
X157050000Y-76500000D03*
%TD*%
D11*
%TO.C,SW8*%
X77000000Y-59500000D03*
X77000000Y-68500000D03*
D12*
X70750000Y-61500000D03*
X83250000Y-61500000D03*
X70750000Y-66500000D03*
X83250000Y-66500000D03*
%TD*%
D11*
%TO.C,SW1*%
X175000000Y-69600000D03*
X175000000Y-78600000D03*
D12*
X168750000Y-71600000D03*
X181250000Y-71600000D03*
X168750000Y-76600000D03*
X181250000Y-76600000D03*
%TD*%
D11*
%TO.C,SW5*%
X62000000Y-44500000D03*
X62000000Y-53500000D03*
D12*
X55750000Y-46500000D03*
X68250000Y-46500000D03*
X55750000Y-51500000D03*
X68250000Y-51500000D03*
%TD*%
D11*
%TO.C,SW7*%
X47000000Y-59500000D03*
X47000000Y-68500000D03*
D12*
X40750000Y-61500000D03*
X53250000Y-61500000D03*
X40750000Y-66500000D03*
X53250000Y-66500000D03*
%TD*%
D10*
%TO.C,R1*%
X125383454Y-46000440D03*
X127033454Y-46000440D03*
%TD*%
%TO.C,R8*%
X125352543Y-39911033D03*
X127002543Y-39911033D03*
%TD*%
D16*
%TO.C,U1*%
X110555000Y-44250000D03*
X111825000Y-44250000D03*
X113095000Y-44250000D03*
X114365000Y-44250000D03*
X115635000Y-44250000D03*
X116905000Y-44250000D03*
X118175000Y-44250000D03*
X119445000Y-44250000D03*
X119445000Y-37750000D03*
X118175000Y-37750000D03*
X116905000Y-37750000D03*
X115635000Y-37750000D03*
X114365000Y-37750000D03*
X113095000Y-37750000D03*
X111825000Y-37750000D03*
X110555000Y-37750000D03*
%TD*%
D17*
%TO.C,R10*%
X117500000Y-28825000D03*
X117500000Y-27175000D03*
%TD*%
D10*
%TO.C,R2*%
X128344223Y-44492908D03*
X129994223Y-44492908D03*
%TD*%
%TO.C,R7*%
X128289059Y-38427320D03*
X129939059Y-38427320D03*
%TD*%
%TO.C,R3*%
X125342954Y-42971192D03*
X126992954Y-42971192D03*
%TD*%
D11*
%TO.C,SW6*%
X62000000Y-74500000D03*
X62000000Y-83500000D03*
D12*
X55750000Y-76500000D03*
X68250000Y-76500000D03*
X55750000Y-81500000D03*
X68250000Y-81500000D03*
%TD*%
D17*
%TO.C,R9*%
X119532573Y-28817467D03*
X119532573Y-27167467D03*
%TD*%
D10*
%TO.C,R6*%
X125321632Y-36912696D03*
X126971632Y-36912696D03*
%TD*%
%TO.C,R5*%
X128289059Y-35367162D03*
X129939059Y-35367162D03*
%TD*%
M02*
