%TF.GenerationSoftware,KiCad,Pcbnew,9.0.7*%
%TF.CreationDate,2026-02-05T23:49:22+01:00*%
%TF.ProjectId,joypad,6a6f7970-6164-42e6-9b69-6361645f7063,rev?*%
%TF.SameCoordinates,Original*%
%TF.FileFunction,Copper,L1,Top*%
%TF.FilePolarity,Positive*%
%FSLAX46Y46*%
G04 Gerber Fmt 4.6, Leading zero omitted, Abs format (unit mm)*
G04 Created by KiCad (PCBNEW 9.0.7) date 2026-02-05 23:49:22*
%MOMM*%
%LPD*%
G01*
G04 APERTURE LIST*
G04 Aperture macros list*
%AMRoundRect*
0 Rectangle with rounded corners*
0 $1 Rounding radius*
0 $2 $3 $4 $5 $6 $7 $8 $9 X,Y pos of 4 corners*
0 Add a 4 corners polygon primitive as box body*
4,1,4,$2,$3,$4,$5,$6,$7,$8,$9,$2,$3,0*
0 Add four circle primitives for the rounded corners*
1,1,$1+$1,$2,$3*
1,1,$1+$1,$4,$5*
1,1,$1+$1,$6,$7*
1,1,$1+$1,$8,$9*
0 Add four rect primitives between the rounded corners*
20,1,$1+$1,$2,$3,$4,$5,0*
20,1,$1+$1,$4,$5,$6,$7,0*
20,1,$1+$1,$6,$7,$8,$9,0*
20,1,$1+$1,$8,$9,$2,$3,0*%
G04 Aperture macros list end*
%TA.AperFunction,SMDPad,CuDef*%
%ADD10RoundRect,0.200000X-0.200000X-0.275000X0.200000X-0.275000X0.200000X0.275000X-0.200000X0.275000X0*%
%TD*%
%TA.AperFunction,ComponentPad*%
%ADD11O,2.900000X1.700000*%
%TD*%
%TA.AperFunction,ComponentPad*%
%ADD12C,3.000000*%
%TD*%
%TA.AperFunction,ComponentPad*%
%ADD13C,1.600000*%
%TD*%
%TA.AperFunction,SMDPad,CuDef*%
%ADD14RoundRect,0.237500X0.300000X0.237500X-0.300000X0.237500X-0.300000X-0.237500X0.300000X-0.237500X0*%
%TD*%
%TA.AperFunction,SMDPad,CuDef*%
%ADD15RoundRect,0.137500X0.137500X-0.662500X0.137500X0.662500X-0.137500X0.662500X-0.137500X-0.662500X0*%
%TD*%
%TA.AperFunction,SMDPad,CuDef*%
%ADD16RoundRect,0.200000X0.275000X-0.200000X0.275000X0.200000X-0.275000X0.200000X-0.275000X-0.200000X0*%
%TD*%
%TA.AperFunction,ViaPad*%
%ADD17C,0.800000*%
%TD*%
%TA.AperFunction,ViaPad*%
%ADD18C,0.700000*%
%TD*%
%TA.AperFunction,Conductor*%
%ADD19C,0.250000*%
%TD*%
%TA.AperFunction,Conductor*%
%ADD20C,0.600000*%
%TD*%
%TA.AperFunction,Conductor*%
%ADD21C,0.400000*%
%TD*%
G04 APERTURE END LIST*
D10*
%TO.P,R4,1*%
%TO.N,Net-(U1-D3)*%
X128350000Y-41500000D03*
%TO.P,R4,2*%
%TO.N,VCC*%
X130000000Y-41500000D03*
%TD*%
D11*
%TO.P,SW3,1,1*%
%TO.N,GND*%
X98000000Y-66000000D03*
X110500000Y-66000000D03*
%TO.P,SW3,2,2*%
%TO.N,Net-(U1-D2)*%
X98000000Y-71000000D03*
X110500000Y-71000000D03*
%TD*%
%TO.P,SW4,1,1*%
%TO.N,GND*%
X119000000Y-66000000D03*
X131500000Y-66000000D03*
%TO.P,SW4,2,2*%
%TO.N,Net-(U1-D3)*%
X119000000Y-71000000D03*
X131500000Y-71000000D03*
%TD*%
D12*
%TO.P,J1,*%
%TO.N,*%
X78250000Y-27000000D03*
X85000000Y-26200000D03*
X91750000Y-27000000D03*
D13*
%TO.P,J1,1*%
%TO.N,GND*%
X83700000Y-30000000D03*
%TO.P,J1,2*%
%TO.N,/OUT*%
X81600000Y-30000000D03*
%TO.P,J1,3*%
%TO.N,/STROBE*%
X88400000Y-30000000D03*
%TO.P,J1,4*%
%TO.N,/CLK*%
X81600000Y-32500000D03*
%TO.P,J1,5*%
%TO.N,VCC*%
X88400000Y-32500000D03*
%TD*%
D14*
%TO.P,C1,1*%
%TO.N,VCC*%
X130029574Y-47573119D03*
%TO.P,C1,2*%
%TO.N,GND*%
X128304574Y-47573119D03*
%TD*%
D11*
%TO.P,SW2,1,1*%
%TO.N,GND*%
X144550000Y-71500000D03*
X157050000Y-71500000D03*
%TO.P,SW2,2,2*%
%TO.N,Net-(U1-D1)*%
X144550000Y-76500000D03*
X157050000Y-76500000D03*
%TD*%
%TO.P,SW8,1,1*%
%TO.N,GND*%
X70750000Y-61500000D03*
X83250000Y-61500000D03*
%TO.P,SW8,2,2*%
%TO.N,Net-(U1-D7)*%
X70750000Y-66500000D03*
X83250000Y-66500000D03*
%TD*%
%TO.P,SW1,1,1*%
%TO.N,GND*%
X168750000Y-71600000D03*
X181250000Y-71600000D03*
%TO.P,SW1,2,2*%
%TO.N,Net-(U1-D0)*%
X168750000Y-76600000D03*
X181250000Y-76600000D03*
%TD*%
%TO.P,SW5,1,1*%
%TO.N,GND*%
X55750000Y-46500000D03*
X68250000Y-46500000D03*
%TO.P,SW5,2,2*%
%TO.N,Net-(U1-D4)*%
X55750000Y-51500000D03*
X68250000Y-51500000D03*
%TD*%
%TO.P,SW7,1,1*%
%TO.N,GND*%
X40750000Y-61500000D03*
X53250000Y-61500000D03*
%TO.P,SW7,2,2*%
%TO.N,Net-(U1-D6)*%
X40750000Y-66500000D03*
X53250000Y-66500000D03*
%TD*%
D10*
%TO.P,R1,1*%
%TO.N,Net-(U1-D0)*%
X125383454Y-46000440D03*
%TO.P,R1,2*%
%TO.N,VCC*%
X127033454Y-46000440D03*
%TD*%
%TO.P,R8,1*%
%TO.N,Net-(U1-D7)*%
X125352543Y-39911033D03*
%TO.P,R8,2*%
%TO.N,VCC*%
X127002543Y-39911033D03*
%TD*%
D15*
%TO.P,U1,1,D7*%
%TO.N,Net-(U1-D7)*%
X110555000Y-44250000D03*
%TO.P,U1,2,Q5*%
%TO.N,unconnected-(U1-Q5-Pad2)*%
X111825000Y-44250000D03*
%TO.P,U1,3,Q7*%
%TO.N,/OUT*%
X113095000Y-44250000D03*
%TO.P,U1,4,D3*%
%TO.N,Net-(U1-D3)*%
X114365000Y-44250000D03*
%TO.P,U1,5,D2*%
%TO.N,Net-(U1-D2)*%
X115635000Y-44250000D03*
%TO.P,U1,6,D1*%
%TO.N,Net-(U1-D1)*%
X116905000Y-44250000D03*
%TO.P,U1,7,D0*%
%TO.N,Net-(U1-D0)*%
X118175000Y-44250000D03*
%TO.P,U1,8,VSS*%
%TO.N,GND*%
X119445000Y-44250000D03*
%TO.P,U1,9,PL*%
%TO.N,Net-(U1-PL)*%
X119445000Y-37750000D03*
%TO.P,U1,10,CP*%
%TO.N,Net-(U1-CP)*%
X118175000Y-37750000D03*
%TO.P,U1,11,DS*%
%TO.N,unconnected-(U1-DS-Pad11)*%
X116905000Y-37750000D03*
%TO.P,U1,12,Q6*%
%TO.N,unconnected-(U1-Q6-Pad12)*%
X115635000Y-37750000D03*
%TO.P,U1,13,D4*%
%TO.N,Net-(U1-D4)*%
X114365000Y-37750000D03*
%TO.P,U1,14,D5*%
%TO.N,Net-(U1-D5)*%
X113095000Y-37750000D03*
%TO.P,U1,15,D6*%
%TO.N,Net-(U1-D6)*%
X111825000Y-37750000D03*
%TO.P,U1,16,VDD*%
%TO.N,VCC*%
X110555000Y-37750000D03*
%TD*%
D16*
%TO.P,R10,1*%
%TO.N,Net-(U1-CP)*%
X117500000Y-28825000D03*
%TO.P,R10,2*%
%TO.N,/CLK*%
X117500000Y-27175000D03*
%TD*%
D10*
%TO.P,R2,1*%
%TO.N,Net-(U1-D1)*%
X128344223Y-44492908D03*
%TO.P,R2,2*%
%TO.N,VCC*%
X129994223Y-44492908D03*
%TD*%
%TO.P,R7,1*%
%TO.N,Net-(U1-D6)*%
X128289059Y-38427320D03*
%TO.P,R7,2*%
%TO.N,VCC*%
X129939059Y-38427320D03*
%TD*%
%TO.P,R3,1*%
%TO.N,Net-(U1-D2)*%
X125342954Y-42971192D03*
%TO.P,R3,2*%
%TO.N,VCC*%
X126992954Y-42971192D03*
%TD*%
D11*
%TO.P,SW6,1,1*%
%TO.N,GND*%
X55750000Y-76500000D03*
X68250000Y-76500000D03*
%TO.P,SW6,2,2*%
%TO.N,Net-(U1-D5)*%
X55750000Y-81500000D03*
X68250000Y-81500000D03*
%TD*%
D16*
%TO.P,R9,1*%
%TO.N,Net-(U1-PL)*%
X119532573Y-28817467D03*
%TO.P,R9,2*%
%TO.N,/STROBE*%
X119532573Y-27167467D03*
%TD*%
D10*
%TO.P,R6,1*%
%TO.N,Net-(U1-D5)*%
X125321632Y-36912696D03*
%TO.P,R6,2*%
%TO.N,VCC*%
X126971632Y-36912696D03*
%TD*%
%TO.P,R5,1*%
%TO.N,Net-(U1-D4)*%
X128289059Y-35367162D03*
%TO.P,R5,2*%
%TO.N,VCC*%
X129939059Y-35367162D03*
%TD*%
D17*
%TO.N,VCC*%
X130000000Y-37000000D03*
X110555000Y-31000000D03*
D18*
%TO.N,Net-(U1-D0)*%
X118175000Y-47380936D03*
%TO.N,Net-(U1-D1)*%
X116905000Y-47345000D03*
%TO.N,Net-(U1-D2)*%
X115635000Y-47365000D03*
%TO.N,Net-(U1-D3)*%
X114365000Y-47385000D03*
%TO.N,Net-(U1-D4)*%
X114365000Y-34635000D03*
%TO.N,Net-(U1-D5)*%
X113095000Y-33905000D03*
%TO.N,Net-(U1-D6)*%
X111817861Y-33067861D03*
%TO.N,Net-(U1-D7)*%
X110555000Y-46900000D03*
%TD*%
D19*
%TO.N,Net-(U1-D7)*%
X110555000Y-46900000D02*
X110555000Y-44250000D01*
D20*
%TO.N,VCC*%
X88400000Y-32500000D02*
X89900000Y-31000000D01*
X130000000Y-37000000D02*
X130000000Y-35428103D01*
X130000000Y-40000000D02*
X130000000Y-38488261D01*
D21*
X130000000Y-35428103D02*
X129939059Y-35367162D01*
D20*
X130029574Y-46000000D02*
X130029574Y-44528259D01*
X129939059Y-38427320D02*
X129939059Y-37060941D01*
X130029574Y-47573119D02*
X130029574Y-46000000D01*
X129994223Y-43000000D02*
X129994223Y-41505777D01*
D21*
X129965415Y-42971192D02*
X129994223Y-43000000D01*
X126992954Y-42971192D02*
X129965415Y-42971192D01*
D20*
X130000000Y-41500000D02*
X130000000Y-40000000D01*
X129994223Y-44492908D02*
X129994223Y-43000000D01*
D21*
X129911033Y-39911033D02*
X130000000Y-40000000D01*
X130000000Y-38488261D02*
X129939059Y-38427320D01*
X129912696Y-36912696D02*
X130000000Y-37000000D01*
X130029574Y-44528259D02*
X129994223Y-44492908D01*
X129994223Y-41505777D02*
X130000000Y-41500000D01*
X127002543Y-39911033D02*
X129911033Y-39911033D01*
X110555000Y-31000000D02*
X110555000Y-37750000D01*
X127033454Y-46000440D02*
X130029134Y-46000440D01*
X130029134Y-46000440D02*
X130029574Y-46000000D01*
X126971632Y-36912696D02*
X129912696Y-36912696D01*
D20*
X89900000Y-31000000D02*
X110555000Y-31000000D01*
D21*
X129939059Y-37060941D02*
X130000000Y-37000000D01*
D20*
%TO.N,GND*%
X53250000Y-61500000D02*
X54500000Y-61500000D01*
X136500000Y-66000000D02*
X131500000Y-66000000D01*
X119000000Y-66000000D02*
X131500000Y-66000000D01*
X98000000Y-66000000D02*
X110500000Y-66000000D01*
X93000000Y-66000000D02*
X88500000Y-61500000D01*
X55750000Y-46500000D02*
X54500000Y-46500000D01*
X69500000Y-61500000D02*
X68250000Y-62750000D01*
X158000000Y-71500000D02*
X158100000Y-71600000D01*
X70750000Y-61500000D02*
X83250000Y-61500000D01*
X110500000Y-66000000D02*
X119000000Y-66000000D01*
X121368119Y-47573119D02*
X128304574Y-47573119D01*
X157050000Y-71500000D02*
X158000000Y-71500000D01*
X70750000Y-61500000D02*
X69500000Y-61500000D01*
X110750000Y-65750000D02*
X110500000Y-66000000D01*
X55750000Y-76500000D02*
X68250000Y-76500000D01*
X83700000Y-29200000D02*
X82000000Y-27500000D01*
X72000000Y-24000000D02*
X68250000Y-27750000D01*
X98000000Y-66000000D02*
X93000000Y-66000000D01*
X68250000Y-62750000D02*
X68250000Y-76500000D01*
X119445000Y-45650000D02*
X119445000Y-44250000D01*
X111750000Y-65750000D02*
X110750000Y-65750000D01*
X88500000Y-61500000D02*
X83250000Y-61500000D01*
X55750000Y-46500000D02*
X68250000Y-46500000D01*
X121368119Y-47573119D02*
X119445000Y-45650000D01*
X144550000Y-71500000D02*
X142000000Y-71500000D01*
X82000000Y-27500000D02*
X82000000Y-24000000D01*
X70750000Y-61500000D02*
X70750000Y-47750000D01*
X119445000Y-45650000D02*
X119445000Y-65555000D01*
X68250000Y-27750000D02*
X68250000Y-46500000D01*
X83700000Y-30000000D02*
X83700000Y-29200000D01*
X144550000Y-71500000D02*
X157050000Y-71500000D01*
X119445000Y-65555000D02*
X119000000Y-66000000D01*
X53250000Y-47750000D02*
X53250000Y-61500000D01*
X142000000Y-71500000D02*
X136500000Y-66000000D01*
X54500000Y-61500000D02*
X55750000Y-62750000D01*
X54500000Y-46500000D02*
X53250000Y-47750000D01*
X158100000Y-71600000D02*
X168750000Y-71600000D01*
X55750000Y-62750000D02*
X55750000Y-76500000D01*
X168750000Y-71600000D02*
X181250000Y-71600000D01*
X40750000Y-61500000D02*
X53250000Y-61500000D01*
X70750000Y-47750000D02*
X69500000Y-46500000D01*
X69500000Y-46500000D02*
X68250000Y-46500000D01*
X82000000Y-24000000D02*
X72000000Y-24000000D01*
D19*
%TO.N,Net-(U1-D0)*%
X119111702Y-43124000D02*
X118175000Y-44060702D01*
X122507014Y-43124000D02*
X119111702Y-43124000D01*
X118175000Y-44060702D02*
X118175000Y-47380936D01*
X168750000Y-76600000D02*
X181250000Y-76600000D01*
X125383454Y-46000440D02*
X122507014Y-43124000D01*
%TO.N,Net-(U1-D1)*%
X124513732Y-44492908D02*
X122693824Y-42673000D01*
X116905000Y-44250000D02*
X116905000Y-47345000D01*
X128344223Y-44492908D02*
X124513732Y-44492908D01*
X116905000Y-44060702D02*
X116905000Y-44250000D01*
X144550000Y-76500000D02*
X157050000Y-76500000D01*
X118292702Y-42673000D02*
X116905000Y-44060702D01*
X122693824Y-42673000D02*
X118292702Y-42673000D01*
%TO.N,Net-(U1-D2)*%
X115635000Y-44250000D02*
X115635000Y-47365000D01*
X98000000Y-71000000D02*
X110500000Y-71000000D01*
X125342954Y-42971192D02*
X124593762Y-42222000D01*
X124593762Y-42222000D02*
X117473702Y-42222000D01*
X117473702Y-42222000D02*
X115635000Y-44060702D01*
X115635000Y-44060702D02*
X115635000Y-44250000D01*
%TO.N,Net-(U1-D3)*%
X116315001Y-41500000D02*
X128350000Y-41500000D01*
X114365000Y-43450001D02*
X116315001Y-41500000D01*
X114365000Y-44250000D02*
X114365000Y-47385000D01*
X114365000Y-44250000D02*
X114365000Y-43450001D01*
X119000000Y-71000000D02*
X131500000Y-71000000D01*
%TO.N,Net-(U1-D4)*%
X114365000Y-37750000D02*
X114365000Y-38549999D01*
X114365000Y-34635000D02*
X114365000Y-37750000D01*
X125495028Y-35367162D02*
X128289059Y-35367162D01*
X121862190Y-39000000D02*
X125495028Y-35367162D01*
X114815001Y-39000000D02*
X121862190Y-39000000D01*
X114365000Y-38549999D02*
X114815001Y-39000000D01*
X68250000Y-51500000D02*
X55750000Y-51500000D01*
%TO.N,Net-(U1-D5)*%
X124587304Y-36912696D02*
X125321632Y-36912696D01*
X55750000Y-81500000D02*
X68250000Y-81500000D01*
X113095000Y-38235000D02*
X114436999Y-39576999D01*
X113095000Y-37750000D02*
X113095000Y-33905000D01*
X121923001Y-39576999D02*
X124587304Y-36912696D01*
X114436999Y-39576999D02*
X121923001Y-39576999D01*
%TO.N,Net-(U1-D6)*%
X111825000Y-33075000D02*
X111817861Y-33067861D01*
X121839561Y-40298249D02*
X113573250Y-40298249D01*
X128289059Y-38427320D02*
X123710490Y-38427320D01*
X123710490Y-38427320D02*
X121839561Y-40298249D01*
X40750000Y-66500000D02*
X53250000Y-66500000D01*
X111825000Y-38549999D02*
X111825000Y-37750000D01*
X113573250Y-40298249D02*
X111825000Y-38549999D01*
X111825000Y-37750000D02*
X111825000Y-33075000D01*
%TO.N,Net-(U1-D7)*%
X110555000Y-43450001D02*
X110555000Y-44250000D01*
X125352543Y-39911033D02*
X124514327Y-40749249D01*
X70750000Y-66500000D02*
X83250000Y-66500000D01*
X124514327Y-40749249D02*
X113255752Y-40749249D01*
X113255752Y-40749249D02*
X110555000Y-43450001D01*
%TO.N,/STROBE*%
X116865106Y-24500000D02*
X119532573Y-27167467D01*
X88400000Y-27600000D02*
X91500000Y-24500000D01*
X88400000Y-30000000D02*
X88400000Y-27600000D01*
X91500000Y-24500000D02*
X116865106Y-24500000D01*
%TO.N,Net-(U1-PL)*%
X119445000Y-28905040D02*
X119532573Y-28817467D01*
X119532573Y-28817467D02*
X119532573Y-37662427D01*
X119532573Y-37662427D02*
X119445000Y-37750000D01*
%TO.N,/CLK*%
X114701000Y-29974000D02*
X90018405Y-29974000D01*
X117500000Y-27175000D02*
X114701000Y-29974000D01*
X88866405Y-31126000D02*
X82974000Y-31126000D01*
X90018405Y-29974000D02*
X88866405Y-31126000D01*
X82974000Y-31126000D02*
X81600000Y-32500000D01*
%TO.N,Net-(U1-CP)*%
X117500000Y-28825000D02*
X118175000Y-29500000D01*
X118175000Y-29500000D02*
X118175000Y-37750000D01*
%TO.N,/OUT*%
X80474000Y-31126000D02*
X80474000Y-32966405D01*
X95383595Y-47876000D02*
X111124000Y-47876000D01*
X111124000Y-47876000D02*
X113095000Y-45905000D01*
X80474000Y-32966405D02*
X95383595Y-47876000D01*
X81600000Y-30000000D02*
X80474000Y-31126000D01*
X113095000Y-45905000D02*
X113095000Y-44250000D01*
%TD*%
M02*
