M48
; DRILL file {KiCad 9.0.7} date 2026-02-05T23:49:24+0100
; FORMAT={-:-/ absolute / metric / decimal}
; #@! TF.CreationDate,2026-02-05T23:49:24+01:00
; #@! TF.GenerationSoftware,Kicad,Pcbnew,9.0.7
; #@! TF.FileFunction,Plated,1,2,PTH
FMAT,2
METRIC
; #@! TA.AperFunction,Plated,PTH,ViaDrill
T1C0.400
; #@! TA.AperFunction,Plated,PTH,ViaDrill
T2C0.500
; #@! TA.AperFunction,Plated,PTH,ComponentDrill
T3C1.100
; #@! TA.AperFunction,Plated,PTH,ComponentDrill
T4C1.200
; #@! TA.AperFunction,Plated,PTH,ComponentDrill
T5C2.300
%
G90
G05
T1
X110.555Y-46.9
X111.818Y-33.068
X113.095Y-33.905
X114.365Y-34.635
X114.365Y-47.385
X115.635Y-47.365
X116.905Y-47.345
X118.175Y-47.381
T2
X110.555Y-31.0
X130.0Y-37.0
T3
X81.6Y-30.0
X81.6Y-32.5
X83.7Y-30.0
X88.4Y-30.0
X88.4Y-32.5
T4
X40.75Y-61.5
X40.75Y-66.5
X53.25Y-61.5
X53.25Y-66.5
X55.75Y-46.5
X55.75Y-51.5
X55.75Y-76.5
X55.75Y-81.5
X68.25Y-46.5
X68.25Y-51.5
X68.25Y-76.5
X68.25Y-81.5
X70.75Y-61.5
X70.75Y-66.5
X83.25Y-61.5
X83.25Y-66.5
X98.0Y-66.0
X98.0Y-71.0
X110.5Y-66.0
X110.5Y-71.0
X119.0Y-66.0
X119.0Y-71.0
X131.5Y-66.0
X131.5Y-71.0
X144.55Y-71.5
X144.55Y-76.5
X157.05Y-71.5
X157.05Y-76.5
X168.75Y-71.6
X168.75Y-76.6
X181.25Y-71.6
X181.25Y-76.6
T5
X78.25Y-27.0
X85.0Y-26.2
X91.75Y-27.0
M30
