ISO-10303-21;
HEADER;
/* Generated by software containing ST-Developer
 * from STEP Tools, Inc. (www.steptools.com) 
 */

FILE_DESCRIPTION(
/* description */ (''),
/* implementation_level */ '2;1');

FILE_NAME(
/* name */ 'Jack 3,5 mm.step',
/* time_stamp */ '2026-02-02T11:56:13+01:00',
/* author */ (''),
/* organization */ (''),
/* preprocessor_version */ 'ST-DEVELOPER v20.1',
/* originating_system */ 'Autodesk Translation Framework v14.24.0.0',
/* authorisation */ '');

FILE_SCHEMA (('AUTOMOTIVE_DESIGN { 1 0 10303 214 3 1 1 }'));
ENDSEC;

DATA;
#10=MECHANICAL_DESIGN_GEOMETRIC_PRESENTATION_REPRESENTATION('',(#13),#531);
#11=SHAPE_REPRESENTATION_RELATIONSHIP('SRR','None',#538,#12);
#12=ADVANCED_BREP_SHAPE_REPRESENTATION('',(#14),#530);
#13=STYLED_ITEM('',(#547),#14);
#14=MANIFOLD_SOLID_BREP('Body1',#310);
#15=FACE_BOUND('',#117,.T.);
#16=FACE_BOUND('',#129,.T.);
#17=PLANE('',#331);
#18=PLANE('',#333);
#19=PLANE('',#334);
#20=PLANE('',#336);
#21=PLANE('',#338);
#22=PLANE('',#339);
#23=PLANE('',#340);
#24=PLANE('',#342);
#25=PLANE('',#343);
#26=PLANE('',#345);
#27=PLANE('',#347);
#28=PLANE('',#348);
#29=PLANE('',#349);
#30=PLANE('',#350);
#31=PLANE('',#351);
#32=PLANE('',#352);
#33=LINE('',#454,#63);
#34=LINE('',#462,#64);
#35=LINE('',#464,#65);
#36=LINE('',#466,#66);
#37=LINE('',#468,#67);
#38=LINE('',#469,#68);
#39=LINE('',#472,#69);
#40=LINE('',#476,#70);
#41=LINE('',#481,#71);
#42=LINE('',#483,#72);
#43=LINE('',#485,#73);
#44=LINE('',#487,#74);
#45=LINE('',#488,#75);
#46=LINE('',#490,#76);
#47=LINE('',#491,#77);
#48=LINE('',#495,#78);
#49=LINE('',#496,#79);
#50=LINE('',#501,#80);
#51=LINE('',#505,#81);
#52=LINE('',#507,#82);
#53=LINE('',#509,#83);
#54=LINE('',#510,#84);
#55=LINE('',#513,#85);
#56=LINE('',#515,#86);
#57=LINE('',#516,#87);
#58=LINE('',#519,#88);
#59=LINE('',#521,#89);
#60=LINE('',#522,#90);
#61=LINE('',#524,#91);
#62=LINE('',#525,#92);
#63=VECTOR('',#367,1.75);
#64=VECTOR('',#376,10.);
#65=VECTOR('',#377,10.);
#66=VECTOR('',#378,10.);
#67=VECTOR('',#379,10.);
#68=VECTOR('',#380,10.);
#69=VECTOR('',#383,10.);
#70=VECTOR('',#388,10.);
#71=VECTOR('',#393,10.);
#72=VECTOR('',#394,10.);
#73=VECTOR('',#395,10.);
#74=VECTOR('',#396,10.);
#75=VECTOR('',#397,10.);
#76=VECTOR('',#400,10.);
#77=VECTOR('',#401,10.);
#78=VECTOR('',#408,10.);
#79=VECTOR('',#409,10.);
#80=VECTOR('',#418,2.);
#81=VECTOR('',#421,10.);
#82=VECTOR('',#422,10.);
#83=VECTOR('',#423,10.);
#84=VECTOR('',#424,10.);
#85=VECTOR('',#427,10.);
#86=VECTOR('',#428,10.);
#87=VECTOR('',#429,10.);
#88=VECTOR('',#432,10.);
#89=VECTOR('',#433,10.);
#90=VECTOR('',#434,10.);
#91=VECTOR('',#437,10.);
#92=VECTOR('',#438,10.);
#93=CYLINDRICAL_SURFACE('',#329,1.75);
#94=CYLINDRICAL_SURFACE('',#346,2.);
#95=FACE_OUTER_BOUND('',#114,.T.);
#96=FACE_OUTER_BOUND('',#115,.T.);
#97=FACE_OUTER_BOUND('',#116,.T.);
#98=FACE_OUTER_BOUND('',#118,.T.);
#99=FACE_OUTER_BOUND('',#119,.T.);
#100=FACE_OUTER_BOUND('',#120,.T.);
#101=FACE_OUTER_BOUND('',#121,.T.);
#102=FACE_OUTER_BOUND('',#122,.T.);
#103=FACE_OUTER_BOUND('',#123,.T.);
#104=FACE_OUTER_BOUND('',#124,.T.);
#105=FACE_OUTER_BOUND('',#125,.T.);
#106=FACE_OUTER_BOUND('',#126,.T.);
#107=FACE_OUTER_BOUND('',#127,.T.);
#108=FACE_OUTER_BOUND('',#128,.T.);
#109=FACE_OUTER_BOUND('',#130,.T.);
#110=FACE_OUTER_BOUND('',#131,.T.);
#111=FACE_OUTER_BOUND('',#132,.T.);
#112=FACE_OUTER_BOUND('',#133,.T.);
#113=FACE_OUTER_BOUND('',#134,.T.);
#114=EDGE_LOOP('',(#210,#211,#212,#213,#214));
#115=EDGE_LOOP('',(#215,#216,#217,#218,#219));
#116=EDGE_LOOP('',(#220));
#117=EDGE_LOOP('',(#221));
#118=EDGE_LOOP('',(#222,#223,#224,#225,#226));
#119=EDGE_LOOP('',(#227,#228,#229));
#120=EDGE_LOOP('',(#230,#231,#232));
#121=EDGE_LOOP('',(#233,#234,#235,#236,#237));
#122=EDGE_LOOP('',(#238,#239,#240,#241,#242));
#123=EDGE_LOOP('',(#243,#244,#245));
#124=EDGE_LOOP('',(#246,#247,#248,#249,#250));
#125=EDGE_LOOP('',(#251,#252,#253));
#126=EDGE_LOOP('',(#254));
#127=EDGE_LOOP('',(#255,#256,#257,#258,#259,#260,#261));
#128=EDGE_LOOP('',(#262,#263,#264,#265));
#129=EDGE_LOOP('',(#266,#267,#268,#269));
#130=EDGE_LOOP('',(#270,#271,#272,#273));
#131=EDGE_LOOP('',(#274,#275,#276,#277));
#132=EDGE_LOOP('',(#278,#279,#280,#281));
#133=EDGE_LOOP('',(#282,#283,#284,#285));
#134=EDGE_LOOP('',(#286,#287,#288,#289));
#135=CIRCLE('',#325,1.85);
#136=CIRCLE('',#326,0.1);
#137=CIRCLE('',#327,1.75);
#138=CIRCLE('',#328,1.75);
#139=CIRCLE('',#330,1.75);
#140=CIRCLE('',#332,2.);
#141=CIRCLE('',#335,2.);
#142=CIRCLE('',#337,2.);
#143=CIRCLE('',#341,2.);
#144=CIRCLE('',#344,2.);
#145=VERTEX_POINT('',#445);
#146=VERTEX_POINT('',#447);
#147=VERTEX_POINT('',#449);
#148=VERTEX_POINT('',#453);
#149=VERTEX_POINT('',#457);
#150=VERTEX_POINT('',#460);
#151=VERTEX_POINT('',#461);
#152=VERTEX_POINT('',#463);
#153=VERTEX_POINT('',#465);
#154=VERTEX_POINT('',#467);
#155=VERTEX_POINT('',#471);
#156=VERTEX_POINT('',#475);
#157=VERTEX_POINT('',#479);
#158=VERTEX_POINT('',#480);
#159=VERTEX_POINT('',#482);
#160=VERTEX_POINT('',#484);
#161=VERTEX_POINT('',#486);
#162=VERTEX_POINT('',#503);
#163=VERTEX_POINT('',#504);
#164=VERTEX_POINT('',#506);
#165=VERTEX_POINT('',#508);
#166=VERTEX_POINT('',#512);
#167=VERTEX_POINT('',#514);
#168=VERTEX_POINT('',#518);
#169=VERTEX_POINT('',#520);
#170=EDGE_CURVE('',#145,#145,#135,.T.);
#171=EDGE_CURVE('',#145,#146,#136,.T.);
#172=EDGE_CURVE('',#146,#147,#137,.T.);
#173=EDGE_CURVE('',#147,#146,#138,.T.);
#174=EDGE_CURVE('',#147,#148,#33,.T.);
#175=EDGE_CURVE('',#148,#148,#139,.T.);
#176=EDGE_CURVE('',#149,#149,#140,.T.);
#177=EDGE_CURVE('',#150,#151,#34,.T.);
#178=EDGE_CURVE('',#150,#152,#35,.T.);
#179=EDGE_CURVE('',#153,#152,#36,.T.);
#180=EDGE_CURVE('',#154,#153,#37,.T.);
#181=EDGE_CURVE('',#151,#154,#38,.T.);
#182=EDGE_CURVE('',#155,#154,#39,.T.);
#183=EDGE_CURVE('',#155,#153,#141,.T.);
#184=EDGE_CURVE('',#152,#156,#40,.T.);
#185=EDGE_CURVE('',#153,#156,#142,.T.);
#186=EDGE_CURVE('',#157,#158,#41,.T.);
#187=EDGE_CURVE('',#157,#159,#42,.T.);
#188=EDGE_CURVE('',#160,#159,#43,.T.);
#189=EDGE_CURVE('',#161,#160,#44,.T.);
#190=EDGE_CURVE('',#158,#161,#45,.T.);
#191=EDGE_CURVE('',#158,#150,#46,.T.);
#192=EDGE_CURVE('',#156,#161,#47,.T.);
#193=EDGE_CURVE('',#156,#160,#143,.T.);
#194=EDGE_CURVE('',#151,#157,#48,.T.);
#195=EDGE_CURVE('',#159,#155,#49,.T.);
#196=EDGE_CURVE('',#160,#155,#144,.T.);
#197=EDGE_CURVE('',#149,#155,#50,.T.);
#198=EDGE_CURVE('',#162,#163,#51,.T.);
#199=EDGE_CURVE('',#162,#164,#52,.T.);
#200=EDGE_CURVE('',#165,#164,#53,.T.);
#201=EDGE_CURVE('',#163,#165,#54,.T.);
#202=EDGE_CURVE('',#163,#166,#55,.T.);
#203=EDGE_CURVE('',#167,#165,#56,.T.);
#204=EDGE_CURVE('',#166,#167,#57,.T.);
#205=EDGE_CURVE('',#166,#168,#58,.T.);
#206=EDGE_CURVE('',#169,#167,#59,.T.);
#207=EDGE_CURVE('',#168,#169,#60,.T.);
#208=EDGE_CURVE('',#168,#162,#61,.T.);
#209=EDGE_CURVE('',#164,#169,#62,.T.);
#210=ORIENTED_EDGE('',*,*,#170,.T.);
#211=ORIENTED_EDGE('',*,*,#171,.T.);
#212=ORIENTED_EDGE('',*,*,#172,.T.);
#213=ORIENTED_EDGE('',*,*,#173,.T.);
#214=ORIENTED_EDGE('',*,*,#171,.F.);
#215=ORIENTED_EDGE('',*,*,#173,.F.);
#216=ORIENTED_EDGE('',*,*,#174,.T.);
#217=ORIENTED_EDGE('',*,*,#175,.T.);
#218=ORIENTED_EDGE('',*,*,#174,.F.);
#219=ORIENTED_EDGE('',*,*,#172,.F.);
#220=ORIENTED_EDGE('',*,*,#176,.T.);
#221=ORIENTED_EDGE('',*,*,#170,.F.);
#222=ORIENTED_EDGE('',*,*,#177,.F.);
#223=ORIENTED_EDGE('',*,*,#178,.T.);
#224=ORIENTED_EDGE('',*,*,#179,.F.);
#225=ORIENTED_EDGE('',*,*,#180,.F.);
#226=ORIENTED_EDGE('',*,*,#181,.F.);
#227=ORIENTED_EDGE('',*,*,#182,.T.);
#228=ORIENTED_EDGE('',*,*,#180,.T.);
#229=ORIENTED_EDGE('',*,*,#183,.F.);
#230=ORIENTED_EDGE('',*,*,#184,.T.);
#231=ORIENTED_EDGE('',*,*,#185,.F.);
#232=ORIENTED_EDGE('',*,*,#179,.T.);
#233=ORIENTED_EDGE('',*,*,#186,.F.);
#234=ORIENTED_EDGE('',*,*,#187,.T.);
#235=ORIENTED_EDGE('',*,*,#188,.F.);
#236=ORIENTED_EDGE('',*,*,#189,.F.);
#237=ORIENTED_EDGE('',*,*,#190,.F.);
#238=ORIENTED_EDGE('',*,*,#191,.F.);
#239=ORIENTED_EDGE('',*,*,#190,.T.);
#240=ORIENTED_EDGE('',*,*,#192,.F.);
#241=ORIENTED_EDGE('',*,*,#184,.F.);
#242=ORIENTED_EDGE('',*,*,#178,.F.);
#243=ORIENTED_EDGE('',*,*,#192,.T.);
#244=ORIENTED_EDGE('',*,*,#189,.T.);
#245=ORIENTED_EDGE('',*,*,#193,.F.);
#246=ORIENTED_EDGE('',*,*,#194,.F.);
#247=ORIENTED_EDGE('',*,*,#181,.T.);
#248=ORIENTED_EDGE('',*,*,#182,.F.);
#249=ORIENTED_EDGE('',*,*,#195,.F.);
#250=ORIENTED_EDGE('',*,*,#187,.F.);
#251=ORIENTED_EDGE('',*,*,#195,.T.);
#252=ORIENTED_EDGE('',*,*,#196,.F.);
#253=ORIENTED_EDGE('',*,*,#188,.T.);
#254=ORIENTED_EDGE('',*,*,#175,.F.);
#255=ORIENTED_EDGE('',*,*,#176,.F.);
#256=ORIENTED_EDGE('',*,*,#197,.T.);
#257=ORIENTED_EDGE('',*,*,#183,.T.);
#258=ORIENTED_EDGE('',*,*,#185,.T.);
#259=ORIENTED_EDGE('',*,*,#193,.T.);
#260=ORIENTED_EDGE('',*,*,#196,.T.);
#261=ORIENTED_EDGE('',*,*,#197,.F.);
#262=ORIENTED_EDGE('',*,*,#198,.F.);
#263=ORIENTED_EDGE('',*,*,#199,.T.);
#264=ORIENTED_EDGE('',*,*,#200,.F.);
#265=ORIENTED_EDGE('',*,*,#201,.F.);
#266=ORIENTED_EDGE('',*,*,#194,.T.);
#267=ORIENTED_EDGE('',*,*,#186,.T.);
#268=ORIENTED_EDGE('',*,*,#191,.T.);
#269=ORIENTED_EDGE('',*,*,#177,.T.);
#270=ORIENTED_EDGE('',*,*,#202,.F.);
#271=ORIENTED_EDGE('',*,*,#201,.T.);
#272=ORIENTED_EDGE('',*,*,#203,.F.);
#273=ORIENTED_EDGE('',*,*,#204,.F.);
#274=ORIENTED_EDGE('',*,*,#205,.F.);
#275=ORIENTED_EDGE('',*,*,#204,.T.);
#276=ORIENTED_EDGE('',*,*,#206,.F.);
#277=ORIENTED_EDGE('',*,*,#207,.F.);
#278=ORIENTED_EDGE('',*,*,#208,.F.);
#279=ORIENTED_EDGE('',*,*,#207,.T.);
#280=ORIENTED_EDGE('',*,*,#209,.F.);
#281=ORIENTED_EDGE('',*,*,#199,.F.);
#282=ORIENTED_EDGE('',*,*,#200,.T.);
#283=ORIENTED_EDGE('',*,*,#209,.T.);
#284=ORIENTED_EDGE('',*,*,#206,.T.);
#285=ORIENTED_EDGE('',*,*,#203,.T.);
#286=ORIENTED_EDGE('',*,*,#198,.T.);
#287=ORIENTED_EDGE('',*,*,#202,.T.);
#288=ORIENTED_EDGE('',*,*,#205,.T.);
#289=ORIENTED_EDGE('',*,*,#208,.T.);
#290=TOROIDAL_SURFACE('',#324,1.85,0.1);
#291=ADVANCED_FACE('',(#95),#290,.T.);
#292=ADVANCED_FACE('',(#96),#93,.F.);
#293=ADVANCED_FACE('',(#97,#15),#17,.T.);
#294=ADVANCED_FACE('',(#98),#18,.T.);
#295=ADVANCED_FACE('',(#99),#19,.T.);
#296=ADVANCED_FACE('',(#100),#20,.T.);
#297=ADVANCED_FACE('',(#101),#21,.T.);
#298=ADVANCED_FACE('',(#102),#22,.T.);
#299=ADVANCED_FACE('',(#103),#23,.T.);
#300=ADVANCED_FACE('',(#104),#24,.T.);
#301=ADVANCED_FACE('',(#105),#25,.T.);
#302=ADVANCED_FACE('',(#106),#26,.T.);
#303=ADVANCED_FACE('',(#107),#94,.T.);
#304=ADVANCED_FACE('',(#108,#16),#27,.T.);
#305=ADVANCED_FACE('',(#109),#28,.T.);
#306=ADVANCED_FACE('',(#110),#29,.T.);
#307=ADVANCED_FACE('',(#111),#30,.T.);
#308=ADVANCED_FACE('',(#112),#31,.T.);
#309=ADVANCED_FACE('',(#113),#32,.F.);
#310=CLOSED_SHELL('',(#291,#292,#293,#294,#295,#296,#297,#298,#299,#300,
#301,#302,#303,#304,#305,#306,#307,#308,#309));
#311=DERIVED_UNIT_ELEMENT(#313,1.);
#312=DERIVED_UNIT_ELEMENT(#533,-3.);
#313=(
MASS_UNIT()
NAMED_UNIT(*)
SI_UNIT(.KILO.,.GRAM.)
);
#314=DERIVED_UNIT((#311,#312));
#315=MEASURE_REPRESENTATION_ITEM('density measure',
POSITIVE_RATIO_MEASURE(7850.),#314);
#316=PROPERTY_DEFINITION_REPRESENTATION(#321,#318);
#317=PROPERTY_DEFINITION_REPRESENTATION(#322,#319);
#318=REPRESENTATION('material name',(#320),#530);
#319=REPRESENTATION('density',(#315),#530);
#320=DESCRIPTIVE_REPRESENTATION_ITEM('Steel','Steel');
#321=PROPERTY_DEFINITION('material property','material name',#540);
#322=PROPERTY_DEFINITION('material property','density of part',#540);
#323=AXIS2_PLACEMENT_3D('',#443,#353,#354);
#324=AXIS2_PLACEMENT_3D('',#444,#355,#356);
#325=AXIS2_PLACEMENT_3D('',#446,#357,#358);
#326=AXIS2_PLACEMENT_3D('',#448,#359,#360);
#327=AXIS2_PLACEMENT_3D('',#450,#361,#362);
#328=AXIS2_PLACEMENT_3D('',#451,#363,#364);
#329=AXIS2_PLACEMENT_3D('',#452,#365,#366);
#330=AXIS2_PLACEMENT_3D('',#455,#368,#369);
#331=AXIS2_PLACEMENT_3D('',#456,#370,#371);
#332=AXIS2_PLACEMENT_3D('',#458,#372,#373);
#333=AXIS2_PLACEMENT_3D('',#459,#374,#375);
#334=AXIS2_PLACEMENT_3D('',#470,#381,#382);
#335=AXIS2_PLACEMENT_3D('',#473,#384,#385);
#336=AXIS2_PLACEMENT_3D('',#474,#386,#387);
#337=AXIS2_PLACEMENT_3D('',#477,#389,#390);
#338=AXIS2_PLACEMENT_3D('',#478,#391,#392);
#339=AXIS2_PLACEMENT_3D('',#489,#398,#399);
#340=AXIS2_PLACEMENT_3D('',#492,#402,#403);
#341=AXIS2_PLACEMENT_3D('',#493,#404,#405);
#342=AXIS2_PLACEMENT_3D('',#494,#406,#407);
#343=AXIS2_PLACEMENT_3D('',#497,#410,#411);
#344=AXIS2_PLACEMENT_3D('',#498,#412,#413);
#345=AXIS2_PLACEMENT_3D('',#499,#414,#415);
#346=AXIS2_PLACEMENT_3D('',#500,#416,#417);
#347=AXIS2_PLACEMENT_3D('',#502,#419,#420);
#348=AXIS2_PLACEMENT_3D('',#511,#425,#426);
#349=AXIS2_PLACEMENT_3D('',#517,#430,#431);
#350=AXIS2_PLACEMENT_3D('',#523,#435,#436);
#351=AXIS2_PLACEMENT_3D('',#526,#439,#440);
#352=AXIS2_PLACEMENT_3D('',#527,#441,#442);
#353=DIRECTION('axis',(0.,0.,1.));
#354=DIRECTION('refdir',(1.,0.,0.));
#355=DIRECTION('center_axis',(0.,1.,0.));
#356=DIRECTION('ref_axis',(0.,0.,1.));
#357=DIRECTION('center_axis',(0.,-1.,0.));
#358=DIRECTION('ref_axis',(1.,0.,0.));
#359=DIRECTION('center_axis',(-1.,0.,0.));
#360=DIRECTION('ref_axis',(0.,0.,-1.));
#361=DIRECTION('center_axis',(0.,1.,0.));
#362=DIRECTION('ref_axis',(1.,0.,0.));
#363=DIRECTION('center_axis',(0.,1.,0.));
#364=DIRECTION('ref_axis',(1.,0.,0.));
#365=DIRECTION('center_axis',(0.,-1.,0.));
#366=DIRECTION('ref_axis',(1.,0.,0.));
#367=DIRECTION('',(0.,1.,0.));
#368=DIRECTION('center_axis',(0.,1.,0.));
#369=DIRECTION('ref_axis',(1.,0.,0.));
#370=DIRECTION('center_axis',(0.,-1.,0.));
#371=DIRECTION('ref_axis',(1.,0.,0.));
#372=DIRECTION('center_axis',(0.,-1.,0.));
#373=DIRECTION('ref_axis',(1.,0.,0.));
#374=DIRECTION('center_axis',(0.,0.,-1.));
#375=DIRECTION('ref_axis',(1.,0.,0.));
#376=DIRECTION('',(-1.,0.,0.));
#377=DIRECTION('',(0.,-1.,0.));
#378=DIRECTION('',(1.,0.,0.));
#379=DIRECTION('',(1.,0.,0.));
#380=DIRECTION('',(0.,-1.,0.));
#381=DIRECTION('center_axis',(0.,-1.,0.));
#382=DIRECTION('ref_axis',(1.,0.,0.));
#383=DIRECTION('',(0.,0.,-1.));
#384=DIRECTION('center_axis',(0.,-1.,0.));
#385=DIRECTION('ref_axis',(1.,0.,0.));
#386=DIRECTION('center_axis',(0.,-1.,0.));
#387=DIRECTION('ref_axis',(1.,0.,0.));
#388=DIRECTION('',(0.,0.,1.));
#389=DIRECTION('center_axis',(0.,-1.,0.));
#390=DIRECTION('ref_axis',(1.,0.,0.));
#391=DIRECTION('center_axis',(0.,0.,1.));
#392=DIRECTION('ref_axis',(-1.,0.,0.));
#393=DIRECTION('',(1.,0.,0.));
#394=DIRECTION('',(0.,-1.,0.));
#395=DIRECTION('',(-1.,0.,0.));
#396=DIRECTION('',(-1.,0.,0.));
#397=DIRECTION('',(0.,-1.,0.));
#398=DIRECTION('center_axis',(1.,0.,0.));
#399=DIRECTION('ref_axis',(0.,0.,1.));
#400=DIRECTION('',(0.,0.,-1.));
#401=DIRECTION('',(0.,0.,1.));
#402=DIRECTION('center_axis',(0.,-1.,0.));
#403=DIRECTION('ref_axis',(1.,0.,0.));
#404=DIRECTION('center_axis',(0.,-1.,0.));
#405=DIRECTION('ref_axis',(1.,0.,0.));
#406=DIRECTION('center_axis',(-1.,0.,0.));
#407=DIRECTION('ref_axis',(0.,0.,-1.));
#408=DIRECTION('',(0.,0.,1.));
#409=DIRECTION('',(0.,0.,-1.));
#410=DIRECTION('center_axis',(0.,-1.,0.));
#411=DIRECTION('ref_axis',(1.,0.,0.));
#412=DIRECTION('center_axis',(0.,-1.,0.));
#413=DIRECTION('ref_axis',(1.,0.,0.));
#414=DIRECTION('center_axis',(0.,-1.,0.));
#415=DIRECTION('ref_axis',(1.,0.,0.));
#416=DIRECTION('center_axis',(0.,-1.,0.));
#417=DIRECTION('ref_axis',(1.,0.,0.));
#418=DIRECTION('',(0.,1.,0.));
#419=DIRECTION('center_axis',(0.,-1.,0.));
#420=DIRECTION('ref_axis',(1.,0.,0.));
#421=DIRECTION('',(-1.,0.,0.));
#422=DIRECTION('',(0.,0.,1.));
#423=DIRECTION('',(1.,0.,0.));
#424=DIRECTION('',(0.,0.,1.));
#425=DIRECTION('center_axis',(-1.,0.,0.));
#426=DIRECTION('ref_axis',(0.,-1.,0.));
#427=DIRECTION('',(0.,1.,0.));
#428=DIRECTION('',(0.,-1.,0.));
#429=DIRECTION('',(0.,0.,1.));
#430=DIRECTION('center_axis',(0.,1.,0.));
#431=DIRECTION('ref_axis',(-1.,0.,0.));
#432=DIRECTION('',(1.,0.,0.));
#433=DIRECTION('',(-1.,0.,0.));
#434=DIRECTION('',(0.,0.,1.));
#435=DIRECTION('center_axis',(1.,0.,0.));
#436=DIRECTION('ref_axis',(0.,1.,0.));
#437=DIRECTION('',(0.,-1.,0.));
#438=DIRECTION('',(0.,1.,0.));
#439=DIRECTION('center_axis',(0.,0.,1.));
#440=DIRECTION('ref_axis',(1.,0.,0.));
#441=DIRECTION('center_axis',(0.,0.,1.));
#442=DIRECTION('ref_axis',(1.,0.,0.));
#443=CARTESIAN_POINT('',(0.,0.,0.));
#444=CARTESIAN_POINT('Origin',(4.00000005960464,-2.9,2.5000000372529));
#445=CARTESIAN_POINT('',(4.00000005960464,-3.,0.650000037252902));
#446=CARTESIAN_POINT('Origin',(4.00000005960464,-3.,2.5000000372529));
#447=CARTESIAN_POINT('',(4.00000005960464,-2.9,0.750000037252903));
#448=CARTESIAN_POINT('Origin',(4.00000005960464,-2.9,0.650000037252902));
#449=CARTESIAN_POINT('',(2.25000005960464,-2.9,2.5000000372529));
#450=CARTESIAN_POINT('Origin',(4.00000005960464,-2.9,2.5000000372529));
#451=CARTESIAN_POINT('Origin',(4.00000005960464,-2.9,2.5000000372529));
#452=CARTESIAN_POINT('Origin',(4.00000005960464,0.,2.5000000372529));
#453=CARTESIAN_POINT('',(2.25000005960464,10.,2.5000000372529));
#454=CARTESIAN_POINT('',(2.25000005960464,0.,2.5000000372529));
#455=CARTESIAN_POINT('Origin',(4.00000005960464,10.,2.5000000372529));
#456=CARTESIAN_POINT('Origin',(4.00000005960464,-3.,2.5000000372529));
#457=CARTESIAN_POINT('',(2.00000005960464,-3.,2.5000000372529));
#458=CARTESIAN_POINT('Origin',(4.00000005960464,-3.,2.5000000372529));
#459=CARTESIAN_POINT('Origin',(2.00000002980232,0.,0.500000007450581));
#460=CARTESIAN_POINT('',(6.00000008940697,0.,0.500000007450581));
#461=CARTESIAN_POINT('',(2.00000002980232,0.,0.500000007450581));
#462=CARTESIAN_POINT('',(2.42500002030283,0.,0.500000007450581));
#463=CARTESIAN_POINT('',(6.00000008940697,-0.5,0.500000007450581));
#464=CARTESIAN_POINT('',(6.00000008940697,0.,0.500000007450581));
#465=CARTESIAN_POINT('',(4.00000005960464,-0.5,0.500000007450581));
#466=CARTESIAN_POINT('',(6.00000008940697,-0.5,0.500000007450581));
#467=CARTESIAN_POINT('',(2.00000002980232,-0.5,0.500000007450581));
#468=CARTESIAN_POINT('',(2.00000002980232,-0.5,0.500000007450581));
#469=CARTESIAN_POINT('',(2.00000002980232,0.,0.500000007450581));
#470=CARTESIAN_POINT('Origin',(3.00000004470348,-0.5,1.50000002235174));
#471=CARTESIAN_POINT('',(2.00000002980232,-0.5,2.5000000372529));
#472=CARTESIAN_POINT('',(2.00000002980232,-0.5,2.5000000372529));
#473=CARTESIAN_POINT('Origin',(4.00000005960464,-0.5,2.5000000372529));
#474=CARTESIAN_POINT('Origin',(5.00000007450581,-0.5,1.50000002235174));
#475=CARTESIAN_POINT('',(6.00000008940697,-0.5,2.5000000372529));
#476=CARTESIAN_POINT('',(6.00000008940697,-0.5,2.5000000372529));
#477=CARTESIAN_POINT('Origin',(4.00000005960464,-0.5,2.5000000372529));
#478=CARTESIAN_POINT('Origin',(6.00000008940697,0.,4.50000006705523));
#479=CARTESIAN_POINT('',(2.00000002980232,0.,4.50000006705523));
#480=CARTESIAN_POINT('',(6.00000008940697,0.,4.50000006705523));
#481=CARTESIAN_POINT('',(2.42500002030283,0.,4.50000006705523));
#482=CARTESIAN_POINT('',(2.00000002980232,-0.5,4.50000006705523));
#483=CARTESIAN_POINT('',(2.00000002980232,0.,4.50000006705523));
#484=CARTESIAN_POINT('',(4.00000005960464,-0.5,4.50000006705523));
#485=CARTESIAN_POINT('',(2.00000002980232,-0.5,4.50000006705523));
#486=CARTESIAN_POINT('',(6.00000008940697,-0.5,4.50000006705523));
#487=CARTESIAN_POINT('',(6.00000008940697,-0.5,4.50000006705523));
#488=CARTESIAN_POINT('',(6.00000008940697,0.,4.50000006705523));
#489=CARTESIAN_POINT('Origin',(6.00000008940697,0.,2.5000000372529));
#490=CARTESIAN_POINT('',(6.00000008940697,0.,1.25000001862645));
#491=CARTESIAN_POINT('',(6.00000008940697,-0.5,2.5000000372529));
#492=CARTESIAN_POINT('Origin',(5.00000007450581,-0.5,3.50000005215406));
#493=CARTESIAN_POINT('Origin',(4.00000005960464,-0.5,2.5000000372529));
#494=CARTESIAN_POINT('Origin',(2.00000002980232,0.,4.50000006705523));
#495=CARTESIAN_POINT('',(2.00000002980232,0.,2.25000003352761));
#496=CARTESIAN_POINT('',(2.00000002980232,-0.5,2.5000000372529));
#497=CARTESIAN_POINT('Origin',(3.00000004470348,-0.5,3.50000005215406));
#498=CARTESIAN_POINT('Origin',(4.00000005960464,-0.5,2.5000000372529));
#499=CARTESIAN_POINT('Origin',(0.849999981001019,10.,0.));
#500=CARTESIAN_POINT('Origin',(4.00000005960464,0.,2.5000000372529));
#501=CARTESIAN_POINT('',(2.00000005960464,0.,2.5000000372529));
#502=CARTESIAN_POINT('Origin',(0.849999981001019,0.,0.));
#503=CARTESIAN_POINT('',(7.39999983459711,0.,0.));
#504=CARTESIAN_POINT('',(0.849999981001019,0.,0.));
#505=CARTESIAN_POINT('',(7.39999983459711,0.,0.));
#506=CARTESIAN_POINT('',(7.39999983459711,0.,5.));
#507=CARTESIAN_POINT('',(7.39999983459711,0.,0.));
#508=CARTESIAN_POINT('',(0.849999981001019,0.,5.));
#509=CARTESIAN_POINT('',(7.39999983459711,0.,5.));
#510=CARTESIAN_POINT('',(0.849999981001019,0.,0.));
#511=CARTESIAN_POINT('Origin',(0.849999981001019,14.9999996647239,0.));
#512=CARTESIAN_POINT('',(0.849999981001019,14.9999996647239,0.));
#513=CARTESIAN_POINT('',(0.849999981001019,0.,0.));
#514=CARTESIAN_POINT('',(0.849999981001019,14.9999996647239,5.));
#515=CARTESIAN_POINT('',(0.849999981001019,0.,5.));
#516=CARTESIAN_POINT('',(0.849999981001019,14.9999996647239,0.));
#517=CARTESIAN_POINT('Origin',(7.39999983459711,14.9999996647239,0.));
#518=CARTESIAN_POINT('',(7.39999983459711,14.9999996647239,0.));
#519=CARTESIAN_POINT('',(0.849999981001019,14.9999996647239,0.));
#520=CARTESIAN_POINT('',(7.39999983459711,14.9999996647239,5.));
#521=CARTESIAN_POINT('',(0.849999981001019,14.9999996647239,5.));
#522=CARTESIAN_POINT('',(7.39999983459711,14.9999996647239,0.));
#523=CARTESIAN_POINT('Origin',(7.39999983459711,0.,0.));
#524=CARTESIAN_POINT('',(7.39999983459711,14.9999996647239,0.));
#525=CARTESIAN_POINT('',(7.39999983459711,14.9999996647239,5.));
#526=CARTESIAN_POINT('Origin',(4.12499990779907,7.49999983236194,5.));
#527=CARTESIAN_POINT('Origin',(4.12499990779907,7.49999983236194,0.));
#528=UNCERTAINTY_MEASURE_WITH_UNIT(LENGTH_MEASURE(0.01),#532,
'DISTANCE_ACCURACY_VALUE',
'Maximum model space distance between geometric entities at asserted c
onnectivities');
#529=UNCERTAINTY_MEASURE_WITH_UNIT(LENGTH_MEASURE(0.01),#532,
'DISTANCE_ACCURACY_VALUE',
'Maximum model space distance between geometric entities at asserted c
onnectivities');
#530=(
GEOMETRIC_REPRESENTATION_CONTEXT(3)
GLOBAL_UNCERTAINTY_ASSIGNED_CONTEXT((#528))
GLOBAL_UNIT_ASSIGNED_CONTEXT((#532,#534,#535))
REPRESENTATION_CONTEXT('','3D')
);
#531=(
GEOMETRIC_REPRESENTATION_CONTEXT(3)
GLOBAL_UNCERTAINTY_ASSIGNED_CONTEXT((#529))
GLOBAL_UNIT_ASSIGNED_CONTEXT((#532,#534,#535))
REPRESENTATION_CONTEXT('','3D')
);
#532=(
LENGTH_UNIT()
NAMED_UNIT(*)
SI_UNIT(.MILLI.,.METRE.)
);
#533=(
LENGTH_UNIT()
NAMED_UNIT(*)
SI_UNIT($,.METRE.)
);
#534=(
NAMED_UNIT(*)
PLANE_ANGLE_UNIT()
SI_UNIT($,.RADIAN.)
);
#535=(
NAMED_UNIT(*)
SI_UNIT($,.STERADIAN.)
SOLID_ANGLE_UNIT()
);
#536=SHAPE_DEFINITION_REPRESENTATION(#537,#538);
#537=PRODUCT_DEFINITION_SHAPE('',$,#540);
#538=SHAPE_REPRESENTATION('',(#323),#530);
#539=PRODUCT_DEFINITION_CONTEXT('part definition',#544,'design');
#540=PRODUCT_DEFINITION('(Unsaved)','(Unsaved)',#541,#539);
#541=PRODUCT_DEFINITION_FORMATION('',$,#546);
#542=PRODUCT_RELATED_PRODUCT_CATEGORY('(Unsaved)','(Unsaved)',(#546));
#543=APPLICATION_PROTOCOL_DEFINITION('international standard',
'automotive_design',2009,#544);
#544=APPLICATION_CONTEXT(
'Core Data for Automotive Mechanical Design Process');
#545=PRODUCT_CONTEXT('part definition',#544,'mechanical');
#546=PRODUCT('(Unsaved)','(Unsaved)',$,(#545));
#547=PRESENTATION_STYLE_ASSIGNMENT((#548));
#548=SURFACE_STYLE_USAGE(.BOTH.,#549);
#549=SURFACE_SIDE_STYLE('',(#550));
#550=SURFACE_STYLE_FILL_AREA(#551);
#551=FILL_AREA_STYLE('Steel - Satin',(#552));
#552=FILL_AREA_STYLE_COLOUR('Steel - Satin',#553);
#553=COLOUR_RGB('Steel - Satin',0.627450980392157,0.627450980392157,0.627450980392157);
ENDSEC;
END-ISO-10303-21;
