ISO-10303-21;
HEADER;
/* Generated by software containing ST-Developer
 * from STEP Tools, Inc. (www.steptools.com) 
 */

FILE_DESCRIPTION(
/* description */ (''),
/* implementation_level */ '2;1');

FILE_NAME(
/* name */ 'MD-50SGK.step',
/* time_stamp */ '2026-02-01T20:57:16+01:00',
/* author */ (''),
/* organization */ (''),
/* preprocessor_version */ 'ST-DEVELOPER v20.1',
/* originating_system */ 'Autodesk Translation Framework v14.10.0.0',
/* authorisation */ '');

FILE_SCHEMA (('AUTOMOTIVE_DESIGN { 1 0 10303 214 3 1 1 }'));
ENDSEC;

DATA;
#10=MECHANICAL_DESIGN_GEOMETRIC_PRESENTATION_REPRESENTATION('',(#13,#14,
#15),#1375);
#11=SHAPE_REPRESENTATION_RELATIONSHIP('SRR','None',#1382,#12);
#12=ADVANCED_BREP_SHAPE_REPRESENTATION('',(#16,#17,#18),#1374);
#13=STYLED_ITEM('',(#1391),#16);
#14=STYLED_ITEM('',(#1391),#17);
#15=STYLED_ITEM('',(#1391),#18);
#16=MANIFOLD_SOLID_BREP('Body1',#829);
#17=MANIFOLD_SOLID_BREP('Body2',#830);
#18=MANIFOLD_SOLID_BREP('Body3',#831);
#19=FACE_BOUND('',#124,.T.);
#20=FACE_BOUND('',#125,.T.);
#21=FACE_BOUND('',#126,.T.);
#22=FACE_BOUND('',#127,.T.);
#23=FACE_BOUND('',#128,.T.);
#24=FACE_BOUND('',#129,.T.);
#25=FACE_BOUND('',#131,.T.);
#26=FACE_BOUND('',#145,.T.);
#27=CIRCLE('',#850,0.375);
#28=CIRCLE('',#851,0.375);
#29=CIRCLE('',#853,0.375);
#30=CIRCLE('',#854,0.375);
#31=CIRCLE('',#856,0.375);
#32=CIRCLE('',#857,0.375);
#33=CIRCLE('',#859,0.375);
#34=CIRCLE('',#860,0.375);
#35=CIRCLE('',#862,0.375);
#36=CIRCLE('',#863,0.375);
#37=CIRCLE('',#867,3.61650328816239);
#38=CIRCLE('',#868,3.61650328816239);
#39=CIRCLE('',#872,3.61650328816239);
#40=CIRCLE('',#873,3.61650328816239);
#41=CIRCLE('',#878,3.61650328816239);
#42=CIRCLE('',#879,3.61650328816239);
#43=CIRCLE('',#882,5.);
#44=CIRCLE('',#889,5.);
#45=CYLINDRICAL_SURFACE('',#849,0.375);
#46=CYLINDRICAL_SURFACE('',#852,0.375);
#47=CYLINDRICAL_SURFACE('',#855,0.375);
#48=CYLINDRICAL_SURFACE('',#858,0.375);
#49=CYLINDRICAL_SURFACE('',#861,0.375);
#50=CYLINDRICAL_SURFACE('',#866,3.61650328816239);
#51=CYLINDRICAL_SURFACE('',#871,3.61650328816239);
#52=CYLINDRICAL_SURFACE('',#877,3.61650328816239);
#53=CYLINDRICAL_SURFACE('',#888,5.);
#54=FACE_OUTER_BOUND('',#104,.T.);
#55=FACE_OUTER_BOUND('',#105,.T.);
#56=FACE_OUTER_BOUND('',#106,.T.);
#57=FACE_OUTER_BOUND('',#107,.T.);
#58=FACE_OUTER_BOUND('',#108,.T.);
#59=FACE_OUTER_BOUND('',#109,.T.);
#60=FACE_OUTER_BOUND('',#110,.T.);
#61=FACE_OUTER_BOUND('',#111,.T.);
#62=FACE_OUTER_BOUND('',#112,.T.);
#63=FACE_OUTER_BOUND('',#113,.T.);
#64=FACE_OUTER_BOUND('',#114,.T.);
#65=FACE_OUTER_BOUND('',#115,.T.);
#66=FACE_OUTER_BOUND('',#116,.T.);
#67=FACE_OUTER_BOUND('',#117,.T.);
#68=FACE_OUTER_BOUND('',#118,.T.);
#69=FACE_OUTER_BOUND('',#119,.T.);
#70=FACE_OUTER_BOUND('',#120,.T.);
#71=FACE_OUTER_BOUND('',#121,.T.);
#72=FACE_OUTER_BOUND('',#122,.T.);
#73=FACE_OUTER_BOUND('',#123,.T.);
#74=FACE_OUTER_BOUND('',#130,.T.);
#75=FACE_OUTER_BOUND('',#132,.T.);
#76=FACE_OUTER_BOUND('',#133,.T.);
#77=FACE_OUTER_BOUND('',#134,.T.);
#78=FACE_OUTER_BOUND('',#135,.T.);
#79=FACE_OUTER_BOUND('',#136,.T.);
#80=FACE_OUTER_BOUND('',#137,.T.);
#81=FACE_OUTER_BOUND('',#138,.T.);
#82=FACE_OUTER_BOUND('',#139,.T.);
#83=FACE_OUTER_BOUND('',#140,.T.);
#84=FACE_OUTER_BOUND('',#141,.T.);
#85=FACE_OUTER_BOUND('',#142,.T.);
#86=FACE_OUTER_BOUND('',#143,.T.);
#87=FACE_OUTER_BOUND('',#144,.T.);
#88=FACE_OUTER_BOUND('',#146,.T.);
#89=FACE_OUTER_BOUND('',#147,.T.);
#90=FACE_OUTER_BOUND('',#148,.T.);
#91=FACE_OUTER_BOUND('',#149,.T.);
#92=FACE_OUTER_BOUND('',#150,.T.);
#93=FACE_OUTER_BOUND('',#151,.T.);
#94=FACE_OUTER_BOUND('',#152,.T.);
#95=FACE_OUTER_BOUND('',#153,.T.);
#96=FACE_OUTER_BOUND('',#154,.T.);
#97=FACE_OUTER_BOUND('',#155,.T.);
#98=FACE_OUTER_BOUND('',#156,.T.);
#99=FACE_OUTER_BOUND('',#157,.T.);
#100=FACE_OUTER_BOUND('',#158,.T.);
#101=FACE_OUTER_BOUND('',#159,.T.);
#102=FACE_OUTER_BOUND('',#160,.T.);
#103=FACE_OUTER_BOUND('',#161,.T.);
#104=EDGE_LOOP('',(#522,#523,#524,#525));
#105=EDGE_LOOP('',(#526,#527,#528,#529));
#106=EDGE_LOOP('',(#530,#531,#532,#533));
#107=EDGE_LOOP('',(#534,#535,#536,#537));
#108=EDGE_LOOP('',(#538,#539,#540,#541));
#109=EDGE_LOOP('',(#542,#543,#544,#545));
#110=EDGE_LOOP('',(#546,#547,#548,#549));
#111=EDGE_LOOP('',(#550,#551,#552,#553));
#112=EDGE_LOOP('',(#554,#555,#556,#557));
#113=EDGE_LOOP('',(#558,#559,#560,#561));
#114=EDGE_LOOP('',(#562,#563,#564,#565));
#115=EDGE_LOOP('',(#566,#567,#568,#569));
#116=EDGE_LOOP('',(#570,#571,#572,#573));
#117=EDGE_LOOP('',(#574,#575,#576,#577));
#118=EDGE_LOOP('',(#578,#579,#580,#581));
#119=EDGE_LOOP('',(#582,#583,#584,#585));
#120=EDGE_LOOP('',(#586,#587,#588,#589));
#121=EDGE_LOOP('',(#590,#591,#592,#593));
#122=EDGE_LOOP('',(#594,#595,#596,#597));
#123=EDGE_LOOP('',(#598,#599,#600,#601,#602,#603,#604,#605,#606,#607));
#124=EDGE_LOOP('',(#608));
#125=EDGE_LOOP('',(#609));
#126=EDGE_LOOP('',(#610));
#127=EDGE_LOOP('',(#611));
#128=EDGE_LOOP('',(#612));
#129=EDGE_LOOP('',(#613,#614,#615,#616));
#130=EDGE_LOOP('',(#617));
#131=EDGE_LOOP('',(#618,#619,#620,#621,#622,#623,#624,#625,#626,#627));
#132=EDGE_LOOP('',(#628));
#133=EDGE_LOOP('',(#629));
#134=EDGE_LOOP('',(#630));
#135=EDGE_LOOP('',(#631));
#136=EDGE_LOOP('',(#632));
#137=EDGE_LOOP('',(#633,#634,#635,#636));
#138=EDGE_LOOP('',(#637,#638,#639,#640));
#139=EDGE_LOOP('',(#641,#642,#643,#644));
#140=EDGE_LOOP('',(#645,#646,#647,#648));
#141=EDGE_LOOP('',(#649,#650,#651,#652));
#142=EDGE_LOOP('',(#653,#654,#655,#656));
#143=EDGE_LOOP('',(#657,#658,#659,#660));
#144=EDGE_LOOP('',(#661,#662,#663,#664));
#145=EDGE_LOOP('',(#665));
#146=EDGE_LOOP('',(#666,#667,#668,#669));
#147=EDGE_LOOP('',(#670,#671,#672,#673));
#148=EDGE_LOOP('',(#674,#675,#676,#677));
#149=EDGE_LOOP('',(#678,#679,#680,#681));
#150=EDGE_LOOP('',(#682,#683,#684,#685));
#151=EDGE_LOOP('',(#686,#687,#688,#689));
#152=EDGE_LOOP('',(#690,#691,#692,#693,#694,#695));
#153=EDGE_LOOP('',(#696,#697,#698,#699,#700,#701));
#154=EDGE_LOOP('',(#702,#703,#704,#705));
#155=EDGE_LOOP('',(#706,#707,#708,#709));
#156=EDGE_LOOP('',(#710,#711,#712,#713));
#157=EDGE_LOOP('',(#714,#715,#716,#717));
#158=EDGE_LOOP('',(#718,#719,#720,#721));
#159=EDGE_LOOP('',(#722,#723,#724,#725));
#160=EDGE_LOOP('',(#726,#727,#728,#729,#730,#731));
#161=EDGE_LOOP('',(#732,#733,#734,#735,#736,#737));
#162=LINE('',#1145,#252);
#163=LINE('',#1147,#253);
#164=LINE('',#1149,#254);
#165=LINE('',#1150,#255);
#166=LINE('',#1153,#256);
#167=LINE('',#1155,#257);
#168=LINE('',#1156,#258);
#169=LINE('',#1159,#259);
#170=LINE('',#1161,#260);
#171=LINE('',#1162,#261);
#172=LINE('',#1164,#262);
#173=LINE('',#1165,#263);
#174=LINE('',#1170,#264);
#175=LINE('',#1176,#265);
#176=LINE('',#1182,#266);
#177=LINE('',#1188,#267);
#178=LINE('',#1194,#268);
#179=LINE('',#1199,#269);
#180=LINE('',#1201,#270);
#181=LINE('',#1203,#271);
#182=LINE('',#1204,#272);
#183=LINE('',#1207,#273);
#184=LINE('',#1209,#274);
#185=LINE('',#1210,#275);
#186=LINE('',#1216,#276);
#187=LINE('',#1219,#277);
#188=LINE('',#1221,#278);
#189=LINE('',#1222,#279);
#190=LINE('',#1225,#280);
#191=LINE('',#1227,#281);
#192=LINE('',#1228,#282);
#193=LINE('',#1234,#283);
#194=LINE('',#1237,#284);
#195=LINE('',#1239,#285);
#196=LINE('',#1240,#286);
#197=LINE('',#1243,#287);
#198=LINE('',#1245,#288);
#199=LINE('',#1246,#289);
#200=LINE('',#1249,#290);
#201=LINE('',#1251,#291);
#202=LINE('',#1252,#292);
#203=LINE('',#1268,#293);
#204=LINE('',#1273,#294);
#205=LINE('',#1275,#295);
#206=LINE('',#1277,#296);
#207=LINE('',#1278,#297);
#208=LINE('',#1281,#298);
#209=LINE('',#1283,#299);
#210=LINE('',#1284,#300);
#211=LINE('',#1287,#301);
#212=LINE('',#1289,#302);
#213=LINE('',#1290,#303);
#214=LINE('',#1292,#304);
#215=LINE('',#1293,#305);
#216=LINE('',#1299,#306);
#217=LINE('',#1301,#307);
#218=LINE('',#1303,#308);
#219=LINE('',#1304,#309);
#220=LINE('',#1307,#310);
#221=LINE('',#1309,#311);
#222=LINE('',#1310,#312);
#223=LINE('',#1313,#313);
#224=LINE('',#1315,#314);
#225=LINE('',#1316,#315);
#226=LINE('',#1319,#316);
#227=LINE('',#1321,#317);
#228=LINE('',#1322,#318);
#229=LINE('',#1325,#319);
#230=LINE('',#1327,#320);
#231=LINE('',#1328,#321);
#232=LINE('',#1330,#322);
#233=LINE('',#1331,#323);
#234=LINE('',#1337,#324);
#235=LINE('',#1339,#325);
#236=LINE('',#1341,#326);
#237=LINE('',#1342,#327);
#238=LINE('',#1345,#328);
#239=LINE('',#1347,#329);
#240=LINE('',#1348,#330);
#241=LINE('',#1351,#331);
#242=LINE('',#1353,#332);
#243=LINE('',#1354,#333);
#244=LINE('',#1357,#334);
#245=LINE('',#1359,#335);
#246=LINE('',#1360,#336);
#247=LINE('',#1363,#337);
#248=LINE('',#1365,#338);
#249=LINE('',#1366,#339);
#250=LINE('',#1368,#340);
#251=LINE('',#1369,#341);
#252=VECTOR('',#917,10.);
#253=VECTOR('',#918,10.);
#254=VECTOR('',#919,10.);
#255=VECTOR('',#920,10.);
#256=VECTOR('',#923,10.);
#257=VECTOR('',#924,10.);
#258=VECTOR('',#925,10.);
#259=VECTOR('',#928,10.);
#260=VECTOR('',#929,10.);
#261=VECTOR('',#930,10.);
#262=VECTOR('',#933,10.);
#263=VECTOR('',#934,10.);
#264=VECTOR('',#939,0.375);
#265=VECTOR('',#946,0.375);
#266=VECTOR('',#953,0.375);
#267=VECTOR('',#960,0.375);
#268=VECTOR('',#967,0.375);
#269=VECTOR('',#972,10.);
#270=VECTOR('',#973,10.);
#271=VECTOR('',#974,10.);
#272=VECTOR('',#975,10.);
#273=VECTOR('',#978,10.);
#274=VECTOR('',#979,10.);
#275=VECTOR('',#980,10.);
#276=VECTOR('',#987,10.);
#277=VECTOR('',#990,10.);
#278=VECTOR('',#991,10.);
#279=VECTOR('',#992,10.);
#280=VECTOR('',#995,10.);
#281=VECTOR('',#996,10.);
#282=VECTOR('',#997,10.);
#283=VECTOR('',#1004,10.);
#284=VECTOR('',#1007,10.);
#285=VECTOR('',#1008,10.);
#286=VECTOR('',#1009,10.);
#287=VECTOR('',#1012,10.);
#288=VECTOR('',#1013,10.);
#289=VECTOR('',#1014,10.);
#290=VECTOR('',#1017,10.);
#291=VECTOR('',#1018,10.);
#292=VECTOR('',#1019,10.);
#293=VECTOR('',#1046,5.);
#294=VECTOR('',#1051,10.);
#295=VECTOR('',#1052,10.);
#296=VECTOR('',#1053,10.);
#297=VECTOR('',#1054,10.);
#298=VECTOR('',#1057,10.);
#299=VECTOR('',#1058,10.);
#300=VECTOR('',#1059,10.);
#301=VECTOR('',#1062,10.);
#302=VECTOR('',#1063,10.);
#303=VECTOR('',#1064,10.);
#304=VECTOR('',#1067,10.);
#305=VECTOR('',#1068,10.);
#306=VECTOR('',#1075,10.);
#307=VECTOR('',#1076,10.);
#308=VECTOR('',#1077,10.);
#309=VECTOR('',#1078,10.);
#310=VECTOR('',#1081,10.);
#311=VECTOR('',#1082,10.);
#312=VECTOR('',#1083,10.);
#313=VECTOR('',#1086,10.);
#314=VECTOR('',#1087,10.);
#315=VECTOR('',#1088,10.);
#316=VECTOR('',#1091,10.);
#317=VECTOR('',#1092,10.);
#318=VECTOR('',#1093,10.);
#319=VECTOR('',#1096,10.);
#320=VECTOR('',#1097,10.);
#321=VECTOR('',#1098,10.);
#322=VECTOR('',#1101,10.);
#323=VECTOR('',#1102,10.);
#324=VECTOR('',#1109,10.);
#325=VECTOR('',#1110,10.);
#326=VECTOR('',#1111,10.);
#327=VECTOR('',#1112,10.);
#328=VECTOR('',#1115,10.);
#329=VECTOR('',#1116,10.);
#330=VECTOR('',#1117,10.);
#331=VECTOR('',#1120,10.);
#332=VECTOR('',#1121,10.);
#333=VECTOR('',#1122,10.);
#334=VECTOR('',#1125,10.);
#335=VECTOR('',#1126,10.);
#336=VECTOR('',#1127,10.);
#337=VECTOR('',#1130,10.);
#338=VECTOR('',#1131,10.);
#339=VECTOR('',#1132,10.);
#340=VECTOR('',#1135,10.);
#341=VECTOR('',#1136,10.);
#342=VERTEX_POINT('',#1143);
#343=VERTEX_POINT('',#1144);
#344=VERTEX_POINT('',#1146);
#345=VERTEX_POINT('',#1148);
#346=VERTEX_POINT('',#1152);
#347=VERTEX_POINT('',#1154);
#348=VERTEX_POINT('',#1158);
#349=VERTEX_POINT('',#1160);
#350=VERTEX_POINT('',#1167);
#351=VERTEX_POINT('',#1169);
#352=VERTEX_POINT('',#1173);
#353=VERTEX_POINT('',#1175);
#354=VERTEX_POINT('',#1179);
#355=VERTEX_POINT('',#1181);
#356=VERTEX_POINT('',#1185);
#357=VERTEX_POINT('',#1187);
#358=VERTEX_POINT('',#1191);
#359=VERTEX_POINT('',#1193);
#360=VERTEX_POINT('',#1197);
#361=VERTEX_POINT('',#1198);
#362=VERTEX_POINT('',#1200);
#363=VERTEX_POINT('',#1202);
#364=VERTEX_POINT('',#1206);
#365=VERTEX_POINT('',#1208);
#366=VERTEX_POINT('',#1212);
#367=VERTEX_POINT('',#1214);
#368=VERTEX_POINT('',#1218);
#369=VERTEX_POINT('',#1220);
#370=VERTEX_POINT('',#1224);
#371=VERTEX_POINT('',#1226);
#372=VERTEX_POINT('',#1230);
#373=VERTEX_POINT('',#1232);
#374=VERTEX_POINT('',#1236);
#375=VERTEX_POINT('',#1238);
#376=VERTEX_POINT('',#1242);
#377=VERTEX_POINT('',#1244);
#378=VERTEX_POINT('',#1248);
#379=VERTEX_POINT('',#1250);
#380=VERTEX_POINT('',#1258);
#381=VERTEX_POINT('',#1266);
#382=VERTEX_POINT('',#1271);
#383=VERTEX_POINT('',#1272);
#384=VERTEX_POINT('',#1274);
#385=VERTEX_POINT('',#1276);
#386=VERTEX_POINT('',#1280);
#387=VERTEX_POINT('',#1282);
#388=VERTEX_POINT('',#1286);
#389=VERTEX_POINT('',#1288);
#390=VERTEX_POINT('',#1297);
#391=VERTEX_POINT('',#1298);
#392=VERTEX_POINT('',#1300);
#393=VERTEX_POINT('',#1302);
#394=VERTEX_POINT('',#1306);
#395=VERTEX_POINT('',#1308);
#396=VERTEX_POINT('',#1312);
#397=VERTEX_POINT('',#1314);
#398=VERTEX_POINT('',#1318);
#399=VERTEX_POINT('',#1320);
#400=VERTEX_POINT('',#1324);
#401=VERTEX_POINT('',#1326);
#402=VERTEX_POINT('',#1335);
#403=VERTEX_POINT('',#1336);
#404=VERTEX_POINT('',#1338);
#405=VERTEX_POINT('',#1340);
#406=VERTEX_POINT('',#1344);
#407=VERTEX_POINT('',#1346);
#408=VERTEX_POINT('',#1350);
#409=VERTEX_POINT('',#1352);
#410=VERTEX_POINT('',#1356);
#411=VERTEX_POINT('',#1358);
#412=VERTEX_POINT('',#1362);
#413=VERTEX_POINT('',#1364);
#414=EDGE_CURVE('',#342,#343,#162,.T.);
#415=EDGE_CURVE('',#342,#344,#163,.T.);
#416=EDGE_CURVE('',#345,#344,#164,.T.);
#417=EDGE_CURVE('',#343,#345,#165,.T.);
#418=EDGE_CURVE('',#343,#346,#166,.T.);
#419=EDGE_CURVE('',#347,#345,#167,.T.);
#420=EDGE_CURVE('',#346,#347,#168,.T.);
#421=EDGE_CURVE('',#346,#348,#169,.T.);
#422=EDGE_CURVE('',#349,#347,#170,.T.);
#423=EDGE_CURVE('',#348,#349,#171,.T.);
#424=EDGE_CURVE('',#348,#342,#172,.T.);
#425=EDGE_CURVE('',#344,#349,#173,.T.);
#426=EDGE_CURVE('',#350,#350,#27,.T.);
#427=EDGE_CURVE('',#350,#351,#174,.T.);
#428=EDGE_CURVE('',#351,#351,#28,.T.);
#429=EDGE_CURVE('',#352,#352,#29,.T.);
#430=EDGE_CURVE('',#352,#353,#175,.T.);
#431=EDGE_CURVE('',#353,#353,#30,.T.);
#432=EDGE_CURVE('',#354,#354,#31,.T.);
#433=EDGE_CURVE('',#354,#355,#176,.T.);
#434=EDGE_CURVE('',#355,#355,#32,.T.);
#435=EDGE_CURVE('',#356,#356,#33,.T.);
#436=EDGE_CURVE('',#356,#357,#177,.T.);
#437=EDGE_CURVE('',#357,#357,#34,.T.);
#438=EDGE_CURVE('',#358,#358,#35,.T.);
#439=EDGE_CURVE('',#358,#359,#178,.T.);
#440=EDGE_CURVE('',#359,#359,#36,.T.);
#441=EDGE_CURVE('',#360,#361,#179,.T.);
#442=EDGE_CURVE('',#360,#362,#180,.T.);
#443=EDGE_CURVE('',#363,#362,#181,.T.);
#444=EDGE_CURVE('',#361,#363,#182,.T.);
#445=EDGE_CURVE('',#361,#364,#183,.T.);
#446=EDGE_CURVE('',#365,#363,#184,.T.);
#447=EDGE_CURVE('',#364,#365,#185,.T.);
#448=EDGE_CURVE('',#364,#366,#37,.T.);
#449=EDGE_CURVE('',#367,#365,#38,.T.);
#450=EDGE_CURVE('',#366,#367,#186,.T.);
#451=EDGE_CURVE('',#366,#368,#187,.T.);
#452=EDGE_CURVE('',#369,#367,#188,.T.);
#453=EDGE_CURVE('',#368,#369,#189,.T.);
#454=EDGE_CURVE('',#368,#370,#190,.T.);
#455=EDGE_CURVE('',#371,#369,#191,.T.);
#456=EDGE_CURVE('',#370,#371,#192,.T.);
#457=EDGE_CURVE('',#370,#372,#39,.T.);
#458=EDGE_CURVE('',#373,#371,#40,.T.);
#459=EDGE_CURVE('',#372,#373,#193,.T.);
#460=EDGE_CURVE('',#372,#374,#194,.T.);
#461=EDGE_CURVE('',#375,#373,#195,.T.);
#462=EDGE_CURVE('',#374,#375,#196,.T.);
#463=EDGE_CURVE('',#374,#376,#197,.T.);
#464=EDGE_CURVE('',#377,#375,#198,.T.);
#465=EDGE_CURVE('',#376,#377,#199,.T.);
#466=EDGE_CURVE('',#376,#378,#200,.T.);
#467=EDGE_CURVE('',#379,#377,#201,.T.);
#468=EDGE_CURVE('',#378,#379,#202,.T.);
#469=EDGE_CURVE('',#378,#360,#41,.T.);
#470=EDGE_CURVE('',#362,#379,#42,.T.);
#471=EDGE_CURVE('',#380,#380,#43,.T.);
#472=EDGE_CURVE('',#381,#381,#44,.T.);
#473=EDGE_CURVE('',#381,#380,#203,.T.);
#474=EDGE_CURVE('',#382,#383,#204,.T.);
#475=EDGE_CURVE('',#383,#384,#205,.T.);
#476=EDGE_CURVE('',#385,#384,#206,.T.);
#477=EDGE_CURVE('',#382,#385,#207,.T.);
#478=EDGE_CURVE('',#386,#382,#208,.T.);
#479=EDGE_CURVE('',#387,#385,#209,.T.);
#480=EDGE_CURVE('',#386,#387,#210,.T.);
#481=EDGE_CURVE('',#388,#386,#211,.T.);
#482=EDGE_CURVE('',#389,#387,#212,.T.);
#483=EDGE_CURVE('',#388,#389,#213,.T.);
#484=EDGE_CURVE('',#383,#388,#214,.T.);
#485=EDGE_CURVE('',#384,#389,#215,.T.);
#486=EDGE_CURVE('',#390,#391,#216,.T.);
#487=EDGE_CURVE('',#390,#392,#217,.T.);
#488=EDGE_CURVE('',#393,#392,#218,.T.);
#489=EDGE_CURVE('',#391,#393,#219,.T.);
#490=EDGE_CURVE('',#391,#394,#220,.T.);
#491=EDGE_CURVE('',#395,#393,#221,.T.);
#492=EDGE_CURVE('',#394,#395,#222,.T.);
#493=EDGE_CURVE('',#394,#396,#223,.T.);
#494=EDGE_CURVE('',#397,#395,#224,.T.);
#495=EDGE_CURVE('',#396,#397,#225,.T.);
#496=EDGE_CURVE('',#396,#398,#226,.T.);
#497=EDGE_CURVE('',#399,#397,#227,.T.);
#498=EDGE_CURVE('',#398,#399,#228,.T.);
#499=EDGE_CURVE('',#398,#400,#229,.T.);
#500=EDGE_CURVE('',#401,#399,#230,.T.);
#501=EDGE_CURVE('',#400,#401,#231,.T.);
#502=EDGE_CURVE('',#400,#390,#232,.T.);
#503=EDGE_CURVE('',#392,#401,#233,.T.);
#504=EDGE_CURVE('',#402,#403,#234,.T.);
#505=EDGE_CURVE('',#402,#404,#235,.T.);
#506=EDGE_CURVE('',#405,#404,#236,.T.);
#507=EDGE_CURVE('',#403,#405,#237,.T.);
#508=EDGE_CURVE('',#403,#406,#238,.T.);
#509=EDGE_CURVE('',#407,#405,#239,.T.);
#510=EDGE_CURVE('',#406,#407,#240,.T.);
#511=EDGE_CURVE('',#406,#408,#241,.T.);
#512=EDGE_CURVE('',#409,#407,#242,.T.);
#513=EDGE_CURVE('',#408,#409,#243,.T.);
#514=EDGE_CURVE('',#408,#410,#244,.T.);
#515=EDGE_CURVE('',#411,#409,#245,.T.);
#516=EDGE_CURVE('',#410,#411,#246,.T.);
#517=EDGE_CURVE('',#410,#412,#247,.T.);
#518=EDGE_CURVE('',#413,#411,#248,.T.);
#519=EDGE_CURVE('',#412,#413,#249,.T.);
#520=EDGE_CURVE('',#412,#402,#250,.T.);
#521=EDGE_CURVE('',#404,#413,#251,.T.);
#522=ORIENTED_EDGE('',*,*,#414,.F.);
#523=ORIENTED_EDGE('',*,*,#415,.T.);
#524=ORIENTED_EDGE('',*,*,#416,.F.);
#525=ORIENTED_EDGE('',*,*,#417,.F.);
#526=ORIENTED_EDGE('',*,*,#418,.F.);
#527=ORIENTED_EDGE('',*,*,#417,.T.);
#528=ORIENTED_EDGE('',*,*,#419,.F.);
#529=ORIENTED_EDGE('',*,*,#420,.F.);
#530=ORIENTED_EDGE('',*,*,#421,.F.);
#531=ORIENTED_EDGE('',*,*,#420,.T.);
#532=ORIENTED_EDGE('',*,*,#422,.F.);
#533=ORIENTED_EDGE('',*,*,#423,.F.);
#534=ORIENTED_EDGE('',*,*,#424,.F.);
#535=ORIENTED_EDGE('',*,*,#423,.T.);
#536=ORIENTED_EDGE('',*,*,#425,.F.);
#537=ORIENTED_EDGE('',*,*,#415,.F.);
#538=ORIENTED_EDGE('',*,*,#426,.F.);
#539=ORIENTED_EDGE('',*,*,#427,.T.);
#540=ORIENTED_EDGE('',*,*,#428,.F.);
#541=ORIENTED_EDGE('',*,*,#427,.F.);
#542=ORIENTED_EDGE('',*,*,#429,.F.);
#543=ORIENTED_EDGE('',*,*,#430,.T.);
#544=ORIENTED_EDGE('',*,*,#431,.F.);
#545=ORIENTED_EDGE('',*,*,#430,.F.);
#546=ORIENTED_EDGE('',*,*,#432,.F.);
#547=ORIENTED_EDGE('',*,*,#433,.T.);
#548=ORIENTED_EDGE('',*,*,#434,.F.);
#549=ORIENTED_EDGE('',*,*,#433,.F.);
#550=ORIENTED_EDGE('',*,*,#435,.F.);
#551=ORIENTED_EDGE('',*,*,#436,.T.);
#552=ORIENTED_EDGE('',*,*,#437,.F.);
#553=ORIENTED_EDGE('',*,*,#436,.F.);
#554=ORIENTED_EDGE('',*,*,#438,.F.);
#555=ORIENTED_EDGE('',*,*,#439,.T.);
#556=ORIENTED_EDGE('',*,*,#440,.F.);
#557=ORIENTED_EDGE('',*,*,#439,.F.);
#558=ORIENTED_EDGE('',*,*,#441,.F.);
#559=ORIENTED_EDGE('',*,*,#442,.T.);
#560=ORIENTED_EDGE('',*,*,#443,.F.);
#561=ORIENTED_EDGE('',*,*,#444,.F.);
#562=ORIENTED_EDGE('',*,*,#445,.F.);
#563=ORIENTED_EDGE('',*,*,#444,.T.);
#564=ORIENTED_EDGE('',*,*,#446,.F.);
#565=ORIENTED_EDGE('',*,*,#447,.F.);
#566=ORIENTED_EDGE('',*,*,#448,.F.);
#567=ORIENTED_EDGE('',*,*,#447,.T.);
#568=ORIENTED_EDGE('',*,*,#449,.F.);
#569=ORIENTED_EDGE('',*,*,#450,.F.);
#570=ORIENTED_EDGE('',*,*,#451,.F.);
#571=ORIENTED_EDGE('',*,*,#450,.T.);
#572=ORIENTED_EDGE('',*,*,#452,.F.);
#573=ORIENTED_EDGE('',*,*,#453,.F.);
#574=ORIENTED_EDGE('',*,*,#454,.F.);
#575=ORIENTED_EDGE('',*,*,#453,.T.);
#576=ORIENTED_EDGE('',*,*,#455,.F.);
#577=ORIENTED_EDGE('',*,*,#456,.F.);
#578=ORIENTED_EDGE('',*,*,#457,.F.);
#579=ORIENTED_EDGE('',*,*,#456,.T.);
#580=ORIENTED_EDGE('',*,*,#458,.F.);
#581=ORIENTED_EDGE('',*,*,#459,.F.);
#582=ORIENTED_EDGE('',*,*,#460,.F.);
#583=ORIENTED_EDGE('',*,*,#459,.T.);
#584=ORIENTED_EDGE('',*,*,#461,.F.);
#585=ORIENTED_EDGE('',*,*,#462,.F.);
#586=ORIENTED_EDGE('',*,*,#463,.F.);
#587=ORIENTED_EDGE('',*,*,#462,.T.);
#588=ORIENTED_EDGE('',*,*,#464,.F.);
#589=ORIENTED_EDGE('',*,*,#465,.F.);
#590=ORIENTED_EDGE('',*,*,#466,.F.);
#591=ORIENTED_EDGE('',*,*,#465,.T.);
#592=ORIENTED_EDGE('',*,*,#467,.F.);
#593=ORIENTED_EDGE('',*,*,#468,.F.);
#594=ORIENTED_EDGE('',*,*,#469,.F.);
#595=ORIENTED_EDGE('',*,*,#468,.T.);
#596=ORIENTED_EDGE('',*,*,#470,.F.);
#597=ORIENTED_EDGE('',*,*,#442,.F.);
#598=ORIENTED_EDGE('',*,*,#470,.T.);
#599=ORIENTED_EDGE('',*,*,#467,.T.);
#600=ORIENTED_EDGE('',*,*,#464,.T.);
#601=ORIENTED_EDGE('',*,*,#461,.T.);
#602=ORIENTED_EDGE('',*,*,#458,.T.);
#603=ORIENTED_EDGE('',*,*,#455,.T.);
#604=ORIENTED_EDGE('',*,*,#452,.T.);
#605=ORIENTED_EDGE('',*,*,#449,.T.);
#606=ORIENTED_EDGE('',*,*,#446,.T.);
#607=ORIENTED_EDGE('',*,*,#443,.T.);
#608=ORIENTED_EDGE('',*,*,#438,.T.);
#609=ORIENTED_EDGE('',*,*,#435,.T.);
#610=ORIENTED_EDGE('',*,*,#432,.T.);
#611=ORIENTED_EDGE('',*,*,#429,.T.);
#612=ORIENTED_EDGE('',*,*,#426,.T.);
#613=ORIENTED_EDGE('',*,*,#425,.T.);
#614=ORIENTED_EDGE('',*,*,#422,.T.);
#615=ORIENTED_EDGE('',*,*,#419,.T.);
#616=ORIENTED_EDGE('',*,*,#416,.T.);
#617=ORIENTED_EDGE('',*,*,#471,.F.);
#618=ORIENTED_EDGE('',*,*,#441,.T.);
#619=ORIENTED_EDGE('',*,*,#445,.T.);
#620=ORIENTED_EDGE('',*,*,#448,.T.);
#621=ORIENTED_EDGE('',*,*,#451,.T.);
#622=ORIENTED_EDGE('',*,*,#454,.T.);
#623=ORIENTED_EDGE('',*,*,#457,.T.);
#624=ORIENTED_EDGE('',*,*,#460,.T.);
#625=ORIENTED_EDGE('',*,*,#463,.T.);
#626=ORIENTED_EDGE('',*,*,#466,.T.);
#627=ORIENTED_EDGE('',*,*,#469,.T.);
#628=ORIENTED_EDGE('',*,*,#440,.T.);
#629=ORIENTED_EDGE('',*,*,#437,.T.);
#630=ORIENTED_EDGE('',*,*,#434,.T.);
#631=ORIENTED_EDGE('',*,*,#431,.T.);
#632=ORIENTED_EDGE('',*,*,#428,.T.);
#633=ORIENTED_EDGE('',*,*,#472,.F.);
#634=ORIENTED_EDGE('',*,*,#473,.T.);
#635=ORIENTED_EDGE('',*,*,#471,.T.);
#636=ORIENTED_EDGE('',*,*,#473,.F.);
#637=ORIENTED_EDGE('',*,*,#414,.T.);
#638=ORIENTED_EDGE('',*,*,#418,.T.);
#639=ORIENTED_EDGE('',*,*,#421,.T.);
#640=ORIENTED_EDGE('',*,*,#424,.T.);
#641=ORIENTED_EDGE('',*,*,#474,.T.);
#642=ORIENTED_EDGE('',*,*,#475,.T.);
#643=ORIENTED_EDGE('',*,*,#476,.F.);
#644=ORIENTED_EDGE('',*,*,#477,.F.);
#645=ORIENTED_EDGE('',*,*,#478,.T.);
#646=ORIENTED_EDGE('',*,*,#477,.T.);
#647=ORIENTED_EDGE('',*,*,#479,.F.);
#648=ORIENTED_EDGE('',*,*,#480,.F.);
#649=ORIENTED_EDGE('',*,*,#481,.T.);
#650=ORIENTED_EDGE('',*,*,#480,.T.);
#651=ORIENTED_EDGE('',*,*,#482,.F.);
#652=ORIENTED_EDGE('',*,*,#483,.F.);
#653=ORIENTED_EDGE('',*,*,#484,.T.);
#654=ORIENTED_EDGE('',*,*,#483,.T.);
#655=ORIENTED_EDGE('',*,*,#485,.F.);
#656=ORIENTED_EDGE('',*,*,#475,.F.);
#657=ORIENTED_EDGE('',*,*,#485,.T.);
#658=ORIENTED_EDGE('',*,*,#482,.T.);
#659=ORIENTED_EDGE('',*,*,#479,.T.);
#660=ORIENTED_EDGE('',*,*,#476,.T.);
#661=ORIENTED_EDGE('',*,*,#484,.F.);
#662=ORIENTED_EDGE('',*,*,#474,.F.);
#663=ORIENTED_EDGE('',*,*,#478,.F.);
#664=ORIENTED_EDGE('',*,*,#481,.F.);
#665=ORIENTED_EDGE('',*,*,#472,.T.);
#666=ORIENTED_EDGE('',*,*,#486,.F.);
#667=ORIENTED_EDGE('',*,*,#487,.T.);
#668=ORIENTED_EDGE('',*,*,#488,.F.);
#669=ORIENTED_EDGE('',*,*,#489,.F.);
#670=ORIENTED_EDGE('',*,*,#490,.F.);
#671=ORIENTED_EDGE('',*,*,#489,.T.);
#672=ORIENTED_EDGE('',*,*,#491,.F.);
#673=ORIENTED_EDGE('',*,*,#492,.F.);
#674=ORIENTED_EDGE('',*,*,#493,.F.);
#675=ORIENTED_EDGE('',*,*,#492,.T.);
#676=ORIENTED_EDGE('',*,*,#494,.F.);
#677=ORIENTED_EDGE('',*,*,#495,.F.);
#678=ORIENTED_EDGE('',*,*,#496,.F.);
#679=ORIENTED_EDGE('',*,*,#495,.T.);
#680=ORIENTED_EDGE('',*,*,#497,.F.);
#681=ORIENTED_EDGE('',*,*,#498,.F.);
#682=ORIENTED_EDGE('',*,*,#499,.F.);
#683=ORIENTED_EDGE('',*,*,#498,.T.);
#684=ORIENTED_EDGE('',*,*,#500,.F.);
#685=ORIENTED_EDGE('',*,*,#501,.F.);
#686=ORIENTED_EDGE('',*,*,#502,.F.);
#687=ORIENTED_EDGE('',*,*,#501,.T.);
#688=ORIENTED_EDGE('',*,*,#503,.F.);
#689=ORIENTED_EDGE('',*,*,#487,.F.);
#690=ORIENTED_EDGE('',*,*,#503,.T.);
#691=ORIENTED_EDGE('',*,*,#500,.T.);
#692=ORIENTED_EDGE('',*,*,#497,.T.);
#693=ORIENTED_EDGE('',*,*,#494,.T.);
#694=ORIENTED_EDGE('',*,*,#491,.T.);
#695=ORIENTED_EDGE('',*,*,#488,.T.);
#696=ORIENTED_EDGE('',*,*,#502,.T.);
#697=ORIENTED_EDGE('',*,*,#486,.T.);
#698=ORIENTED_EDGE('',*,*,#490,.T.);
#699=ORIENTED_EDGE('',*,*,#493,.T.);
#700=ORIENTED_EDGE('',*,*,#496,.T.);
#701=ORIENTED_EDGE('',*,*,#499,.T.);
#702=ORIENTED_EDGE('',*,*,#504,.F.);
#703=ORIENTED_EDGE('',*,*,#505,.T.);
#704=ORIENTED_EDGE('',*,*,#506,.F.);
#705=ORIENTED_EDGE('',*,*,#507,.F.);
#706=ORIENTED_EDGE('',*,*,#508,.F.);
#707=ORIENTED_EDGE('',*,*,#507,.T.);
#708=ORIENTED_EDGE('',*,*,#509,.F.);
#709=ORIENTED_EDGE('',*,*,#510,.F.);
#710=ORIENTED_EDGE('',*,*,#511,.F.);
#711=ORIENTED_EDGE('',*,*,#510,.T.);
#712=ORIENTED_EDGE('',*,*,#512,.F.);
#713=ORIENTED_EDGE('',*,*,#513,.F.);
#714=ORIENTED_EDGE('',*,*,#514,.F.);
#715=ORIENTED_EDGE('',*,*,#513,.T.);
#716=ORIENTED_EDGE('',*,*,#515,.F.);
#717=ORIENTED_EDGE('',*,*,#516,.F.);
#718=ORIENTED_EDGE('',*,*,#517,.F.);
#719=ORIENTED_EDGE('',*,*,#516,.T.);
#720=ORIENTED_EDGE('',*,*,#518,.F.);
#721=ORIENTED_EDGE('',*,*,#519,.F.);
#722=ORIENTED_EDGE('',*,*,#520,.F.);
#723=ORIENTED_EDGE('',*,*,#519,.T.);
#724=ORIENTED_EDGE('',*,*,#521,.F.);
#725=ORIENTED_EDGE('',*,*,#505,.F.);
#726=ORIENTED_EDGE('',*,*,#521,.T.);
#727=ORIENTED_EDGE('',*,*,#518,.T.);
#728=ORIENTED_EDGE('',*,*,#515,.T.);
#729=ORIENTED_EDGE('',*,*,#512,.T.);
#730=ORIENTED_EDGE('',*,*,#509,.T.);
#731=ORIENTED_EDGE('',*,*,#506,.T.);
#732=ORIENTED_EDGE('',*,*,#520,.T.);
#733=ORIENTED_EDGE('',*,*,#504,.T.);
#734=ORIENTED_EDGE('',*,*,#508,.T.);
#735=ORIENTED_EDGE('',*,*,#511,.T.);
#736=ORIENTED_EDGE('',*,*,#514,.T.);
#737=ORIENTED_EDGE('',*,*,#517,.T.);
#738=PLANE('',#845);
#739=PLANE('',#846);
#740=PLANE('',#847);
#741=PLANE('',#848);
#742=PLANE('',#864);
#743=PLANE('',#865);
#744=PLANE('',#869);
#745=PLANE('',#870);
#746=PLANE('',#874);
#747=PLANE('',#875);
#748=PLANE('',#876);
#749=PLANE('',#880);
#750=PLANE('',#881);
#751=PLANE('',#883);
#752=PLANE('',#884);
#753=PLANE('',#885);
#754=PLANE('',#886);
#755=PLANE('',#887);
#756=PLANE('',#890);
#757=PLANE('',#891);
#758=PLANE('',#892);
#759=PLANE('',#893);
#760=PLANE('',#894);
#761=PLANE('',#895);
#762=PLANE('',#896);
#763=PLANE('',#897);
#764=PLANE('',#898);
#765=PLANE('',#899);
#766=PLANE('',#900);
#767=PLANE('',#901);
#768=PLANE('',#902);
#769=PLANE('',#903);
#770=PLANE('',#904);
#771=PLANE('',#905);
#772=PLANE('',#906);
#773=PLANE('',#907);
#774=PLANE('',#908);
#775=PLANE('',#909);
#776=PLANE('',#910);
#777=PLANE('',#911);
#778=PLANE('',#912);
#779=ADVANCED_FACE('',(#54),#738,.T.);
#780=ADVANCED_FACE('',(#55),#739,.T.);
#781=ADVANCED_FACE('',(#56),#740,.T.);
#782=ADVANCED_FACE('',(#57),#741,.T.);
#783=ADVANCED_FACE('',(#58),#45,.F.);
#784=ADVANCED_FACE('',(#59),#46,.F.);
#785=ADVANCED_FACE('',(#60),#47,.F.);
#786=ADVANCED_FACE('',(#61),#48,.F.);
#787=ADVANCED_FACE('',(#62),#49,.F.);
#788=ADVANCED_FACE('',(#63),#742,.T.);
#789=ADVANCED_FACE('',(#64),#743,.T.);
#790=ADVANCED_FACE('',(#65),#50,.T.);
#791=ADVANCED_FACE('',(#66),#744,.T.);
#792=ADVANCED_FACE('',(#67),#745,.T.);
#793=ADVANCED_FACE('',(#68),#51,.T.);
#794=ADVANCED_FACE('',(#69),#746,.T.);
#795=ADVANCED_FACE('',(#70),#747,.T.);
#796=ADVANCED_FACE('',(#71),#748,.T.);
#797=ADVANCED_FACE('',(#72),#52,.T.);
#798=ADVANCED_FACE('',(#73,#19,#20,#21,#22,#23,#24),#749,.T.);
#799=ADVANCED_FACE('',(#74,#25),#750,.F.);
#800=ADVANCED_FACE('',(#75),#751,.F.);
#801=ADVANCED_FACE('',(#76),#752,.F.);
#802=ADVANCED_FACE('',(#77),#753,.F.);
#803=ADVANCED_FACE('',(#78),#754,.F.);
#804=ADVANCED_FACE('',(#79),#755,.F.);
#805=ADVANCED_FACE('',(#80),#53,.F.);
#806=ADVANCED_FACE('',(#81),#756,.F.);
#807=ADVANCED_FACE('',(#82),#757,.T.);
#808=ADVANCED_FACE('',(#83),#758,.T.);
#809=ADVANCED_FACE('',(#84),#759,.T.);
#810=ADVANCED_FACE('',(#85),#760,.T.);
#811=ADVANCED_FACE('',(#86),#761,.T.);
#812=ADVANCED_FACE('',(#87,#26),#762,.F.);
#813=ADVANCED_FACE('',(#88),#763,.T.);
#814=ADVANCED_FACE('',(#89),#764,.T.);
#815=ADVANCED_FACE('',(#90),#765,.T.);
#816=ADVANCED_FACE('',(#91),#766,.T.);
#817=ADVANCED_FACE('',(#92),#767,.T.);
#818=ADVANCED_FACE('',(#93),#768,.T.);
#819=ADVANCED_FACE('',(#94),#769,.T.);
#820=ADVANCED_FACE('',(#95),#770,.F.);
#821=ADVANCED_FACE('',(#96),#771,.T.);
#822=ADVANCED_FACE('',(#97),#772,.T.);
#823=ADVANCED_FACE('',(#98),#773,.T.);
#824=ADVANCED_FACE('',(#99),#774,.T.);
#825=ADVANCED_FACE('',(#100),#775,.T.);
#826=ADVANCED_FACE('',(#101),#776,.T.);
#827=ADVANCED_FACE('',(#102),#777,.T.);
#828=ADVANCED_FACE('',(#103),#778,.F.);
#829=CLOSED_SHELL('',(#779,#780,#781,#782,#783,#784,#785,#786,#787,#788,
#789,#790,#791,#792,#793,#794,#795,#796,#797,#798,#799,#800,#801,#802,#803,
#804,#805,#806,#807,#808,#809,#810,#811,#812));
#830=CLOSED_SHELL('',(#813,#814,#815,#816,#817,#818,#819,#820));
#831=CLOSED_SHELL('',(#821,#822,#823,#824,#825,#826,#827,#828));
#832=DERIVED_UNIT_ELEMENT(#834,1.);
#833=DERIVED_UNIT_ELEMENT(#1377,-3.);
#834=(
MASS_UNIT()
NAMED_UNIT(*)
SI_UNIT(.KILO.,.GRAM.)
);
#835=DERIVED_UNIT((#832,#833));
#836=MEASURE_REPRESENTATION_ITEM('density measure',
POSITIVE_RATIO_MEASURE(7850.),#835);
#837=PROPERTY_DEFINITION_REPRESENTATION(#842,#839);
#838=PROPERTY_DEFINITION_REPRESENTATION(#843,#840);
#839=REPRESENTATION('material name',(#841),#1374);
#840=REPRESENTATION('density',(#836),#1374);
#841=DESCRIPTIVE_REPRESENTATION_ITEM('Steel','Steel');
#842=PROPERTY_DEFINITION('material property','material name',#1384);
#843=PROPERTY_DEFINITION('material property','density of part',#1384);
#844=AXIS2_PLACEMENT_3D('',#1141,#913,#914);
#845=AXIS2_PLACEMENT_3D('',#1142,#915,#916);
#846=AXIS2_PLACEMENT_3D('',#1151,#921,#922);
#847=AXIS2_PLACEMENT_3D('',#1157,#926,#927);
#848=AXIS2_PLACEMENT_3D('',#1163,#931,#932);
#849=AXIS2_PLACEMENT_3D('',#1166,#935,#936);
#850=AXIS2_PLACEMENT_3D('',#1168,#937,#938);
#851=AXIS2_PLACEMENT_3D('',#1171,#940,#941);
#852=AXIS2_PLACEMENT_3D('',#1172,#942,#943);
#853=AXIS2_PLACEMENT_3D('',#1174,#944,#945);
#854=AXIS2_PLACEMENT_3D('',#1177,#947,#948);
#855=AXIS2_PLACEMENT_3D('',#1178,#949,#950);
#856=AXIS2_PLACEMENT_3D('',#1180,#951,#952);
#857=AXIS2_PLACEMENT_3D('',#1183,#954,#955);
#858=AXIS2_PLACEMENT_3D('',#1184,#956,#957);
#859=AXIS2_PLACEMENT_3D('',#1186,#958,#959);
#860=AXIS2_PLACEMENT_3D('',#1189,#961,#962);
#861=AXIS2_PLACEMENT_3D('',#1190,#963,#964);
#862=AXIS2_PLACEMENT_3D('',#1192,#965,#966);
#863=AXIS2_PLACEMENT_3D('',#1195,#968,#969);
#864=AXIS2_PLACEMENT_3D('',#1196,#970,#971);
#865=AXIS2_PLACEMENT_3D('',#1205,#976,#977);
#866=AXIS2_PLACEMENT_3D('',#1211,#981,#982);
#867=AXIS2_PLACEMENT_3D('',#1213,#983,#984);
#868=AXIS2_PLACEMENT_3D('',#1215,#985,#986);
#869=AXIS2_PLACEMENT_3D('',#1217,#988,#989);
#870=AXIS2_PLACEMENT_3D('',#1223,#993,#994);
#871=AXIS2_PLACEMENT_3D('',#1229,#998,#999);
#872=AXIS2_PLACEMENT_3D('',#1231,#1000,#1001);
#873=AXIS2_PLACEMENT_3D('',#1233,#1002,#1003);
#874=AXIS2_PLACEMENT_3D('',#1235,#1005,#1006);
#875=AXIS2_PLACEMENT_3D('',#1241,#1010,#1011);
#876=AXIS2_PLACEMENT_3D('',#1247,#1015,#1016);
#877=AXIS2_PLACEMENT_3D('',#1253,#1020,#1021);
#878=AXIS2_PLACEMENT_3D('',#1254,#1022,#1023);
#879=AXIS2_PLACEMENT_3D('',#1255,#1024,#1025);
#880=AXIS2_PLACEMENT_3D('',#1256,#1026,#1027);
#881=AXIS2_PLACEMENT_3D('',#1257,#1028,#1029);
#882=AXIS2_PLACEMENT_3D('',#1259,#1030,#1031);
#883=AXIS2_PLACEMENT_3D('',#1260,#1032,#1033);
#884=AXIS2_PLACEMENT_3D('',#1261,#1034,#1035);
#885=AXIS2_PLACEMENT_3D('',#1262,#1036,#1037);
#886=AXIS2_PLACEMENT_3D('',#1263,#1038,#1039);
#887=AXIS2_PLACEMENT_3D('',#1264,#1040,#1041);
#888=AXIS2_PLACEMENT_3D('',#1265,#1042,#1043);
#889=AXIS2_PLACEMENT_3D('',#1267,#1044,#1045);
#890=AXIS2_PLACEMENT_3D('',#1269,#1047,#1048);
#891=AXIS2_PLACEMENT_3D('',#1270,#1049,#1050);
#892=AXIS2_PLACEMENT_3D('',#1279,#1055,#1056);
#893=AXIS2_PLACEMENT_3D('',#1285,#1060,#1061);
#894=AXIS2_PLACEMENT_3D('',#1291,#1065,#1066);
#895=AXIS2_PLACEMENT_3D('',#1294,#1069,#1070);
#896=AXIS2_PLACEMENT_3D('',#1295,#1071,#1072);
#897=AXIS2_PLACEMENT_3D('',#1296,#1073,#1074);
#898=AXIS2_PLACEMENT_3D('',#1305,#1079,#1080);
#899=AXIS2_PLACEMENT_3D('',#1311,#1084,#1085);
#900=AXIS2_PLACEMENT_3D('',#1317,#1089,#1090);
#901=AXIS2_PLACEMENT_3D('',#1323,#1094,#1095);
#902=AXIS2_PLACEMENT_3D('',#1329,#1099,#1100);
#903=AXIS2_PLACEMENT_3D('',#1332,#1103,#1104);
#904=AXIS2_PLACEMENT_3D('',#1333,#1105,#1106);
#905=AXIS2_PLACEMENT_3D('',#1334,#1107,#1108);
#906=AXIS2_PLACEMENT_3D('',#1343,#1113,#1114);
#907=AXIS2_PLACEMENT_3D('',#1349,#1118,#1119);
#908=AXIS2_PLACEMENT_3D('',#1355,#1123,#1124);
#909=AXIS2_PLACEMENT_3D('',#1361,#1128,#1129);
#910=AXIS2_PLACEMENT_3D('',#1367,#1133,#1134);
#911=AXIS2_PLACEMENT_3D('',#1370,#1137,#1138);
#912=AXIS2_PLACEMENT_3D('',#1371,#1139,#1140);
#913=DIRECTION('axis',(0.,0.,1.));
#914=DIRECTION('refdir',(1.,0.,0.));
#915=DIRECTION('center_axis',(0.,0.,-1.));
#916=DIRECTION('ref_axis',(-1.,0.,0.));
#917=DIRECTION('',(1.,0.,0.));
#918=DIRECTION('',(0.,1.,0.));
#919=DIRECTION('',(-1.,0.,0.));
#920=DIRECTION('',(0.,1.,0.));
#921=DIRECTION('center_axis',(-1.,0.,0.));
#922=DIRECTION('ref_axis',(0.,0.,1.));
#923=DIRECTION('',(0.,2.22044604925031E-16,-1.));
#924=DIRECTION('',(0.,0.,1.));
#925=DIRECTION('',(0.,1.,0.));
#926=DIRECTION('center_axis',(0.,0.,1.));
#927=DIRECTION('ref_axis',(1.,0.,0.));
#928=DIRECTION('',(-1.,0.,0.));
#929=DIRECTION('',(1.,0.,0.));
#930=DIRECTION('',(0.,1.,0.));
#931=DIRECTION('center_axis',(1.,0.,0.));
#932=DIRECTION('ref_axis',(0.,0.,-1.));
#933=DIRECTION('',(0.,-2.22044604925031E-16,1.));
#934=DIRECTION('',(0.,0.,-1.));
#935=DIRECTION('center_axis',(0.,1.,0.));
#936=DIRECTION('ref_axis',(-1.,0.,0.));
#937=DIRECTION('center_axis',(0.,-1.,0.));
#938=DIRECTION('ref_axis',(-1.,0.,0.));
#939=DIRECTION('',(0.,-1.,0.));
#940=DIRECTION('center_axis',(0.,1.,2.22044604925031E-16));
#941=DIRECTION('ref_axis',(-1.,0.,0.));
#942=DIRECTION('center_axis',(0.,1.,0.));
#943=DIRECTION('ref_axis',(-1.,0.,0.));
#944=DIRECTION('center_axis',(0.,-1.,0.));
#945=DIRECTION('ref_axis',(-1.,0.,0.));
#946=DIRECTION('',(0.,-1.,0.));
#947=DIRECTION('center_axis',(0.,1.,2.22044604925031E-16));
#948=DIRECTION('ref_axis',(-1.,0.,0.));
#949=DIRECTION('center_axis',(0.,1.,0.));
#950=DIRECTION('ref_axis',(-1.,0.,0.));
#951=DIRECTION('center_axis',(0.,-1.,0.));
#952=DIRECTION('ref_axis',(-1.,0.,0.));
#953=DIRECTION('',(0.,-1.,0.));
#954=DIRECTION('center_axis',(0.,1.,2.22044604925031E-16));
#955=DIRECTION('ref_axis',(-1.,0.,0.));
#956=DIRECTION('center_axis',(0.,1.,0.));
#957=DIRECTION('ref_axis',(-1.,0.,0.));
#958=DIRECTION('center_axis',(0.,-1.,0.));
#959=DIRECTION('ref_axis',(-1.,0.,0.));
#960=DIRECTION('',(0.,-1.,0.));
#961=DIRECTION('center_axis',(0.,1.,2.22044604925031E-16));
#962=DIRECTION('ref_axis',(-1.,0.,0.));
#963=DIRECTION('center_axis',(0.,1.,0.));
#964=DIRECTION('ref_axis',(-1.,0.,0.));
#965=DIRECTION('center_axis',(0.,-1.,0.));
#966=DIRECTION('ref_axis',(-1.,0.,0.));
#967=DIRECTION('',(0.,-1.,0.));
#968=DIRECTION('center_axis',(0.,1.,2.22044604925031E-16));
#969=DIRECTION('ref_axis',(-1.,0.,0.));
#970=DIRECTION('center_axis',(0.,0.,-1.));
#971=DIRECTION('ref_axis',(-1.,0.,0.));
#972=DIRECTION('',(1.,0.,0.));
#973=DIRECTION('',(0.,1.,0.));
#974=DIRECTION('',(-1.,0.,0.));
#975=DIRECTION('',(0.,1.,0.));
#976=DIRECTION('center_axis',(-1.,0.,0.));
#977=DIRECTION('ref_axis',(0.,0.,1.));
#978=DIRECTION('',(0.,2.22044604925031E-16,-1.));
#979=DIRECTION('',(0.,0.,1.));
#980=DIRECTION('',(0.,1.,0.));
#981=DIRECTION('center_axis',(0.,1.,0.));
#982=DIRECTION('ref_axis',(-1.,0.,0.));
#983=DIRECTION('center_axis',(0.,-1.,-2.22044604925031E-16));
#984=DIRECTION('ref_axis',(-1.,0.,0.));
#985=DIRECTION('center_axis',(0.,1.,0.));
#986=DIRECTION('ref_axis',(-1.,0.,0.));
#987=DIRECTION('',(0.,1.,0.));
#988=DIRECTION('center_axis',(1.,0.,0.));
#989=DIRECTION('ref_axis',(0.,0.,-1.));
#990=DIRECTION('',(0.,-2.22044604925031E-16,1.));
#991=DIRECTION('',(0.,0.,-1.));
#992=DIRECTION('',(0.,1.,0.));
#993=DIRECTION('center_axis',(0.,0.,-1.));
#994=DIRECTION('ref_axis',(-1.,0.,0.));
#995=DIRECTION('',(1.,0.,0.));
#996=DIRECTION('',(-1.,0.,0.));
#997=DIRECTION('',(0.,1.,0.));
#998=DIRECTION('center_axis',(0.,1.,0.));
#999=DIRECTION('ref_axis',(0.922427233154346,0.,0.386170946000885));
#1000=DIRECTION('center_axis',(0.,-1.,-2.22044604925031E-16));
#1001=DIRECTION('ref_axis',(-1.,0.,0.));
#1002=DIRECTION('center_axis',(0.,1.,0.));
#1003=DIRECTION('ref_axis',(-1.,0.,0.));
#1004=DIRECTION('',(0.,1.,0.));
#1005=DIRECTION('center_axis',(-1.,0.,0.));
#1006=DIRECTION('ref_axis',(0.,0.,1.));
#1007=DIRECTION('',(0.,2.22044604925031E-16,-1.));
#1008=DIRECTION('',(0.,0.,1.));
#1009=DIRECTION('',(0.,1.,0.));
#1010=DIRECTION('center_axis',(0.,0.,1.));
#1011=DIRECTION('ref_axis',(1.,0.,0.));
#1012=DIRECTION('',(-1.,0.,0.));
#1013=DIRECTION('',(1.,0.,0.));
#1014=DIRECTION('',(0.,1.,0.));
#1015=DIRECTION('center_axis',(1.,0.,0.));
#1016=DIRECTION('ref_axis',(0.,0.,-1.));
#1017=DIRECTION('',(0.,-2.22044604925031E-16,1.));
#1018=DIRECTION('',(0.,0.,-1.));
#1019=DIRECTION('',(0.,1.,0.));
#1020=DIRECTION('center_axis',(0.,1.,0.));
#1021=DIRECTION('ref_axis',(-1.,0.,0.));
#1022=DIRECTION('center_axis',(0.,-1.,-2.22044604925031E-16));
#1023=DIRECTION('ref_axis',(-1.,0.,0.));
#1024=DIRECTION('center_axis',(0.,1.,0.));
#1025=DIRECTION('ref_axis',(-1.,0.,0.));
#1026=DIRECTION('center_axis',(0.,1.,0.));
#1027=DIRECTION('ref_axis',(-1.,0.,0.));
#1028=DIRECTION('center_axis',(0.,-1.,-2.22044604925031E-16));
#1029=DIRECTION('ref_axis',(-1.,0.,0.));
#1030=DIRECTION('center_axis',(0.,-1.,-2.22044604925031E-16));
#1031=DIRECTION('ref_axis',(-1.,0.,0.));
#1032=DIRECTION('center_axis',(0.,-1.,-2.22044604925031E-16));
#1033=DIRECTION('ref_axis',(-1.,0.,0.));
#1034=DIRECTION('center_axis',(0.,-1.,-2.22044604925031E-16));
#1035=DIRECTION('ref_axis',(-1.,0.,0.));
#1036=DIRECTION('center_axis',(0.,-1.,-2.22044604925031E-16));
#1037=DIRECTION('ref_axis',(-1.,0.,0.));
#1038=DIRECTION('center_axis',(0.,-1.,-2.22044604925031E-16));
#1039=DIRECTION('ref_axis',(-1.,0.,0.));
#1040=DIRECTION('center_axis',(0.,-1.,-2.22044604925031E-16));
#1041=DIRECTION('ref_axis',(-1.,0.,0.));
#1042=DIRECTION('center_axis',(0.,-1.,-2.22044604925031E-16));
#1043=DIRECTION('ref_axis',(-1.,0.,0.));
#1044=DIRECTION('center_axis',(0.,-1.,-2.22044604925031E-16));
#1045=DIRECTION('ref_axis',(-1.,0.,0.));
#1046=DIRECTION('',(0.,-1.,-2.22044604925031E-16));
#1047=DIRECTION('center_axis',(0.,-1.,-2.22044604925031E-16));
#1048=DIRECTION('ref_axis',(-1.,0.,0.));
#1049=DIRECTION('center_axis',(0.,-2.22044604925031E-16,1.));
#1050=DIRECTION('ref_axis',(-1.,0.,0.));
#1051=DIRECTION('',(-1.,0.,0.));
#1052=DIRECTION('',(0.,-1.,-2.22044604925031E-16));
#1053=DIRECTION('',(-1.,0.,0.));
#1054=DIRECTION('',(0.,-1.,-2.22044604925031E-16));
#1055=DIRECTION('center_axis',(1.,0.,0.));
#1056=DIRECTION('ref_axis',(0.,-2.22044604925031E-16,1.));
#1057=DIRECTION('',(0.,-2.22044604925031E-16,1.));
#1058=DIRECTION('',(0.,-2.22044604925031E-16,1.));
#1059=DIRECTION('',(0.,-1.,-2.22044604925031E-16));
#1060=DIRECTION('center_axis',(0.,2.22044604925031E-16,-1.));
#1061=DIRECTION('ref_axis',(1.,0.,0.));
#1062=DIRECTION('',(1.,0.,0.));
#1063=DIRECTION('',(1.,0.,0.));
#1064=DIRECTION('',(0.,-1.,-2.22044604925031E-16));
#1065=DIRECTION('center_axis',(-1.,0.,0.));
#1066=DIRECTION('ref_axis',(0.,2.22044604925031E-16,-1.));
#1067=DIRECTION('',(0.,2.22044604925031E-16,-1.));
#1068=DIRECTION('',(0.,2.22044604925031E-16,-1.));
#1069=DIRECTION('center_axis',(0.,-1.,-2.22044604925031E-16));
#1070=DIRECTION('ref_axis',(1.,0.,0.));
#1071=DIRECTION('center_axis',(0.,-1.,-2.22044604925031E-16));
#1072=DIRECTION('ref_axis',(1.,0.,0.));
#1073=DIRECTION('center_axis',(0.,-0.738810419641136,-0.673913320709488));
#1074=DIRECTION('ref_axis',(0.,0.673913320709488,-0.738810419641136));
#1075=DIRECTION('',(0.,-0.673913320709488,0.738810419641136));
#1076=DIRECTION('',(1.,0.,0.));
#1077=DIRECTION('',(0.,0.673913320709488,-0.738810419641136));
#1078=DIRECTION('',(1.,0.,0.));
#1079=DIRECTION('center_axis',(0.,0.,-1.));
#1080=DIRECTION('ref_axis',(0.,1.,0.));
#1081=DIRECTION('',(0.,-1.,0.));
#1082=DIRECTION('',(0.,1.,0.));
#1083=DIRECTION('',(1.,0.,0.));
#1084=DIRECTION('center_axis',(0.,-1.,0.));
#1085=DIRECTION('ref_axis',(0.,0.,-1.));
#1086=DIRECTION('',(0.,0.,1.));
#1087=DIRECTION('',(0.,0.,-1.));
#1088=DIRECTION('',(1.,0.,0.));
#1089=DIRECTION('center_axis',(0.,0.,1.));
#1090=DIRECTION('ref_axis',(0.,-1.,0.));
#1091=DIRECTION('',(0.,1.,0.));
#1092=DIRECTION('',(0.,-1.,0.));
#1093=DIRECTION('',(1.,0.,0.));
#1094=DIRECTION('center_axis',(0.,0.768221279597376,0.64018439966448));
#1095=DIRECTION('ref_axis',(0.,-0.64018439966448,0.768221279597376));
#1096=DIRECTION('',(0.,0.64018439966448,-0.768221279597376));
#1097=DIRECTION('',(0.,-0.64018439966448,0.768221279597376));
#1098=DIRECTION('',(1.,0.,0.));
#1099=DIRECTION('center_axis',(0.,0.64018439966448,-0.768221279597376));
#1100=DIRECTION('ref_axis',(0.,0.768221279597376,0.64018439966448));
#1101=DIRECTION('',(0.,-0.768221279597376,-0.64018439966448));
#1102=DIRECTION('',(0.,0.768221279597376,0.64018439966448));
#1103=DIRECTION('center_axis',(1.,0.,0.));
#1104=DIRECTION('ref_axis',(0.,0.,-1.));
#1105=DIRECTION('center_axis',(1.,0.,0.));
#1106=DIRECTION('ref_axis',(0.,1.,0.));
#1107=DIRECTION('center_axis',(0.,-0.738810419641136,-0.673913320709488));
#1108=DIRECTION('ref_axis',(0.,0.673913320709488,-0.738810419641136));
#1109=DIRECTION('',(0.,-0.673913320709488,0.738810419641136));
#1110=DIRECTION('',(1.,0.,0.));
#1111=DIRECTION('',(0.,0.673913320709488,-0.738810419641136));
#1112=DIRECTION('',(1.,0.,0.));
#1113=DIRECTION('center_axis',(0.,0.,-1.));
#1114=DIRECTION('ref_axis',(0.,1.,0.));
#1115=DIRECTION('',(0.,-1.,0.));
#1116=DIRECTION('',(0.,1.,0.));
#1117=DIRECTION('',(1.,0.,0.));
#1118=DIRECTION('center_axis',(0.,-1.,0.));
#1119=DIRECTION('ref_axis',(0.,0.,-1.));
#1120=DIRECTION('',(0.,0.,1.));
#1121=DIRECTION('',(0.,0.,-1.));
#1122=DIRECTION('',(1.,0.,0.));
#1123=DIRECTION('center_axis',(0.,0.,1.));
#1124=DIRECTION('ref_axis',(0.,-1.,0.));
#1125=DIRECTION('',(0.,1.,0.));
#1126=DIRECTION('',(0.,-1.,0.));
#1127=DIRECTION('',(1.,0.,0.));
#1128=DIRECTION('center_axis',(0.,0.768221279597376,0.64018439966448));
#1129=DIRECTION('ref_axis',(0.,-0.64018439966448,0.768221279597376));
#1130=DIRECTION('',(0.,0.64018439966448,-0.768221279597376));
#1131=DIRECTION('',(0.,-0.64018439966448,0.768221279597376));
#1132=DIRECTION('',(1.,0.,0.));
#1133=DIRECTION('center_axis',(0.,0.64018439966448,-0.768221279597376));
#1134=DIRECTION('ref_axis',(0.,0.768221279597376,0.64018439966448));
#1135=DIRECTION('',(0.,-0.768221279597376,-0.64018439966448));
#1136=DIRECTION('',(0.,0.768221279597376,0.64018439966448));
#1137=DIRECTION('center_axis',(1.,0.,0.));
#1138=DIRECTION('ref_axis',(0.,0.,-1.));
#1139=DIRECTION('center_axis',(1.,0.,0.));
#1140=DIRECTION('ref_axis',(0.,1.,0.));
#1141=CARTESIAN_POINT('',(0.,0.,0.));
#1142=CARTESIAN_POINT('Origin',(1.55,1.11022302462516E-15,6.7584231779198));
#1143=CARTESIAN_POINT('',(0.55,1.11022302462516E-15,6.7584231779198));
#1144=CARTESIAN_POINT('',(1.55,1.11022302462516E-15,6.7584231779198));
#1145=CARTESIAN_POINT('',(1.3,1.05284155218048E-15,6.7584231779198));
#1146=CARTESIAN_POINT('',(0.55,6.,6.7584231779198));
#1147=CARTESIAN_POINT('',(0.55,1.11022302462516E-15,6.7584231779198));
#1148=CARTESIAN_POINT('',(1.55,6.,6.7584231779198));
#1149=CARTESIAN_POINT('',(0.55,6.,6.7584231779198));
#1150=CARTESIAN_POINT('',(1.55,1.11022302462516E-15,6.7584231779198));
#1151=CARTESIAN_POINT('Origin',(1.55,1.11022302462516E-15,5.7584231779198));
#1152=CARTESIAN_POINT('',(1.55,1.11022302462516E-15,5.7584231779198));
#1153=CARTESIAN_POINT('',(1.55,1.19255459086534E-15,6.1292115889599));
#1154=CARTESIAN_POINT('',(1.55,6.,5.7584231779198));
#1155=CARTESIAN_POINT('',(1.55,6.,5.7584231779198));
#1156=CARTESIAN_POINT('',(1.55,1.11022302462516E-15,5.7584231779198));
#1157=CARTESIAN_POINT('Origin',(0.55,1.11022302462516E-15,5.7584231779198));
#1158=CARTESIAN_POINT('',(0.55,1.11022302462516E-15,5.7584231779198));
#1159=CARTESIAN_POINT('',(0.8,1.27488615710551E-15,5.7584231779198));
#1160=CARTESIAN_POINT('',(0.55,6.,5.7584231779198));
#1161=CARTESIAN_POINT('',(1.05,6.,5.7584231779198));
#1162=CARTESIAN_POINT('',(0.55,1.11022302462516E-15,5.7584231779198));
#1163=CARTESIAN_POINT('Origin',(0.55,1.11022302462516E-15,6.7584231779198));
#1164=CARTESIAN_POINT('',(0.55,1.08153228840282E-15,6.6292115889599));
#1165=CARTESIAN_POINT('',(0.55,6.,5.7584231779198));
#1166=CARTESIAN_POINT('Origin',(-0.799999935179949,1.11022302462516E-15,
7.99999982118607));
#1167=CARTESIAN_POINT('',(-0.424999935179949,6.,7.99999982118607));
#1168=CARTESIAN_POINT('Origin',(-0.799999935179949,6.,7.99999982118607));
#1169=CARTESIAN_POINT('',(-0.424999935179949,1.11022302462516E-15,7.99999982118607));
#1170=CARTESIAN_POINT('',(-0.424999935179949,1.11022302462516E-15,7.99999982118607));
#1171=CARTESIAN_POINT('Origin',(-0.799999935179949,1.11022302462516E-15,
7.99999982118607));
#1172=CARTESIAN_POINT('Origin',(3.69999991729856,1.11022302462516E-15,6.79999984800816));
#1173=CARTESIAN_POINT('',(4.07499991729856,6.,6.79999984800816));
#1174=CARTESIAN_POINT('Origin',(3.69999991729856,6.,6.79999984800816));
#1175=CARTESIAN_POINT('',(4.07499991729856,1.11022302462516E-15,6.79999984800816));
#1176=CARTESIAN_POINT('',(4.07499991729856,1.11022302462516E-15,6.79999984800816));
#1177=CARTESIAN_POINT('Origin',(3.69999991729856,1.11022302462516E-15,6.79999984800816));
#1178=CARTESIAN_POINT('Origin',(0.399999991059303,1.11022302462516E-15,
5.09999988600612));
#1179=CARTESIAN_POINT('',(0.774999991059303,6.,5.09999988600612));
#1180=CARTESIAN_POINT('Origin',(0.399999991059303,6.,5.09999988600612));
#1181=CARTESIAN_POINT('',(0.774999991059303,1.11022302462516E-15,5.09999988600612));
#1182=CARTESIAN_POINT('',(0.774999991059303,1.11022302462516E-15,5.09999988600612));
#1183=CARTESIAN_POINT('Origin',(0.399999991059303,1.11022302462516E-15,
5.09999988600612));
#1184=CARTESIAN_POINT('Origin',(-1.59999991729856,1.11022302462516E-15,
6.79999984800816));
#1185=CARTESIAN_POINT('',(-1.22499991729856,6.,6.79999984800816));
#1186=CARTESIAN_POINT('Origin',(-1.59999991729856,6.,6.79999984800816));
#1187=CARTESIAN_POINT('',(-1.22499991729856,1.11022302462516E-15,6.79999984800816));
#1188=CARTESIAN_POINT('',(-1.22499991729856,1.11022302462516E-15,6.79999984800816));
#1189=CARTESIAN_POINT('Origin',(-1.59999991729856,1.11022302462516E-15,
6.79999984800816));
#1190=CARTESIAN_POINT('Origin',(2.89999993517995,1.11022302462516E-15,7.99999982118607));
#1191=CARTESIAN_POINT('',(3.27499993517995,6.,7.99999982118607));
#1192=CARTESIAN_POINT('Origin',(2.89999993517995,6.,7.99999982118607));
#1193=CARTESIAN_POINT('',(3.27499993517995,1.11022302462516E-15,7.99999982118607));
#1194=CARTESIAN_POINT('',(3.27499993517995,1.11022302462516E-15,7.99999982118607));
#1195=CARTESIAN_POINT('Origin',(2.89999993517995,1.11022302462516E-15,7.99999982118607));
#1196=CARTESIAN_POINT('Origin',(-0.95,1.11022302462516E-15,4.38349671183761));
#1197=CARTESIAN_POINT('',(-1.88249209112099,1.11022302462516E-15,4.38349671183761));
#1198=CARTESIAN_POINT('',(-0.95,1.11022302462516E-15,4.38349671183761));
#1199=CARTESIAN_POINT('',(0.0499999999999998,1.5801811610677E-15,4.38349671183761));
#1200=CARTESIAN_POINT('',(-1.88249209112099,6.,4.38349671183761));
#1201=CARTESIAN_POINT('',(-1.88249209112099,1.11022302462516E-15,4.38349671183761));
#1202=CARTESIAN_POINT('',(-0.95,6.,4.38349671183761));
#1203=CARTESIAN_POINT('',(-2.95,6.,4.38349671183761));
#1204=CARTESIAN_POINT('',(-0.95,1.11022302462516E-15,4.38349671183761));
#1205=CARTESIAN_POINT('Origin',(-0.95,1.11022302462516E-15,3.48684616501425));
#1206=CARTESIAN_POINT('',(-0.95,1.11022302462516E-15,3.48684616501425));
#1207=CARTESIAN_POINT('',(-0.95,1.44475030105903E-15,4.99342308250712));
#1208=CARTESIAN_POINT('',(-0.95,6.,3.48684616501425));
#1209=CARTESIAN_POINT('',(-0.95,6.,4.38349671183761));
#1210=CARTESIAN_POINT('',(-0.95,1.11022302462516E-15,3.48684616501425));
#1211=CARTESIAN_POINT('Origin',(1.05,1.11022302462516E-15,6.5));
#1212=CARTESIAN_POINT('',(3.05,1.11022302462516E-15,3.48684616501425));
#1213=CARTESIAN_POINT('Origin',(1.05,1.11022302462516E-15,6.5));
#1214=CARTESIAN_POINT('',(3.05,6.,3.48684616501425));
#1215=CARTESIAN_POINT('Origin',(1.05,6.,6.5));
#1216=CARTESIAN_POINT('',(3.05,1.11022302462516E-15,3.48684616501425));
#1217=CARTESIAN_POINT('Origin',(3.05,1.11022302462516E-15,4.38349671183761));
#1218=CARTESIAN_POINT('',(3.05,1.11022302462516E-15,4.38349671183761));
#1219=CARTESIAN_POINT('',(3.05,1.34520209284643E-15,5.44174835591881));
#1220=CARTESIAN_POINT('',(3.05,6.,4.38349671183761));
#1221=CARTESIAN_POINT('',(3.05,6.,4.38349671183761));
#1222=CARTESIAN_POINT('',(3.05,1.11022302462516E-15,4.38349671183761));
#1223=CARTESIAN_POINT('Origin',(3.98249209112099,1.11022302462516E-15,4.38349671183761));
#1224=CARTESIAN_POINT('',(3.98249209112099,1.11022302462516E-15,4.38349671183761));
#1225=CARTESIAN_POINT('',(2.5162460455605,1.5801811610677E-15,4.38349671183761));
#1226=CARTESIAN_POINT('',(3.98249209112099,6.,4.38349671183761));
#1227=CARTESIAN_POINT('',(5.05,6.,4.38349671183761));
#1228=CARTESIAN_POINT('',(3.98249209112099,1.11022302462516E-15,4.38349671183761));
#1229=CARTESIAN_POINT('Origin',(1.05,1.11022302462516E-15,6.5));
#1230=CARTESIAN_POINT('',(1.6,1.11022302462516E-15,10.0744364637365));
#1231=CARTESIAN_POINT('Origin',(1.05,1.11022302462516E-15,6.5));
#1232=CARTESIAN_POINT('',(1.6,6.,10.0744364637365));
#1233=CARTESIAN_POINT('Origin',(1.05,6.,6.5));
#1234=CARTESIAN_POINT('',(1.6,1.11022302462516E-15,10.0744364637365));
#1235=CARTESIAN_POINT('Origin',(1.6,1.11022302462516E-15,9.11650328816239));
#1236=CARTESIAN_POINT('',(1.6,1.11022302462516E-15,9.11650328816239));
#1237=CARTESIAN_POINT('',(1.6,8.19732805172625E-16,7.80825164408119));
#1238=CARTESIAN_POINT('',(1.6,6.,9.11650328816239));
#1239=CARTESIAN_POINT('',(1.6,6.,10.1165032881624));
#1240=CARTESIAN_POINT('',(1.6,1.11022302462516E-15,9.11650328816239));
#1241=CARTESIAN_POINT('Origin',(0.500000007450581,1.11022302462516E-15,
9.11650328816239));
#1242=CARTESIAN_POINT('',(0.500000007450581,1.11022302462516E-15,9.11650328816239));
#1243=CARTESIAN_POINT('',(0.77500000372529,5.29242585720094E-16,9.11650328816239));
#1244=CARTESIAN_POINT('',(0.500000007450581,6.,9.11650328816239));
#1245=CARTESIAN_POINT('',(0.500000007450581,6.,9.11650328816239));
#1246=CARTESIAN_POINT('',(0.500000007450581,1.11022302462516E-15,9.11650328816239));
#1247=CARTESIAN_POINT('Origin',(0.500000007450581,1.11022302462516E-15,
10.074436464883));
#1248=CARTESIAN_POINT('',(0.500000007450581,1.11022302462516E-15,10.074436464883));
#1249=CARTESIAN_POINT('',(0.500000007450581,7.13380858287875E-16,8.28721823244148));
#1250=CARTESIAN_POINT('',(0.500000007450581,6.,10.074436464883));
#1251=CARTESIAN_POINT('',(0.500000007450581,6.,10.1165032881624));
#1252=CARTESIAN_POINT('',(0.500000007450581,1.11022302462516E-15,10.074436464883));
#1253=CARTESIAN_POINT('Origin',(1.05,1.11022302462516E-15,6.5));
#1254=CARTESIAN_POINT('Origin',(1.05,1.11022302462516E-15,6.5));
#1255=CARTESIAN_POINT('Origin',(1.05,6.,6.5));
#1256=CARTESIAN_POINT('Origin',(1.05,6.,6.47896658836029));
#1257=CARTESIAN_POINT('Origin',(1.05,1.11022302462516E-15,6.5));
#1258=CARTESIAN_POINT('',(6.05,1.11022302462516E-15,6.5));
#1259=CARTESIAN_POINT('Origin',(1.05,1.11022302462516E-15,6.5));
#1260=CARTESIAN_POINT('Origin',(1.05,1.11022302462516E-15,6.5));
#1261=CARTESIAN_POINT('Origin',(1.05,1.11022302462516E-15,6.5));
#1262=CARTESIAN_POINT('Origin',(1.05,1.11022302462516E-15,6.5));
#1263=CARTESIAN_POINT('Origin',(1.05,1.11022302462516E-15,6.5));
#1264=CARTESIAN_POINT('Origin',(1.05,1.11022302462516E-15,6.5));
#1265=CARTESIAN_POINT('Origin',(1.05,3.,6.5));
#1266=CARTESIAN_POINT('',(6.05,6.,6.5));
#1267=CARTESIAN_POINT('Origin',(1.05,6.,6.5));
#1268=CARTESIAN_POINT('',(6.05,3.,6.5));
#1269=CARTESIAN_POINT('Origin',(1.05,1.11022302462516E-15,6.5));
#1270=CARTESIAN_POINT('Origin',(8.1,6.,13.));
#1271=CARTESIAN_POINT('',(8.1,6.,13.));
#1272=CARTESIAN_POINT('',(-6.,6.,13.));
#1273=CARTESIAN_POINT('',(8.1,6.,13.));
#1274=CARTESIAN_POINT('',(-6.,-7.2,13.));
#1275=CARTESIAN_POINT('',(-6.,6.,13.));
#1276=CARTESIAN_POINT('',(8.1,-7.2,13.));
#1277=CARTESIAN_POINT('',(8.1,-7.2,13.));
#1278=CARTESIAN_POINT('',(8.1,6.,13.));
#1279=CARTESIAN_POINT('Origin',(8.1,6.,1.33226762955019E-15));
#1280=CARTESIAN_POINT('',(8.1,6.,1.33226762955019E-15));
#1281=CARTESIAN_POINT('',(8.1,6.,1.33226762955019E-15));
#1282=CARTESIAN_POINT('',(8.1,-7.2,-1.59872115546022E-15));
#1283=CARTESIAN_POINT('',(8.1,-7.2,-1.59872115546022E-15));
#1284=CARTESIAN_POINT('',(8.1,6.,1.33226762955019E-15));
#1285=CARTESIAN_POINT('Origin',(-6.,6.,1.33226762955019E-15));
#1286=CARTESIAN_POINT('',(-6.,6.,1.33226762955019E-15));
#1287=CARTESIAN_POINT('',(-6.,6.,1.33226762955019E-15));
#1288=CARTESIAN_POINT('',(-6.,-7.2,-1.59872115546022E-15));
#1289=CARTESIAN_POINT('',(-6.,-7.2,-1.59872115546022E-15));
#1290=CARTESIAN_POINT('',(-6.,6.,1.33226762955019E-15));
#1291=CARTESIAN_POINT('Origin',(-6.,6.,13.));
#1292=CARTESIAN_POINT('',(-6.,6.,13.));
#1293=CARTESIAN_POINT('',(-6.,-7.2,13.));
#1294=CARTESIAN_POINT('Origin',(1.05,-7.2,6.5));
#1295=CARTESIAN_POINT('Origin',(1.05,6.,6.5));
#1296=CARTESIAN_POINT('Origin',(6.2,6.69999985024333,1.89999995753169));
#1297=CARTESIAN_POINT('',(6.2,7.16640996353892,1.38867507206125));
#1298=CARTESIAN_POINT('',(6.2,6.69999985024333,1.89999995753169));
#1299=CARTESIAN_POINT('',(6.2,7.16640996353892,1.38867507206125));
#1300=CARTESIAN_POINT('',(6.7,7.16640996353892,1.38867507206125));
#1301=CARTESIAN_POINT('',(6.2,7.16640996353892,1.38867507206125));
#1302=CARTESIAN_POINT('',(6.7,6.69999985024333,1.89999995753169));
#1303=CARTESIAN_POINT('',(6.7,7.16640996353892,1.38867507206125));
#1304=CARTESIAN_POINT('',(6.2,6.69999985024333,1.89999995753169));
#1305=CARTESIAN_POINT('Origin',(6.2,5.99999986588955,1.89999995753169));
#1306=CARTESIAN_POINT('',(6.2,5.99999986588955,1.89999995753169));
#1307=CARTESIAN_POINT('',(6.2,6.79999984800816,1.89999995753169));
#1308=CARTESIAN_POINT('',(6.7,5.99999986588955,1.89999995753169));
#1309=CARTESIAN_POINT('',(6.7,6.79999984800816,1.89999995753169));
#1310=CARTESIAN_POINT('',(6.2,5.99999986588955,1.89999995753169));
#1311=CARTESIAN_POINT('Origin',(6.2,5.99999986588955,2.09999995306134));
#1312=CARTESIAN_POINT('',(6.2,5.99999986588955,2.09999995306134));
#1313=CARTESIAN_POINT('',(6.2,5.99999986588955,1.89999995753169));
#1314=CARTESIAN_POINT('',(6.7,5.99999986588955,2.09999995306134));
#1315=CARTESIAN_POINT('',(6.7,5.99999986588955,1.89999995753169));
#1316=CARTESIAN_POINT('',(6.2,5.99999986588955,2.09999995306134));
#1317=CARTESIAN_POINT('Origin',(6.2,6.79999984800816,2.09999995306134));
#1318=CARTESIAN_POINT('',(6.2,6.79999984800816,2.09999995306134));
#1319=CARTESIAN_POINT('',(6.2,5.99999986588955,2.09999995306134));
#1320=CARTESIAN_POINT('',(6.7,6.79999984800816,2.09999995306134));
#1321=CARTESIAN_POINT('',(6.7,5.99999986588955,2.09999995306134));
#1322=CARTESIAN_POINT('',(6.2,6.79999984800816,2.09999995306134));
#1323=CARTESIAN_POINT('Origin',(6.2,7.29999983683228,1.49999996647239));
#1324=CARTESIAN_POINT('',(6.2,7.29999983683228,1.49999996647239));
#1325=CARTESIAN_POINT('',(6.2,6.79999984800816,2.09999995306134));
#1326=CARTESIAN_POINT('',(6.7,7.29999983683228,1.49999996647239));
#1327=CARTESIAN_POINT('',(6.7,6.79999984800816,2.09999995306134));
#1328=CARTESIAN_POINT('',(6.2,7.29999983683228,1.49999996647239));
#1329=CARTESIAN_POINT('Origin',(6.2,7.16640996353892,1.38867507206125));
#1330=CARTESIAN_POINT('',(6.2,7.29999983683228,1.49999996647239));
#1331=CARTESIAN_POINT('',(6.7,7.29999983683228,1.49999996647239));
#1332=CARTESIAN_POINT('Origin',(6.7,6.64999985136092,1.7443375125613));
#1333=CARTESIAN_POINT('Origin',(6.2,6.64999985136092,1.7443375125613));
#1334=CARTESIAN_POINT('Origin',(-4.3,6.69999985024333,1.89999995753169));
#1335=CARTESIAN_POINT('',(-4.3,7.16640996353892,1.38867507206125));
#1336=CARTESIAN_POINT('',(-4.3,6.69999985024333,1.89999995753169));
#1337=CARTESIAN_POINT('',(-4.3,7.16640996353892,1.38867507206125));
#1338=CARTESIAN_POINT('',(-3.8,7.16640996353892,1.38867507206125));
#1339=CARTESIAN_POINT('',(-4.3,7.16640996353892,1.38867507206125));
#1340=CARTESIAN_POINT('',(-3.8,6.69999985024333,1.89999995753169));
#1341=CARTESIAN_POINT('',(-3.8,7.16640996353892,1.38867507206125));
#1342=CARTESIAN_POINT('',(-4.3,6.69999985024333,1.89999995753169));
#1343=CARTESIAN_POINT('Origin',(-4.3,5.99999986588955,1.89999995753169));
#1344=CARTESIAN_POINT('',(-4.3,5.99999986588955,1.89999995753169));
#1345=CARTESIAN_POINT('',(-4.3,6.79999984800816,1.89999995753169));
#1346=CARTESIAN_POINT('',(-3.8,5.99999986588955,1.89999995753169));
#1347=CARTESIAN_POINT('',(-3.8,6.79999984800816,1.89999995753169));
#1348=CARTESIAN_POINT('',(-4.3,5.99999986588955,1.89999995753169));
#1349=CARTESIAN_POINT('Origin',(-4.3,5.99999986588955,2.09999995306134));
#1350=CARTESIAN_POINT('',(-4.3,5.99999986588955,2.09999995306134));
#1351=CARTESIAN_POINT('',(-4.3,5.99999986588955,1.89999995753169));
#1352=CARTESIAN_POINT('',(-3.8,5.99999986588955,2.09999995306134));
#1353=CARTESIAN_POINT('',(-3.8,5.99999986588955,1.89999995753169));
#1354=CARTESIAN_POINT('',(-4.3,5.99999986588955,2.09999995306134));
#1355=CARTESIAN_POINT('Origin',(-4.3,6.79999984800816,2.09999995306134));
#1356=CARTESIAN_POINT('',(-4.3,6.79999984800816,2.09999995306134));
#1357=CARTESIAN_POINT('',(-4.3,5.99999986588955,2.09999995306134));
#1358=CARTESIAN_POINT('',(-3.8,6.79999984800816,2.09999995306134));
#1359=CARTESIAN_POINT('',(-3.8,5.99999986588955,2.09999995306134));
#1360=CARTESIAN_POINT('',(-4.3,6.79999984800816,2.09999995306134));
#1361=CARTESIAN_POINT('Origin',(-4.3,7.29999983683228,1.49999996647239));
#1362=CARTESIAN_POINT('',(-4.3,7.29999983683228,1.49999996647239));
#1363=CARTESIAN_POINT('',(-4.3,6.79999984800816,2.09999995306134));
#1364=CARTESIAN_POINT('',(-3.8,7.29999983683228,1.49999996647239));
#1365=CARTESIAN_POINT('',(-3.8,6.79999984800816,2.09999995306134));
#1366=CARTESIAN_POINT('',(-4.3,7.29999983683228,1.49999996647239));
#1367=CARTESIAN_POINT('Origin',(-4.3,7.16640996353892,1.38867507206125));
#1368=CARTESIAN_POINT('',(-4.3,7.29999983683228,1.49999996647239));
#1369=CARTESIAN_POINT('',(-3.8,7.29999983683228,1.49999996647239));
#1370=CARTESIAN_POINT('Origin',(-3.8,6.64999985136092,1.7443375125613));
#1371=CARTESIAN_POINT('Origin',(-4.3,6.64999985136092,1.7443375125613));
#1372=UNCERTAINTY_MEASURE_WITH_UNIT(LENGTH_MEASURE(0.01),#1376,
'DISTANCE_ACCURACY_VALUE',
'Maximum model space distance between geometric entities at asserted c
onnectivities');
#1373=UNCERTAINTY_MEASURE_WITH_UNIT(LENGTH_MEASURE(0.01),#1376,
'DISTANCE_ACCURACY_VALUE',
'Maximum model space distance between geometric entities at asserted c
onnectivities');
#1374=(
GEOMETRIC_REPRESENTATION_CONTEXT(3)
GLOBAL_UNCERTAINTY_ASSIGNED_CONTEXT((#1372))
GLOBAL_UNIT_ASSIGNED_CONTEXT((#1376,#1378,#1379))
REPRESENTATION_CONTEXT('','3D')
);
#1375=(
GEOMETRIC_REPRESENTATION_CONTEXT(3)
GLOBAL_UNCERTAINTY_ASSIGNED_CONTEXT((#1373))
GLOBAL_UNIT_ASSIGNED_CONTEXT((#1376,#1378,#1379))
REPRESENTATION_CONTEXT('','3D')
);
#1376=(
LENGTH_UNIT()
NAMED_UNIT(*)
SI_UNIT(.MILLI.,.METRE.)
);
#1377=(
LENGTH_UNIT()
NAMED_UNIT(*)
SI_UNIT($,.METRE.)
);
#1378=(
NAMED_UNIT(*)
PLANE_ANGLE_UNIT()
SI_UNIT($,.RADIAN.)
);
#1379=(
NAMED_UNIT(*)
SI_UNIT($,.STERADIAN.)
SOLID_ANGLE_UNIT()
);
#1380=SHAPE_DEFINITION_REPRESENTATION(#1381,#1382);
#1381=PRODUCT_DEFINITION_SHAPE('',$,#1384);
#1382=SHAPE_REPRESENTATION('',(#844),#1374);
#1383=PRODUCT_DEFINITION_CONTEXT('part definition',#1388,'design');
#1384=PRODUCT_DEFINITION('(Unsaved)','(Unsaved)',#1385,#1383);
#1385=PRODUCT_DEFINITION_FORMATION('',$,#1390);
#1386=PRODUCT_RELATED_PRODUCT_CATEGORY('(Unsaved)','(Unsaved)',(#1390));
#1387=APPLICATION_PROTOCOL_DEFINITION('international standard',
'automotive_design',2009,#1388);
#1388=APPLICATION_CONTEXT(
'Core Data for Automotive Mechanical Design Process');
#1389=PRODUCT_CONTEXT('part definition',#1388,'mechanical');
#1390=PRODUCT('(Unsaved)','(Unsaved)',$,(#1389));
#1391=PRESENTATION_STYLE_ASSIGNMENT((#1392));
#1392=SURFACE_STYLE_USAGE(.BOTH.,#1393);
#1393=SURFACE_SIDE_STYLE('',(#1394));
#1394=SURFACE_STYLE_FILL_AREA(#1395);
#1395=FILL_AREA_STYLE('Steel - Satin',(#1396));
#1396=FILL_AREA_STYLE_COLOUR('Steel - Satin',#1397);
#1397=COLOUR_RGB('Steel - Satin',0.627450980392157,0.627450980392157,0.627450980392157);
ENDSEC;
END-ISO-10303-21;
