<?plantuml 1.2026.1?><svg xmlns="http://www.w3.org/2000/svg" xmlns:xlink="http://www.w3.org/1999/xlink" contentStyleType="text/css" data-diagram-type="TIMING" height="189px" preserveAspectRatio="none" style="width:562px;height:189px;background:#FFFFFF;" version="1.1" viewBox="0 0 562 189" width="562px" zoomAndPan="magnify"><defs/><g><line style="stroke:#333333;stroke-width:0.5;" x1="10" x2="10" y1="10" y2="159.8857"/><line style="stroke:#333333;stroke-width:0.5;" x1="550" x2="550" y1="10" y2="159.8857"/><rect fill="#FFD700" height="149.8857" style="stroke:none;stroke-width:1;" width="150" x="95" y="10"/><rect fill="#FFFF00" height="149.8857" style="stroke:none;stroke-width:1;" width="75" x="245" y="10"/><rect fill="#FFD700" height="149.8857" style="stroke:none;stroke-width:1;" width="150" x="320" y="10"/><line style="stroke:#333333;stroke-width:0.5;stroke-dasharray:3,5;" x1="20" x2="20" y1="10" y2="159.8857"/><line style="stroke:#333333;stroke-width:0.5;stroke-dasharray:3,5;" x1="95" x2="95" y1="10" y2="159.8857"/><line style="stroke:#333333;stroke-width:0.5;stroke-dasharray:3,5;" x1="170" x2="170" y1="10" y2="159.8857"/><line style="stroke:#333333;stroke-width:0.5;stroke-dasharray:3,5;" x1="245" x2="245" y1="10" y2="159.8857"/><line style="stroke:#333333;stroke-width:0.5;stroke-dasharray:3,5;" x1="320" x2="320" y1="10" y2="159.8857"/><line style="stroke:#333333;stroke-width:0.5;stroke-dasharray:3,5;" x1="395" x2="395" y1="10" y2="159.8857"/><line style="stroke:#333333;stroke-width:0.5;stroke-dasharray:3,5;" x1="470" x2="470" y1="10" y2="159.8857"/><line style="stroke:#333333;stroke-width:0.5;stroke-dasharray:3,5;" x1="545" x2="545" y1="10" y2="159.8857"/><line style="stroke:#333333;stroke-width:0.5;" x1="10" x2="550" y1="10" y2="10"/><text fill="#333333" font-family="Linux Biolinum G" font-size="14" font-weight="bold" lengthAdjust="spacing" textLength="28.5264" x="15" y="22.5166">CLK</text><line style="stroke:#333333;stroke-width:0.5;" x1="10" x2="44.5264" y1="26.9619" y2="26.9619"/><line style="stroke:#333333;stroke-width:0.5;" x1="44.5264" x2="54.5264" y1="26.9619" y2="10"/><line style="stroke:#006400;stroke-width:2;" x1="20" x2="95" y1="48.9619" y2="48.9619"/><line style="stroke:#006400;stroke-width:2;" x1="95" x2="95" y1="34.9619" y2="48.9619"/><line style="stroke:#006400;stroke-width:2;" x1="95" x2="170" y1="34.9619" y2="34.9619"/><line style="stroke:#006400;stroke-width:2;" x1="170" x2="170" y1="34.9619" y2="48.9619"/><line style="stroke:#006400;stroke-width:2;" x1="170" x2="245" y1="48.9619" y2="48.9619"/><line style="stroke:#006400;stroke-width:2;" x1="245" x2="245" y1="34.9619" y2="48.9619"/><line style="stroke:#006400;stroke-width:2;" x1="245" x2="245" y1="34.9619" y2="48.9619"/><line style="stroke:#006400;stroke-width:2;" x1="250" x2="250" y1="34.9619" y2="48.9619"/><line style="stroke:#006400;stroke-width:2;" x1="255" x2="255" y1="34.9619" y2="48.9619"/><line style="stroke:#006400;stroke-width:2;" x1="260" x2="260" y1="34.9619" y2="48.9619"/><line style="stroke:#006400;stroke-width:2;" x1="265" x2="265" y1="34.9619" y2="48.9619"/><line style="stroke:#006400;stroke-width:2;" x1="270" x2="270" y1="34.9619" y2="48.9619"/><line style="stroke:#006400;stroke-width:2;" x1="275" x2="275" y1="34.9619" y2="48.9619"/><line style="stroke:#006400;stroke-width:2;" x1="280" x2="280" y1="34.9619" y2="48.9619"/><line style="stroke:#006400;stroke-width:2;" x1="285" x2="285" y1="34.9619" y2="48.9619"/><line style="stroke:#006400;stroke-width:2;" x1="290" x2="290" y1="34.9619" y2="48.9619"/><line style="stroke:#006400;stroke-width:2;" x1="295" x2="295" y1="34.9619" y2="48.9619"/><line style="stroke:#006400;stroke-width:2;" x1="300" x2="300" y1="34.9619" y2="48.9619"/><line style="stroke:#006400;stroke-width:2;" x1="305" x2="305" y1="34.9619" y2="48.9619"/><line style="stroke:#006400;stroke-width:2;" x1="310" x2="310" y1="34.9619" y2="48.9619"/><line style="stroke:#006400;stroke-width:2;" x1="315" x2="315" y1="34.9619" y2="48.9619"/><line style="stroke:#006400;stroke-width:2;" x1="320" x2="320" y1="34.9619" y2="48.9619"/><line style="stroke:#006400;stroke-width:2;" x1="320" x2="395" y1="34.9619" y2="34.9619"/><line style="stroke:#006400;stroke-width:2;" x1="395" x2="395" y1="34.9619" y2="48.9619"/><line style="stroke:#006400;stroke-width:2;" x1="395" x2="470" y1="48.9619" y2="48.9619"/><line style="stroke:#006400;stroke-width:2;" x1="470" x2="545" y1="48.9619" y2="48.9619"/><line style="stroke:#333333;stroke-width:0.5;" x1="10" x2="550" y1="56.9619" y2="56.9619"/><text fill="#333333" font-family="Linux Biolinum G" font-size="14" font-weight="bold" lengthAdjust="spacing" textLength="38.835" x="15" y="69.4785">DATA</text><line style="stroke:#333333;stroke-width:0.5;" x1="10" x2="54.835" y1="73.9238" y2="73.9238"/><line style="stroke:#333333;stroke-width:0.5;" x1="54.835" x2="64.835" y1="73.9238" y2="56.9619"/><polygon fill="#E2E2F0" points="107,78.9238,233,78.9238,245,90.9238,233,102.9238,107,102.9238,95,90.9238" style="stroke:#006400;stroke-width:1.5;"/><polygon fill="#E2E2F0" points="257,78.9238,308,78.9238,320,90.9238,308,102.9238,257,102.9238,245,90.9238" style="stroke:#006400;stroke-width:1.5;"/><polygon fill="#E2E2F0" points="332,78.9238,458,78.9238,470,90.9238,458,102.9238,332,102.9238,320,90.9238" style="stroke:#006400;stroke-width:1.5;"/><text fill="#333333" font-family="Linux Biolinum G" font-size="12" font-weight="bold" lengthAdjust="spacing" textLength="110.5488" x="114.7256" y="94.8115">data[0] = ID p&#345;&#237;kazu</text><text fill="#333333" font-family="Linux Biolinum G" font-size="12" font-weight="bold" lengthAdjust="spacing" textLength="8.8418" x="278.0791" y="94.8115">...</text><text fill="#333333" font-family="Linux Biolinum G" font-size="12" font-weight="bold" lengthAdjust="spacing" textLength="40.5527" x="374.7236" y="94.8115">data[n]</text><line style="stroke:#333333;stroke-width:0.5;" x1="10" x2="550" y1="112.9238" y2="112.9238"/><text fill="#333333" font-family="Linux Biolinum G" font-size="14" font-weight="bold" lengthAdjust="spacing" textLength="14.7793" x="15" y="125.4404">S2</text><line style="stroke:#333333;stroke-width:0.5;" x1="10" x2="30.7793" y1="129.8857" y2="129.8857"/><line style="stroke:#333333;stroke-width:0.5;" x1="30.7793" x2="40.7793" y1="129.8857" y2="112.9238"/><line style="stroke:#006400;stroke-width:2;" x1="20" x2="95" y1="151.8857" y2="151.8857"/><line style="stroke:#006400;stroke-width:2;" x1="95" x2="470" y1="151.8857" y2="151.8857"/><line style="stroke:#006400;stroke-width:2;" x1="470" x2="470" y1="137.8857" y2="151.8857"/><line style="stroke:#006400;stroke-width:2;" x1="470" x2="545" y1="137.8857" y2="137.8857"/><line style="stroke:#333333;stroke-width:2;" x1="20" x2="20" y1="159.8857" y2="164.8857"/><line style="stroke:#333333;stroke-width:2;" x1="95" x2="95" y1="159.8857" y2="164.8857"/><line style="stroke:#333333;stroke-width:2;" x1="170" x2="170" y1="159.8857" y2="164.8857"/><line style="stroke:#333333;stroke-width:2;" x1="245" x2="245" y1="159.8857" y2="164.8857"/><line style="stroke:#333333;stroke-width:2;" x1="320" x2="320" y1="159.8857" y2="164.8857"/><line style="stroke:#333333;stroke-width:2;" x1="395" x2="395" y1="159.8857" y2="164.8857"/><line style="stroke:#333333;stroke-width:2;" x1="470" x2="470" y1="159.8857" y2="164.8857"/><line style="stroke:#333333;stroke-width:2;" x1="545" x2="545" y1="159.8857" y2="164.8857"/><line style="stroke:#333333;stroke-width:2;" x1="20" x2="545" y1="159.8857" y2="159.8857"/><text fill="#333333" font-family="Linux Biolinum G" font-size="11" lengthAdjust="spacing" textLength="5.1133" x="17.4434" y="175.7202">0</text><text fill="#333333" font-family="Linux Biolinum G" font-size="11" lengthAdjust="spacing" textLength="5.1133" x="92.4434" y="175.7202">1</text><text fill="#333333" font-family="Linux Biolinum G" font-size="11" lengthAdjust="spacing" textLength="4.8823" x="167.5588" y="175.7202">2</text><text fill="#333333" font-family="Linux Biolinum G" font-size="11" lengthAdjust="spacing" textLength="5.1133" x="242.4434" y="175.7202">3</text><text fill="#333333" font-family="Linux Biolinum G" font-size="11" lengthAdjust="spacing" textLength="5.1133" x="317.4434" y="175.7202">4</text><text fill="#333333" font-family="Linux Biolinum G" font-size="11" lengthAdjust="spacing" textLength="5.1133" x="392.4434" y="175.7202">5</text><text fill="#333333" font-family="Linux Biolinum G" font-size="11" lengthAdjust="spacing" textLength="5.1133" x="467.4434" y="175.7202">6</text><text fill="#333333" font-family="Linux Biolinum G" font-size="11" lengthAdjust="spacing" textLength="5.1133" x="542.4434" y="175.7202">7</text><line style="stroke:#333333;stroke-width:2;stroke-dasharray:4,4;" x1="95" x2="95" y1="10" y2="159.8857"/><line style="stroke:#333333;stroke-width:2;stroke-dasharray:4,4;" x1="245" x2="245" y1="10" y2="159.8857"/><text fill="#000000" font-family="Linux Biolinum G" font-size="12" lengthAdjust="spacing" textLength="32.8418" x="98" y="22.7285">1. byte</text><line style="stroke:#333333;stroke-width:2;stroke-dasharray:4,4;" x1="245" x2="245" y1="10" y2="159.8857"/><line style="stroke:#333333;stroke-width:2;stroke-dasharray:4,4;" x1="320" x2="320" y1="10" y2="159.8857"/><line style="stroke:#333333;stroke-width:2;stroke-dasharray:4,4;" x1="320" x2="320" y1="10" y2="159.8857"/><line style="stroke:#333333;stroke-width:2;stroke-dasharray:4,4;" x1="470" x2="470" y1="10" y2="159.8857"/><text fill="#000000" font-family="Linux Biolinum G" font-size="12" lengthAdjust="spacing" textLength="45.2285" x="323" y="22.7285">n-t&#253; byte</text><?plantuml-src VL3HIiCm57s_Nt7fNhLqTPim43eT3d7uKbz4naYRk8QbILapt1px43_2J_1f-5ycdUrI4H-It7jophc7MowvBCYAv4ZP2raBVQkaVY0vmocNwmrUSoLCaUC4ofG8Xbqa9LxsiU0R9ag0X4kosg9tCxttx9Tv8LKovIL3Rpnw75MeBHfg75PO7094bTsG4atcmJnX2uWkN8H92b7lXCWZP-0YbWDcBF8IXNg5EAmhY08xelxC-283cyGsdbK_1pEymhin5b_lXuybULjxBNde-ffeTRip_Pcrsv_yVD_t3AVtppGviun-stJGa7OPfvJ9_K-4oW3iBSpHxfPGAtT5s9aeGOTT7vEjPdz8BAUHL3l4pXCJDi1licpxIyTVdkl3vt74Dm00?></g></svg>